%TF.GenerationSoftware,KiCad,Pcbnew,(6.0.8)*%
%TF.CreationDate,2023-05-25T13:10:06+01:00*%
%TF.ProjectId,BlueRetro_Universal_HW1,426c7565-5265-4747-926f-5f556e697665,rev?*%
%TF.SameCoordinates,Original*%
%TF.FileFunction,Legend,Top*%
%TF.FilePolarity,Positive*%
%FSLAX46Y46*%
G04 Gerber Fmt 4.6, Leading zero omitted, Abs format (unit mm)*
G04 Created by KiCad (PCBNEW (6.0.8)) date 2023-05-25 13:10:06*
%MOMM*%
%LPD*%
G01*
G04 APERTURE LIST*
%ADD10C,0.125000*%
%ADD11C,0.150000*%
%ADD12C,0.120000*%
%ADD13R,1.500000X0.900000*%
%ADD14R,0.900000X1.500000*%
G04 APERTURE END LIST*
D10*
X134080504Y-68018790D02*
X134080504Y-67518790D01*
X134413838Y-67518790D02*
X134509076Y-67518790D01*
X134556695Y-67542600D01*
X134604314Y-67590219D01*
X134628123Y-67685457D01*
X134628123Y-67852123D01*
X134604314Y-67947361D01*
X134556695Y-67994980D01*
X134509076Y-68018790D01*
X134413838Y-68018790D01*
X134366219Y-67994980D01*
X134318600Y-67947361D01*
X134294790Y-67852123D01*
X134294790Y-67685457D01*
X134318600Y-67590219D01*
X134366219Y-67542600D01*
X134413838Y-67518790D01*
X134818600Y-67566409D02*
X134842409Y-67542600D01*
X134890028Y-67518790D01*
X135009076Y-67518790D01*
X135056695Y-67542600D01*
X135080504Y-67566409D01*
X135104314Y-67614028D01*
X135104314Y-67661647D01*
X135080504Y-67733076D01*
X134794790Y-68018790D01*
X135104314Y-68018790D01*
X135270980Y-67518790D02*
X135604314Y-67518790D01*
X135390028Y-68018790D01*
X146080504Y-68018790D02*
X146080504Y-67518790D01*
X146413838Y-67518790D02*
X146509076Y-67518790D01*
X146556695Y-67542600D01*
X146604314Y-67590219D01*
X146628123Y-67685457D01*
X146628123Y-67852123D01*
X146604314Y-67947361D01*
X146556695Y-67994980D01*
X146509076Y-68018790D01*
X146413838Y-68018790D01*
X146366219Y-67994980D01*
X146318600Y-67947361D01*
X146294790Y-67852123D01*
X146294790Y-67685457D01*
X146318600Y-67590219D01*
X146366219Y-67542600D01*
X146413838Y-67518790D01*
X146794790Y-67518790D02*
X147104314Y-67518790D01*
X146937647Y-67709266D01*
X147009076Y-67709266D01*
X147056695Y-67733076D01*
X147080504Y-67756885D01*
X147104314Y-67804504D01*
X147104314Y-67923552D01*
X147080504Y-67971171D01*
X147056695Y-67994980D01*
X147009076Y-68018790D01*
X146866219Y-68018790D01*
X146818600Y-67994980D01*
X146794790Y-67971171D01*
X147532885Y-67518790D02*
X147437647Y-67518790D01*
X147390028Y-67542600D01*
X147366219Y-67566409D01*
X147318600Y-67637838D01*
X147294790Y-67733076D01*
X147294790Y-67923552D01*
X147318600Y-67971171D01*
X147342409Y-67994980D01*
X147390028Y-68018790D01*
X147485266Y-68018790D01*
X147532885Y-67994980D01*
X147556695Y-67971171D01*
X147580504Y-67923552D01*
X147580504Y-67804504D01*
X147556695Y-67756885D01*
X147532885Y-67733076D01*
X147485266Y-67709266D01*
X147390028Y-67709266D01*
X147342409Y-67733076D01*
X147318600Y-67756885D01*
X147294790Y-67804504D01*
X156080504Y-68018790D02*
X156080504Y-67518790D01*
X156413838Y-67518790D02*
X156509076Y-67518790D01*
X156556695Y-67542600D01*
X156604314Y-67590219D01*
X156628123Y-67685457D01*
X156628123Y-67852123D01*
X156604314Y-67947361D01*
X156556695Y-67994980D01*
X156509076Y-68018790D01*
X156413838Y-68018790D01*
X156366219Y-67994980D01*
X156318600Y-67947361D01*
X156294790Y-67852123D01*
X156294790Y-67685457D01*
X156318600Y-67590219D01*
X156366219Y-67542600D01*
X156413838Y-67518790D01*
X157104314Y-68018790D02*
X156818600Y-68018790D01*
X156961457Y-68018790D02*
X156961457Y-67518790D01*
X156913838Y-67590219D01*
X156866219Y-67637838D01*
X156818600Y-67661647D01*
X157342409Y-68018790D02*
X157437647Y-68018790D01*
X157485266Y-67994980D01*
X157509076Y-67971171D01*
X157556695Y-67899742D01*
X157580504Y-67804504D01*
X157580504Y-67614028D01*
X157556695Y-67566409D01*
X157532885Y-67542600D01*
X157485266Y-67518790D01*
X157390028Y-67518790D01*
X157342409Y-67542600D01*
X157318600Y-67566409D01*
X157294790Y-67614028D01*
X157294790Y-67733076D01*
X157318600Y-67780695D01*
X157342409Y-67804504D01*
X157390028Y-67828314D01*
X157485266Y-67828314D01*
X157532885Y-67804504D01*
X157556695Y-67780695D01*
X157580504Y-67733076D01*
X158080504Y-68018790D02*
X158080504Y-67518790D01*
X158413838Y-67518790D02*
X158509076Y-67518790D01*
X158556695Y-67542600D01*
X158604314Y-67590219D01*
X158628123Y-67685457D01*
X158628123Y-67852123D01*
X158604314Y-67947361D01*
X158556695Y-67994980D01*
X158509076Y-68018790D01*
X158413838Y-68018790D01*
X158366219Y-67994980D01*
X158318600Y-67947361D01*
X158294790Y-67852123D01*
X158294790Y-67685457D01*
X158318600Y-67590219D01*
X158366219Y-67542600D01*
X158413838Y-67518790D01*
X159104314Y-68018790D02*
X158818600Y-68018790D01*
X158961457Y-68018790D02*
X158961457Y-67518790D01*
X158913838Y-67590219D01*
X158866219Y-67637838D01*
X158818600Y-67661647D01*
X159390028Y-67733076D02*
X159342409Y-67709266D01*
X159318600Y-67685457D01*
X159294790Y-67637838D01*
X159294790Y-67614028D01*
X159318600Y-67566409D01*
X159342409Y-67542600D01*
X159390028Y-67518790D01*
X159485266Y-67518790D01*
X159532885Y-67542600D01*
X159556695Y-67566409D01*
X159580504Y-67614028D01*
X159580504Y-67637838D01*
X159556695Y-67685457D01*
X159532885Y-67709266D01*
X159485266Y-67733076D01*
X159390028Y-67733076D01*
X159342409Y-67756885D01*
X159318600Y-67780695D01*
X159294790Y-67828314D01*
X159294790Y-67923552D01*
X159318600Y-67971171D01*
X159342409Y-67994980D01*
X159390028Y-68018790D01*
X159485266Y-68018790D01*
X159532885Y-67994980D01*
X159556695Y-67971171D01*
X159580504Y-67923552D01*
X159580504Y-67828314D01*
X159556695Y-67780695D01*
X159532885Y-67756885D01*
X159485266Y-67733076D01*
X142080504Y-68018790D02*
X142080504Y-67518790D01*
X142413838Y-67518790D02*
X142509076Y-67518790D01*
X142556695Y-67542600D01*
X142604314Y-67590219D01*
X142628123Y-67685457D01*
X142628123Y-67852123D01*
X142604314Y-67947361D01*
X142556695Y-67994980D01*
X142509076Y-68018790D01*
X142413838Y-68018790D01*
X142366219Y-67994980D01*
X142318600Y-67947361D01*
X142294790Y-67852123D01*
X142294790Y-67685457D01*
X142318600Y-67590219D01*
X142366219Y-67542600D01*
X142413838Y-67518790D01*
X142794790Y-67518790D02*
X143104314Y-67518790D01*
X142937647Y-67709266D01*
X143009076Y-67709266D01*
X143056695Y-67733076D01*
X143080504Y-67756885D01*
X143104314Y-67804504D01*
X143104314Y-67923552D01*
X143080504Y-67971171D01*
X143056695Y-67994980D01*
X143009076Y-68018790D01*
X142866219Y-68018790D01*
X142818600Y-67994980D01*
X142794790Y-67971171D01*
X143294790Y-67566409D02*
X143318600Y-67542600D01*
X143366219Y-67518790D01*
X143485266Y-67518790D01*
X143532885Y-67542600D01*
X143556695Y-67566409D01*
X143580504Y-67614028D01*
X143580504Y-67661647D01*
X143556695Y-67733076D01*
X143270980Y-68018790D01*
X143580504Y-68018790D01*
X164437647Y-67542600D02*
X164390028Y-67518790D01*
X164318600Y-67518790D01*
X164247171Y-67542600D01*
X164199552Y-67590219D01*
X164175742Y-67637838D01*
X164151933Y-67733076D01*
X164151933Y-67804504D01*
X164175742Y-67899742D01*
X164199552Y-67947361D01*
X164247171Y-67994980D01*
X164318600Y-68018790D01*
X164366219Y-68018790D01*
X164437647Y-67994980D01*
X164461457Y-67971171D01*
X164461457Y-67804504D01*
X164366219Y-67804504D01*
X164675742Y-68018790D02*
X164675742Y-67518790D01*
X164961457Y-68018790D01*
X164961457Y-67518790D01*
X165199552Y-68018790D02*
X165199552Y-67518790D01*
X165318600Y-67518790D01*
X165390028Y-67542600D01*
X165437647Y-67590219D01*
X165461457Y-67637838D01*
X165485266Y-67733076D01*
X165485266Y-67804504D01*
X165461457Y-67899742D01*
X165437647Y-67947361D01*
X165390028Y-67994980D01*
X165318600Y-68018790D01*
X165199552Y-68018790D01*
X138080504Y-68018790D02*
X138080504Y-67518790D01*
X138413838Y-67518790D02*
X138509076Y-67518790D01*
X138556695Y-67542600D01*
X138604314Y-67590219D01*
X138628123Y-67685457D01*
X138628123Y-67852123D01*
X138604314Y-67947361D01*
X138556695Y-67994980D01*
X138509076Y-68018790D01*
X138413838Y-68018790D01*
X138366219Y-67994980D01*
X138318600Y-67947361D01*
X138294790Y-67852123D01*
X138294790Y-67685457D01*
X138318600Y-67590219D01*
X138366219Y-67542600D01*
X138413838Y-67518790D01*
X138818600Y-67566409D02*
X138842409Y-67542600D01*
X138890028Y-67518790D01*
X139009076Y-67518790D01*
X139056695Y-67542600D01*
X139080504Y-67566409D01*
X139104314Y-67614028D01*
X139104314Y-67661647D01*
X139080504Y-67733076D01*
X138794790Y-68018790D01*
X139104314Y-68018790D01*
X139556695Y-67518790D02*
X139318600Y-67518790D01*
X139294790Y-67756885D01*
X139318600Y-67733076D01*
X139366219Y-67709266D01*
X139485266Y-67709266D01*
X139532885Y-67733076D01*
X139556695Y-67756885D01*
X139580504Y-67804504D01*
X139580504Y-67923552D01*
X139556695Y-67971171D01*
X139532885Y-67994980D01*
X139485266Y-68018790D01*
X139366219Y-68018790D01*
X139318600Y-67994980D01*
X139294790Y-67971171D01*
X150080504Y-68018790D02*
X150080504Y-67518790D01*
X150413838Y-67518790D02*
X150509076Y-67518790D01*
X150556695Y-67542600D01*
X150604314Y-67590219D01*
X150628123Y-67685457D01*
X150628123Y-67852123D01*
X150604314Y-67947361D01*
X150556695Y-67994980D01*
X150509076Y-68018790D01*
X150413838Y-68018790D01*
X150366219Y-67994980D01*
X150318600Y-67947361D01*
X150294790Y-67852123D01*
X150294790Y-67685457D01*
X150318600Y-67590219D01*
X150366219Y-67542600D01*
X150413838Y-67518790D01*
X150818600Y-67566409D02*
X150842409Y-67542600D01*
X150890028Y-67518790D01*
X151009076Y-67518790D01*
X151056695Y-67542600D01*
X151080504Y-67566409D01*
X151104314Y-67614028D01*
X151104314Y-67661647D01*
X151080504Y-67733076D01*
X150794790Y-68018790D01*
X151104314Y-68018790D01*
X151294790Y-67566409D02*
X151318600Y-67542600D01*
X151366219Y-67518790D01*
X151485266Y-67518790D01*
X151532885Y-67542600D01*
X151556695Y-67566409D01*
X151580504Y-67614028D01*
X151580504Y-67661647D01*
X151556695Y-67733076D01*
X151270980Y-68018790D01*
X151580504Y-68018790D01*
X136080504Y-68018790D02*
X136080504Y-67518790D01*
X136413838Y-67518790D02*
X136509076Y-67518790D01*
X136556695Y-67542600D01*
X136604314Y-67590219D01*
X136628123Y-67685457D01*
X136628123Y-67852123D01*
X136604314Y-67947361D01*
X136556695Y-67994980D01*
X136509076Y-68018790D01*
X136413838Y-68018790D01*
X136366219Y-67994980D01*
X136318600Y-67947361D01*
X136294790Y-67852123D01*
X136294790Y-67685457D01*
X136318600Y-67590219D01*
X136366219Y-67542600D01*
X136413838Y-67518790D01*
X136818600Y-67566409D02*
X136842409Y-67542600D01*
X136890028Y-67518790D01*
X137009076Y-67518790D01*
X137056695Y-67542600D01*
X137080504Y-67566409D01*
X137104314Y-67614028D01*
X137104314Y-67661647D01*
X137080504Y-67733076D01*
X136794790Y-68018790D01*
X137104314Y-68018790D01*
X137532885Y-67518790D02*
X137437647Y-67518790D01*
X137390028Y-67542600D01*
X137366219Y-67566409D01*
X137318600Y-67637838D01*
X137294790Y-67733076D01*
X137294790Y-67923552D01*
X137318600Y-67971171D01*
X137342409Y-67994980D01*
X137390028Y-68018790D01*
X137485266Y-68018790D01*
X137532885Y-67994980D01*
X137556695Y-67971171D01*
X137580504Y-67923552D01*
X137580504Y-67804504D01*
X137556695Y-67756885D01*
X137532885Y-67733076D01*
X137485266Y-67709266D01*
X137390028Y-67709266D01*
X137342409Y-67733076D01*
X137318600Y-67756885D01*
X137294790Y-67804504D01*
X132723361Y-67518790D02*
X132485266Y-67518790D01*
X132461457Y-67756885D01*
X132485266Y-67733076D01*
X132532885Y-67709266D01*
X132651933Y-67709266D01*
X132699552Y-67733076D01*
X132723361Y-67756885D01*
X132747171Y-67804504D01*
X132747171Y-67923552D01*
X132723361Y-67971171D01*
X132699552Y-67994980D01*
X132651933Y-68018790D01*
X132532885Y-68018790D01*
X132485266Y-67994980D01*
X132461457Y-67971171D01*
X132890028Y-67518790D02*
X133056695Y-68018790D01*
X133223361Y-67518790D01*
X162080504Y-68018790D02*
X162080504Y-67518790D01*
X162413838Y-67518790D02*
X162509076Y-67518790D01*
X162556695Y-67542600D01*
X162604314Y-67590219D01*
X162628123Y-67685457D01*
X162628123Y-67852123D01*
X162604314Y-67947361D01*
X162556695Y-67994980D01*
X162509076Y-68018790D01*
X162413838Y-68018790D01*
X162366219Y-67994980D01*
X162318600Y-67947361D01*
X162294790Y-67852123D01*
X162294790Y-67685457D01*
X162318600Y-67590219D01*
X162366219Y-67542600D01*
X162413838Y-67518790D01*
X163104314Y-68018790D02*
X162818600Y-68018790D01*
X162961457Y-68018790D02*
X162961457Y-67518790D01*
X162913838Y-67590219D01*
X162866219Y-67637838D01*
X162818600Y-67661647D01*
X163532885Y-67518790D02*
X163437647Y-67518790D01*
X163390028Y-67542600D01*
X163366219Y-67566409D01*
X163318600Y-67637838D01*
X163294790Y-67733076D01*
X163294790Y-67923552D01*
X163318600Y-67971171D01*
X163342409Y-67994980D01*
X163390028Y-68018790D01*
X163485266Y-68018790D01*
X163532885Y-67994980D01*
X163556695Y-67971171D01*
X163580504Y-67923552D01*
X163580504Y-67804504D01*
X163556695Y-67756885D01*
X163532885Y-67733076D01*
X163485266Y-67709266D01*
X163390028Y-67709266D01*
X163342409Y-67733076D01*
X163318600Y-67756885D01*
X163294790Y-67804504D01*
X152318600Y-68018790D02*
X152318600Y-67518790D01*
X152651933Y-67518790D02*
X152747171Y-67518790D01*
X152794790Y-67542600D01*
X152842409Y-67590219D01*
X152866219Y-67685457D01*
X152866219Y-67852123D01*
X152842409Y-67947361D01*
X152794790Y-67994980D01*
X152747171Y-68018790D01*
X152651933Y-68018790D01*
X152604314Y-67994980D01*
X152556695Y-67947361D01*
X152532885Y-67852123D01*
X152532885Y-67685457D01*
X152556695Y-67590219D01*
X152604314Y-67542600D01*
X152651933Y-67518790D01*
X153032885Y-67518790D02*
X153342409Y-67518790D01*
X153175742Y-67709266D01*
X153247171Y-67709266D01*
X153294790Y-67733076D01*
X153318600Y-67756885D01*
X153342409Y-67804504D01*
X153342409Y-67923552D01*
X153318600Y-67971171D01*
X153294790Y-67994980D01*
X153247171Y-68018790D01*
X153104314Y-68018790D01*
X153056695Y-67994980D01*
X153032885Y-67971171D01*
X160318600Y-68018790D02*
X160318600Y-67518790D01*
X160651933Y-67518790D02*
X160747171Y-67518790D01*
X160794790Y-67542600D01*
X160842409Y-67590219D01*
X160866219Y-67685457D01*
X160866219Y-67852123D01*
X160842409Y-67947361D01*
X160794790Y-67994980D01*
X160747171Y-68018790D01*
X160651933Y-68018790D01*
X160604314Y-67994980D01*
X160556695Y-67947361D01*
X160532885Y-67852123D01*
X160532885Y-67685457D01*
X160556695Y-67590219D01*
X160604314Y-67542600D01*
X160651933Y-67518790D01*
X161318600Y-67518790D02*
X161080504Y-67518790D01*
X161056695Y-67756885D01*
X161080504Y-67733076D01*
X161128123Y-67709266D01*
X161247171Y-67709266D01*
X161294790Y-67733076D01*
X161318600Y-67756885D01*
X161342409Y-67804504D01*
X161342409Y-67923552D01*
X161318600Y-67971171D01*
X161294790Y-67994980D01*
X161247171Y-68018790D01*
X161128123Y-68018790D01*
X161080504Y-67994980D01*
X161056695Y-67971171D01*
X148080504Y-68018790D02*
X148080504Y-67518790D01*
X148413838Y-67518790D02*
X148509076Y-67518790D01*
X148556695Y-67542600D01*
X148604314Y-67590219D01*
X148628123Y-67685457D01*
X148628123Y-67852123D01*
X148604314Y-67947361D01*
X148556695Y-67994980D01*
X148509076Y-68018790D01*
X148413838Y-68018790D01*
X148366219Y-67994980D01*
X148318600Y-67947361D01*
X148294790Y-67852123D01*
X148294790Y-67685457D01*
X148318600Y-67590219D01*
X148366219Y-67542600D01*
X148413838Y-67518790D01*
X148818600Y-67566409D02*
X148842409Y-67542600D01*
X148890028Y-67518790D01*
X149009076Y-67518790D01*
X149056695Y-67542600D01*
X149080504Y-67566409D01*
X149104314Y-67614028D01*
X149104314Y-67661647D01*
X149080504Y-67733076D01*
X148794790Y-68018790D01*
X149104314Y-68018790D01*
X149270980Y-67518790D02*
X149580504Y-67518790D01*
X149413838Y-67709266D01*
X149485266Y-67709266D01*
X149532885Y-67733076D01*
X149556695Y-67756885D01*
X149580504Y-67804504D01*
X149580504Y-67923552D01*
X149556695Y-67971171D01*
X149532885Y-67994980D01*
X149485266Y-68018790D01*
X149342409Y-68018790D01*
X149294790Y-67994980D01*
X149270980Y-67971171D01*
X144080504Y-68018790D02*
X144080504Y-67518790D01*
X144413838Y-67518790D02*
X144509076Y-67518790D01*
X144556695Y-67542600D01*
X144604314Y-67590219D01*
X144628123Y-67685457D01*
X144628123Y-67852123D01*
X144604314Y-67947361D01*
X144556695Y-67994980D01*
X144509076Y-68018790D01*
X144413838Y-68018790D01*
X144366219Y-67994980D01*
X144318600Y-67947361D01*
X144294790Y-67852123D01*
X144294790Y-67685457D01*
X144318600Y-67590219D01*
X144366219Y-67542600D01*
X144413838Y-67518790D01*
X144794790Y-67518790D02*
X145104314Y-67518790D01*
X144937647Y-67709266D01*
X145009076Y-67709266D01*
X145056695Y-67733076D01*
X145080504Y-67756885D01*
X145104314Y-67804504D01*
X145104314Y-67923552D01*
X145080504Y-67971171D01*
X145056695Y-67994980D01*
X145009076Y-68018790D01*
X144866219Y-68018790D01*
X144818600Y-67994980D01*
X144794790Y-67971171D01*
X145556695Y-67518790D02*
X145318600Y-67518790D01*
X145294790Y-67756885D01*
X145318600Y-67733076D01*
X145366219Y-67709266D01*
X145485266Y-67709266D01*
X145532885Y-67733076D01*
X145556695Y-67756885D01*
X145580504Y-67804504D01*
X145580504Y-67923552D01*
X145556695Y-67971171D01*
X145532885Y-67994980D01*
X145485266Y-68018790D01*
X145366219Y-68018790D01*
X145318600Y-67994980D01*
X145294790Y-67971171D01*
D11*
X133699180Y-51677485D02*
X134508704Y-51677485D01*
X134603942Y-51629866D01*
X134651561Y-51582247D01*
X134699180Y-51487009D01*
X134699180Y-51296533D01*
X134651561Y-51201295D01*
X134603942Y-51153676D01*
X134508704Y-51106057D01*
X133699180Y-51106057D01*
X134032514Y-50629866D02*
X134699180Y-50629866D01*
X134127752Y-50629866D02*
X134080133Y-50582247D01*
X134032514Y-50487009D01*
X134032514Y-50344152D01*
X134080133Y-50248914D01*
X134175371Y-50201295D01*
X134699180Y-50201295D01*
X134699180Y-49725104D02*
X134032514Y-49725104D01*
X133699180Y-49725104D02*
X133746800Y-49772723D01*
X133794419Y-49725104D01*
X133746800Y-49677485D01*
X133699180Y-49725104D01*
X133794419Y-49725104D01*
X134032514Y-49344152D02*
X134699180Y-49106057D01*
X134032514Y-48867961D01*
X134651561Y-48106057D02*
X134699180Y-48201295D01*
X134699180Y-48391771D01*
X134651561Y-48487009D01*
X134556323Y-48534628D01*
X134175371Y-48534628D01*
X134080133Y-48487009D01*
X134032514Y-48391771D01*
X134032514Y-48201295D01*
X134080133Y-48106057D01*
X134175371Y-48058438D01*
X134270609Y-48058438D01*
X134365847Y-48534628D01*
X134699180Y-47629866D02*
X134032514Y-47629866D01*
X134222990Y-47629866D02*
X134127752Y-47582247D01*
X134080133Y-47534628D01*
X134032514Y-47439390D01*
X134032514Y-47344152D01*
X134651561Y-47058438D02*
X134699180Y-46963200D01*
X134699180Y-46772723D01*
X134651561Y-46677485D01*
X134556323Y-46629866D01*
X134508704Y-46629866D01*
X134413466Y-46677485D01*
X134365847Y-46772723D01*
X134365847Y-46915580D01*
X134318228Y-47010819D01*
X134222990Y-47058438D01*
X134175371Y-47058438D01*
X134080133Y-47010819D01*
X134032514Y-46915580D01*
X134032514Y-46772723D01*
X134080133Y-46677485D01*
X134699180Y-45772723D02*
X134175371Y-45772723D01*
X134080133Y-45820342D01*
X134032514Y-45915580D01*
X134032514Y-46106057D01*
X134080133Y-46201295D01*
X134651561Y-45772723D02*
X134699180Y-45867961D01*
X134699180Y-46106057D01*
X134651561Y-46201295D01*
X134556323Y-46248914D01*
X134461085Y-46248914D01*
X134365847Y-46201295D01*
X134318228Y-46106057D01*
X134318228Y-45867961D01*
X134270609Y-45772723D01*
X134699180Y-45153676D02*
X134651561Y-45248914D01*
X134556323Y-45296533D01*
X133699180Y-45296533D01*
X136309180Y-51677485D02*
X135309180Y-51677485D01*
X135785371Y-51677485D02*
X135785371Y-51106057D01*
X136309180Y-51106057D02*
X135309180Y-51106057D01*
X135309180Y-50725104D02*
X136309180Y-50487009D01*
X135594895Y-50296533D01*
X136309180Y-50106057D01*
X135309180Y-49867961D01*
X136309180Y-48963200D02*
X136309180Y-49534628D01*
X136309180Y-49248914D02*
X135309180Y-49248914D01*
X135452038Y-49344152D01*
X135547276Y-49439390D01*
X135594895Y-49534628D01*
X136309180Y-47772723D02*
X135309180Y-47772723D01*
X135309180Y-47391771D01*
X135356800Y-47296533D01*
X135404419Y-47248914D01*
X135499657Y-47201295D01*
X135642514Y-47201295D01*
X135737752Y-47248914D01*
X135785371Y-47296533D01*
X135832990Y-47391771D01*
X135832990Y-47772723D01*
X136213942Y-46201295D02*
X136261561Y-46248914D01*
X136309180Y-46391771D01*
X136309180Y-46487009D01*
X136261561Y-46629866D01*
X136166323Y-46725104D01*
X136071085Y-46772723D01*
X135880609Y-46820342D01*
X135737752Y-46820342D01*
X135547276Y-46772723D01*
X135452038Y-46725104D01*
X135356800Y-46629866D01*
X135309180Y-46487009D01*
X135309180Y-46391771D01*
X135356800Y-46248914D01*
X135404419Y-46201295D01*
X135785371Y-45439390D02*
X135832990Y-45296533D01*
X135880609Y-45248914D01*
X135975847Y-45201295D01*
X136118704Y-45201295D01*
X136213942Y-45248914D01*
X136261561Y-45296533D01*
X136309180Y-45391771D01*
X136309180Y-45772723D01*
X135309180Y-45772723D01*
X135309180Y-45439390D01*
X135356800Y-45344152D01*
X135404419Y-45296533D01*
X135499657Y-45248914D01*
X135594895Y-45248914D01*
X135690133Y-45296533D01*
X135737752Y-45344152D01*
X135785371Y-45439390D01*
X135785371Y-45772723D01*
D10*
X140080504Y-68018790D02*
X140080504Y-67518790D01*
X140413838Y-67518790D02*
X140509076Y-67518790D01*
X140556695Y-67542600D01*
X140604314Y-67590219D01*
X140628123Y-67685457D01*
X140628123Y-67852123D01*
X140604314Y-67947361D01*
X140556695Y-67994980D01*
X140509076Y-68018790D01*
X140413838Y-68018790D01*
X140366219Y-67994980D01*
X140318600Y-67947361D01*
X140294790Y-67852123D01*
X140294790Y-67685457D01*
X140318600Y-67590219D01*
X140366219Y-67542600D01*
X140413838Y-67518790D01*
X140794790Y-67518790D02*
X141104314Y-67518790D01*
X140937647Y-67709266D01*
X141009076Y-67709266D01*
X141056695Y-67733076D01*
X141080504Y-67756885D01*
X141104314Y-67804504D01*
X141104314Y-67923552D01*
X141080504Y-67971171D01*
X141056695Y-67994980D01*
X141009076Y-68018790D01*
X140866219Y-68018790D01*
X140818600Y-67994980D01*
X140794790Y-67971171D01*
X141270980Y-67518790D02*
X141580504Y-67518790D01*
X141413838Y-67709266D01*
X141485266Y-67709266D01*
X141532885Y-67733076D01*
X141556695Y-67756885D01*
X141580504Y-67804504D01*
X141580504Y-67923552D01*
X141556695Y-67971171D01*
X141532885Y-67994980D01*
X141485266Y-68018790D01*
X141342409Y-68018790D01*
X141294790Y-67994980D01*
X141270980Y-67971171D01*
X154080504Y-68018790D02*
X154080504Y-67518790D01*
X154413838Y-67518790D02*
X154509076Y-67518790D01*
X154556695Y-67542600D01*
X154604314Y-67590219D01*
X154628123Y-67685457D01*
X154628123Y-67852123D01*
X154604314Y-67947361D01*
X154556695Y-67994980D01*
X154509076Y-68018790D01*
X154413838Y-68018790D01*
X154366219Y-67994980D01*
X154318600Y-67947361D01*
X154294790Y-67852123D01*
X154294790Y-67685457D01*
X154318600Y-67590219D01*
X154366219Y-67542600D01*
X154413838Y-67518790D01*
X154818600Y-67566409D02*
X154842409Y-67542600D01*
X154890028Y-67518790D01*
X155009076Y-67518790D01*
X155056695Y-67542600D01*
X155080504Y-67566409D01*
X155104314Y-67614028D01*
X155104314Y-67661647D01*
X155080504Y-67733076D01*
X154794790Y-68018790D01*
X155104314Y-68018790D01*
X155580504Y-68018790D02*
X155294790Y-68018790D01*
X155437647Y-68018790D02*
X155437647Y-67518790D01*
X155390028Y-67590219D01*
X155342409Y-67637838D01*
X155294790Y-67661647D01*
D12*
%TO.C,U3*%
X139458600Y-62865000D02*
X139458600Y-60665000D01*
X146228600Y-62865000D02*
X146228600Y-65065000D01*
X146228600Y-62865000D02*
X146228600Y-59265000D01*
X139458600Y-62865000D02*
X139458600Y-65065000D01*
%TO.C,R1*%
X147905736Y-59230000D02*
X148359864Y-59230000D01*
X147905736Y-60700000D02*
X148359864Y-60700000D01*
%TO.C,C2*%
X134291400Y-64753748D02*
X134291400Y-65276252D01*
X135761400Y-64753748D02*
X135761400Y-65276252D01*
%TO.C,J1*%
X131758600Y-69367400D02*
X131758600Y-68307400D01*
X131758600Y-68307400D02*
X132818600Y-68307400D01*
X165878600Y-70427400D02*
X165878600Y-68307400D01*
X133818600Y-68307400D02*
X165878600Y-68307400D01*
X133818600Y-70427400D02*
X133818600Y-68307400D01*
X133818600Y-70427400D02*
X165878600Y-70427400D01*
%TO.C,U2*%
X157938600Y-57385400D02*
X157938600Y-58165400D01*
X157938600Y-58165400D02*
X156938600Y-58165400D01*
X139698600Y-38840400D02*
X139318600Y-38840400D01*
X139698600Y-32425400D02*
X139698600Y-38840400D01*
X139698600Y-57385400D02*
X139698600Y-58165400D01*
X157938600Y-32425400D02*
X157938600Y-38840400D01*
X139698600Y-58165400D02*
X140698600Y-58165400D01*
X139698600Y-32425400D02*
X157938600Y-32425400D01*
%TO.C,U4*%
X158178600Y-62865000D02*
X158178600Y-65065000D01*
X151408600Y-62865000D02*
X151408600Y-60665000D01*
X158178600Y-62865000D02*
X158178600Y-59265000D01*
X151408600Y-62865000D02*
X151408600Y-65065000D01*
%TO.C,G\u002A\u002A\u002A*%
G36*
X135097009Y-41270349D02*
G01*
X135116563Y-41277865D01*
X135132155Y-41288926D01*
X135139085Y-41297529D01*
X135145486Y-41313905D01*
X135146404Y-41331249D01*
X135141867Y-41346914D01*
X135138515Y-41352138D01*
X135124521Y-41364207D01*
X135105607Y-41372433D01*
X135083673Y-41376418D01*
X135060617Y-41375761D01*
X135043847Y-41372020D01*
X135033312Y-41366763D01*
X135021494Y-41358177D01*
X135016151Y-41353309D01*
X135007397Y-41343656D01*
X135003086Y-41335361D01*
X135001712Y-41324986D01*
X135001645Y-41320218D01*
X135004457Y-41301730D01*
X135013286Y-41287263D01*
X135028724Y-41275958D01*
X135033816Y-41273465D01*
X135053713Y-41267709D01*
X135075418Y-41266817D01*
X135097009Y-41270349D01*
G37*
G36*
X134128058Y-40826530D02*
G01*
X134138345Y-40793461D01*
X134155217Y-40762730D01*
X134163660Y-40751516D01*
X134175873Y-40738761D01*
X134193789Y-40723008D01*
X134216423Y-40704952D01*
X134242791Y-40685289D01*
X134271908Y-40664715D01*
X134302789Y-40643926D01*
X134334450Y-40623617D01*
X134365906Y-40604485D01*
X134396156Y-40587233D01*
X134484929Y-40542873D01*
X134577697Y-40504933D01*
X134674185Y-40473499D01*
X134774118Y-40448656D01*
X134877220Y-40430489D01*
X134919513Y-40425085D01*
X134944396Y-40422963D01*
X134975209Y-40421468D01*
X135010267Y-40420589D01*
X135047886Y-40420312D01*
X135086381Y-40420628D01*
X135124068Y-40421523D01*
X135159263Y-40422987D01*
X135190281Y-40425007D01*
X135211752Y-40427111D01*
X135315527Y-40443267D01*
X135416527Y-40466492D01*
X135514635Y-40496743D01*
X135609734Y-40533977D01*
X135701706Y-40578152D01*
X135790432Y-40629226D01*
X135810986Y-40642347D01*
X135853516Y-40670903D01*
X135889261Y-40696847D01*
X135918523Y-40720432D01*
X135941600Y-40741911D01*
X135958791Y-40761538D01*
X135968204Y-40775546D01*
X135981514Y-40805711D01*
X135989108Y-40838821D01*
X135990686Y-40872646D01*
X135985949Y-40904955D01*
X135985729Y-40905792D01*
X135982051Y-40918334D01*
X135977715Y-40929860D01*
X135972134Y-40941127D01*
X135964723Y-40952894D01*
X135954897Y-40965920D01*
X135942071Y-40980962D01*
X135925661Y-40998781D01*
X135905081Y-41020133D01*
X135879746Y-41045778D01*
X135870952Y-41054601D01*
X135843409Y-41082027D01*
X135820341Y-41104474D01*
X135800959Y-41122499D01*
X135784473Y-41136661D01*
X135770094Y-41147516D01*
X135757032Y-41155623D01*
X135744499Y-41161539D01*
X135731703Y-41165822D01*
X135717857Y-41169029D01*
X135705997Y-41171115D01*
X135675416Y-41173524D01*
X135646196Y-41170326D01*
X135617174Y-41161170D01*
X135587185Y-41145703D01*
X135559552Y-41126953D01*
X135492446Y-41081685D01*
X135422398Y-41043463D01*
X135349355Y-41012263D01*
X135285447Y-40991404D01*
X135215647Y-40975236D01*
X135142908Y-40965107D01*
X135068754Y-40961046D01*
X134994713Y-40963082D01*
X134922310Y-40971244D01*
X134861797Y-40983362D01*
X134822224Y-40993731D01*
X134785756Y-41004858D01*
X134751248Y-41017298D01*
X134717552Y-41031601D01*
X134683524Y-41048322D01*
X134648016Y-41068013D01*
X134609883Y-41091227D01*
X134567979Y-41118516D01*
X134534495Y-41141227D01*
X134503618Y-41158318D01*
X134470563Y-41169111D01*
X134436777Y-41173309D01*
X134403708Y-41170611D01*
X134398066Y-41169399D01*
X134376739Y-41163419D01*
X134358751Y-41155827D01*
X134340951Y-41145099D01*
X134327394Y-41135272D01*
X134317030Y-41126637D01*
X134302726Y-41113631D01*
X134285433Y-41097222D01*
X134266103Y-41078372D01*
X134245689Y-41058048D01*
X134225141Y-41037213D01*
X134205411Y-41016833D01*
X134187452Y-40997873D01*
X134172215Y-40981296D01*
X134160652Y-40968069D01*
X134153840Y-40959342D01*
X134137247Y-40928344D01*
X134127455Y-40895114D01*
X134125193Y-40869619D01*
X134222709Y-40869619D01*
X134227608Y-40890345D01*
X134229716Y-40894866D01*
X134234791Y-40902007D01*
X134244496Y-40913360D01*
X134257958Y-40928059D01*
X134274304Y-40945242D01*
X134292661Y-40964044D01*
X134312158Y-40983600D01*
X134331921Y-41003046D01*
X134351078Y-41021518D01*
X134368757Y-41038153D01*
X134384085Y-41052084D01*
X134396189Y-41062449D01*
X134404197Y-41068383D01*
X134405706Y-41069186D01*
X134423027Y-41073834D01*
X134442292Y-41074799D01*
X134459534Y-41071934D01*
X134461446Y-41071262D01*
X134468849Y-41067379D01*
X134480519Y-41060060D01*
X134494630Y-41050486D01*
X134504671Y-41043303D01*
X134574998Y-40996512D01*
X134648409Y-40956589D01*
X134724490Y-40923609D01*
X134802830Y-40897647D01*
X134883017Y-40878778D01*
X134964637Y-40867076D01*
X135047279Y-40862617D01*
X135130529Y-40865474D01*
X135213977Y-40875722D01*
X135297209Y-40893437D01*
X135311075Y-40897133D01*
X135385039Y-40921170D01*
X135457813Y-40952197D01*
X135528000Y-40989570D01*
X135574641Y-41019024D01*
X135599820Y-41036005D01*
X135619580Y-41049169D01*
X135634817Y-41059002D01*
X135646427Y-41065989D01*
X135655305Y-41070614D01*
X135662346Y-41073364D01*
X135668446Y-41074722D01*
X135674500Y-41075176D01*
X135678345Y-41075215D01*
X135691867Y-41074348D01*
X135704039Y-41072177D01*
X135707165Y-41071212D01*
X135712487Y-41067560D01*
X135722285Y-41059242D01*
X135735721Y-41047080D01*
X135751957Y-41031899D01*
X135770157Y-41014522D01*
X135789481Y-40995772D01*
X135809093Y-40976473D01*
X135828155Y-40957449D01*
X135845829Y-40939523D01*
X135861278Y-40923519D01*
X135873664Y-40910260D01*
X135882149Y-40900569D01*
X135885714Y-40895669D01*
X135892707Y-40874173D01*
X135892699Y-40851631D01*
X135885853Y-40829643D01*
X135877492Y-40815976D01*
X135869506Y-40807561D01*
X135856158Y-40795910D01*
X135838558Y-40781842D01*
X135817817Y-40766181D01*
X135795047Y-40749748D01*
X135771357Y-40733365D01*
X135747858Y-40717854D01*
X135728663Y-40705847D01*
X135641100Y-40657097D01*
X135551163Y-40615581D01*
X135459035Y-40581348D01*
X135364896Y-40554445D01*
X135268926Y-40534921D01*
X135171307Y-40522823D01*
X135072219Y-40518199D01*
X135020746Y-40518746D01*
X134922334Y-40525056D01*
X134827246Y-40538083D01*
X134734907Y-40557977D01*
X134644742Y-40584883D01*
X134556178Y-40618949D01*
X134468738Y-40660272D01*
X134433874Y-40678994D01*
X134399329Y-40698870D01*
X134365892Y-40719346D01*
X134334354Y-40739869D01*
X134305503Y-40759888D01*
X134280130Y-40778849D01*
X134259022Y-40796200D01*
X134242971Y-40811388D01*
X134232765Y-40823860D01*
X134231186Y-40826553D01*
X134223920Y-40847517D01*
X134222709Y-40869619D01*
X134125193Y-40869619D01*
X134124410Y-40860795D01*
X134128058Y-40826530D01*
G37*
G36*
X133539106Y-41457339D02*
G01*
X133576451Y-41457419D01*
X133610734Y-41457557D01*
X133641273Y-41457747D01*
X133667387Y-41457983D01*
X133688394Y-41458260D01*
X133703611Y-41458571D01*
X133712357Y-41458912D01*
X133714264Y-41459169D01*
X133712623Y-41462972D01*
X133708005Y-41472674D01*
X133700862Y-41487347D01*
X133691649Y-41506063D01*
X133680819Y-41527895D01*
X133670317Y-41548942D01*
X133626369Y-41636773D01*
X133420098Y-41636773D01*
X133381200Y-41636723D01*
X133344695Y-41636579D01*
X133311281Y-41636351D01*
X133281652Y-41636048D01*
X133256505Y-41635680D01*
X133236536Y-41635255D01*
X133222440Y-41634783D01*
X133214915Y-41634274D01*
X133213828Y-41633989D01*
X133215210Y-41629819D01*
X133219096Y-41619575D01*
X133225093Y-41604253D01*
X133232809Y-41584848D01*
X133241851Y-41562356D01*
X133249164Y-41544312D01*
X133284500Y-41457420D01*
X133499382Y-41457324D01*
X133539106Y-41457339D01*
G37*
G36*
X132994394Y-41122966D02*
G01*
X134068810Y-41121030D01*
X134100689Y-41177627D01*
X134113997Y-41201831D01*
X134128400Y-41228983D01*
X134142391Y-41256186D01*
X134154463Y-41280541D01*
X134157398Y-41286676D01*
X134182229Y-41339129D01*
X134268182Y-41337657D01*
X134354135Y-41336184D01*
X134420987Y-41305598D01*
X134489265Y-41275464D01*
X134560185Y-41246239D01*
X134632619Y-41218301D01*
X134705435Y-41192027D01*
X134777503Y-41167798D01*
X134847694Y-41145989D01*
X134914878Y-41126981D01*
X134977924Y-41111152D01*
X135035703Y-41098880D01*
X135041757Y-41097750D01*
X135085473Y-41091528D01*
X135127963Y-41088947D01*
X135167618Y-41090009D01*
X135202827Y-41094715D01*
X135215572Y-41097689D01*
X135274568Y-41117015D01*
X135334356Y-41143319D01*
X135394119Y-41176111D01*
X135453038Y-41214900D01*
X135510295Y-41259195D01*
X135561450Y-41305013D01*
X135592668Y-41334983D01*
X136113722Y-41334983D01*
X136122492Y-41314928D01*
X136126367Y-41305654D01*
X136132471Y-41290536D01*
X136140296Y-41270862D01*
X136149329Y-41247920D01*
X136159061Y-41222997D01*
X136164898Y-41207951D01*
X136198534Y-41121030D01*
X137275664Y-41122966D01*
X137330253Y-41226110D01*
X137384843Y-41329253D01*
X137456171Y-41330294D01*
X137482409Y-41330798D01*
X137501749Y-41331479D01*
X137514930Y-41332396D01*
X137522694Y-41333611D01*
X137525781Y-41335186D01*
X137525843Y-41336024D01*
X137524354Y-41340075D01*
X137520360Y-41350904D01*
X137514003Y-41368126D01*
X137505426Y-41391353D01*
X137494772Y-41420197D01*
X137482185Y-41454272D01*
X137467807Y-41493191D01*
X137451781Y-41536565D01*
X137434251Y-41584008D01*
X137415360Y-41635134D01*
X137395250Y-41689553D01*
X137374064Y-41746881D01*
X137351947Y-41806728D01*
X137329039Y-41868709D01*
X137316315Y-41903137D01*
X137108443Y-42465561D01*
X135994363Y-42465650D01*
X134880282Y-42465740D01*
X134877562Y-42487705D01*
X134871892Y-42521732D01*
X134863516Y-42556069D01*
X134853000Y-42589150D01*
X134840906Y-42619410D01*
X134827798Y-42645281D01*
X134814241Y-42665198D01*
X134813214Y-42666418D01*
X134792186Y-42685225D01*
X134765770Y-42699381D01*
X134734783Y-42708691D01*
X134700040Y-42712962D01*
X134662358Y-42712001D01*
X134636190Y-42708391D01*
X134582977Y-42694912D01*
X134532204Y-42674416D01*
X134484382Y-42647281D01*
X134440021Y-42613883D01*
X134399631Y-42574597D01*
X134363720Y-42529800D01*
X134337120Y-42487705D01*
X134324754Y-42465740D01*
X133467501Y-42465740D01*
X133387141Y-42465734D01*
X133308820Y-42465716D01*
X133232879Y-42465688D01*
X133159661Y-42465648D01*
X133089506Y-42465599D01*
X133022756Y-42465541D01*
X132959752Y-42465474D01*
X132900836Y-42465398D01*
X132846349Y-42465315D01*
X132796632Y-42465224D01*
X132752028Y-42465126D01*
X132712877Y-42465023D01*
X132679521Y-42464914D01*
X132652301Y-42464799D01*
X132631558Y-42464681D01*
X132617635Y-42464558D01*
X132610872Y-42464431D01*
X132610248Y-42464379D01*
X132611626Y-42460601D01*
X132615478Y-42450797D01*
X132621388Y-42436013D01*
X132628936Y-42417294D01*
X132637703Y-42395686D01*
X132641231Y-42387022D01*
X132650477Y-42364337D01*
X132658799Y-42343911D01*
X132665745Y-42326850D01*
X132670865Y-42314264D01*
X132673707Y-42307258D01*
X132674080Y-42306332D01*
X132672961Y-42304614D01*
X132667585Y-42303268D01*
X132657219Y-42302236D01*
X132641128Y-42301459D01*
X132618577Y-42300880D01*
X132601451Y-42300601D01*
X132526957Y-42299564D01*
X132566393Y-42200298D01*
X132672843Y-42200298D01*
X132673649Y-42201202D01*
X132675736Y-42202006D01*
X132679505Y-42202714D01*
X132685357Y-42203332D01*
X132693696Y-42203867D01*
X132704923Y-42204325D01*
X132719439Y-42204712D01*
X132737647Y-42205033D01*
X132759949Y-42205295D01*
X132786746Y-42205503D01*
X132818441Y-42205664D01*
X132855435Y-42205784D01*
X132898131Y-42205868D01*
X132946929Y-42205923D01*
X133002233Y-42205954D01*
X133064444Y-42205969D01*
X133121203Y-42205971D01*
X133571853Y-42205971D01*
X133776275Y-42058879D01*
X133826929Y-41944857D01*
X133877582Y-41830834D01*
X133856261Y-41794906D01*
X134131648Y-41794906D01*
X134133391Y-41814484D01*
X134136736Y-41835174D01*
X134141884Y-41857458D01*
X134149038Y-41881816D01*
X134158397Y-41908732D01*
X134170165Y-41938686D01*
X134184542Y-41972160D01*
X134201730Y-42009637D01*
X134221930Y-42051596D01*
X134245345Y-42098522D01*
X134272175Y-42150894D01*
X134302622Y-42209195D01*
X134314019Y-42230802D01*
X134329563Y-42260285D01*
X134345891Y-42291390D01*
X134362101Y-42322384D01*
X134377286Y-42351538D01*
X134390544Y-42377118D01*
X134399467Y-42394455D01*
X134410408Y-42415598D01*
X134420741Y-42435164D01*
X134429746Y-42451822D01*
X134436705Y-42464240D01*
X134440737Y-42470857D01*
X134470986Y-42508524D01*
X134506381Y-42541784D01*
X134545794Y-42569834D01*
X134588096Y-42591867D01*
X134631376Y-42606876D01*
X134653879Y-42611430D01*
X134677262Y-42613884D01*
X134699343Y-42614179D01*
X134717938Y-42612260D01*
X134728156Y-42609387D01*
X134737400Y-42603435D01*
X134745921Y-42593379D01*
X134753805Y-42578846D01*
X134761140Y-42559461D01*
X134768010Y-42534850D01*
X134774502Y-42504638D01*
X134780702Y-42468452D01*
X134786697Y-42425917D01*
X134792571Y-42376658D01*
X134798412Y-42320302D01*
X134801045Y-42292609D01*
X134805525Y-42245840D01*
X134809759Y-42205981D01*
X134810260Y-42201996D01*
X135876454Y-42201996D01*
X135879975Y-42203127D01*
X135890602Y-42204065D01*
X135908430Y-42204813D01*
X135933555Y-42205374D01*
X135966073Y-42205749D01*
X136006079Y-42205942D01*
X136032308Y-42205971D01*
X136188161Y-42205971D01*
X136225927Y-42113333D01*
X136236926Y-42086371D01*
X136247741Y-42059898D01*
X136257799Y-42035311D01*
X136266528Y-42014008D01*
X136273357Y-41997384D01*
X136276760Y-41989135D01*
X136289828Y-41957574D01*
X136437368Y-41958574D01*
X136584908Y-41959573D01*
X136624079Y-42022605D01*
X136636249Y-42042502D01*
X136646886Y-42060493D01*
X136655361Y-42075465D01*
X136661045Y-42086304D01*
X136663310Y-42091897D01*
X136663325Y-42092082D01*
X136662015Y-42097874D01*
X136658372Y-42109244D01*
X136652917Y-42124681D01*
X136646166Y-42142673D01*
X136644306Y-42147474D01*
X136637324Y-42165706D01*
X136631487Y-42181588D01*
X136627308Y-42193667D01*
X136625306Y-42200490D01*
X136625205Y-42201239D01*
X136626663Y-42202469D01*
X136631429Y-42203460D01*
X136640083Y-42204226D01*
X136653209Y-42204780D01*
X136671388Y-42205137D01*
X136695202Y-42205312D01*
X136725232Y-42205318D01*
X136762060Y-42205171D01*
X136780804Y-42205059D01*
X136936410Y-42204061D01*
X136988911Y-42058897D01*
X137000346Y-42027164D01*
X137010927Y-41997577D01*
X137020377Y-41970928D01*
X137028418Y-41948007D01*
X137034775Y-41929606D01*
X137039171Y-41916516D01*
X137041327Y-41909528D01*
X137041502Y-41908658D01*
X137039659Y-41903677D01*
X137034540Y-41893527D01*
X137026867Y-41879552D01*
X137017361Y-41863095D01*
X137014305Y-41857951D01*
X137004567Y-41841410D01*
X136996583Y-41827359D01*
X136991020Y-41817009D01*
X136988544Y-41811570D01*
X136988519Y-41811059D01*
X136992096Y-41808705D01*
X137001040Y-41802991D01*
X137014243Y-41794620D01*
X137030601Y-41784294D01*
X137043501Y-41776173D01*
X137061910Y-41764473D01*
X137078377Y-41753773D01*
X137091657Y-41744901D01*
X137100502Y-41738686D01*
X137103291Y-41736455D01*
X137105934Y-41731886D01*
X137111264Y-41720938D01*
X137118987Y-41704267D01*
X137128813Y-41682529D01*
X137140447Y-41656380D01*
X137153597Y-41626476D01*
X137167971Y-41593474D01*
X137183276Y-41558030D01*
X137193699Y-41533725D01*
X137277800Y-41337085D01*
X137246603Y-41276904D01*
X137215407Y-41216722D01*
X136741122Y-41216641D01*
X136266837Y-41216559D01*
X136233457Y-41301557D01*
X136221558Y-41331806D01*
X136207546Y-41367336D01*
X136191703Y-41407444D01*
X136174306Y-41451424D01*
X136155638Y-41498573D01*
X136135977Y-41548184D01*
X136115603Y-41599555D01*
X136094797Y-41651980D01*
X136073838Y-41704755D01*
X136053007Y-41757175D01*
X136032583Y-41808536D01*
X136012846Y-41858133D01*
X135994076Y-41905262D01*
X135976554Y-41949217D01*
X135960558Y-41989296D01*
X135946369Y-42024792D01*
X135934268Y-42055001D01*
X135924533Y-42079219D01*
X135920076Y-42090258D01*
X135909186Y-42117285D01*
X135899290Y-42142091D01*
X135890738Y-42163773D01*
X135883882Y-42181432D01*
X135879075Y-42194167D01*
X135876667Y-42201077D01*
X135876454Y-42201996D01*
X134810260Y-42201996D01*
X134813988Y-42172316D01*
X134818455Y-42144130D01*
X134823399Y-42120708D01*
X134829064Y-42101334D01*
X134835688Y-42085295D01*
X134843515Y-42071873D01*
X134852785Y-42060355D01*
X134863740Y-42050025D01*
X134876620Y-42040168D01*
X134889042Y-42031770D01*
X134916420Y-42015120D01*
X134949855Y-41996739D01*
X134988111Y-41977171D01*
X135029951Y-41956959D01*
X135074139Y-41936649D01*
X135119439Y-41916785D01*
X135164615Y-41897910D01*
X135208430Y-41880569D01*
X135249647Y-41865305D01*
X135287031Y-41852664D01*
X135314592Y-41844463D01*
X135341623Y-41838359D01*
X135365981Y-41836025D01*
X135389159Y-41837765D01*
X135412651Y-41843888D01*
X135437951Y-41854698D01*
X135466553Y-41870502D01*
X135479072Y-41878178D01*
X135494897Y-41888655D01*
X135515188Y-41902940D01*
X135538525Y-41919969D01*
X135563492Y-41938675D01*
X135588669Y-41957995D01*
X135612638Y-41976861D01*
X135633981Y-41994210D01*
X135637696Y-41997309D01*
X135662255Y-42017051D01*
X135683079Y-42031477D01*
X135701513Y-42040978D01*
X135718904Y-42045942D01*
X135736599Y-42046760D01*
X135755943Y-42043821D01*
X135777506Y-42037765D01*
X135804943Y-42028943D01*
X135802627Y-41986618D01*
X135796727Y-41931936D01*
X135784804Y-41874436D01*
X135766763Y-41813812D01*
X135742509Y-41749757D01*
X135711948Y-41681964D01*
X135702402Y-41662579D01*
X135665664Y-41594445D01*
X135626545Y-41532359D01*
X135583999Y-41474841D01*
X135536979Y-41420418D01*
X135513542Y-41395997D01*
X135456798Y-41342884D01*
X135398472Y-41296491D01*
X135338909Y-41257049D01*
X135278460Y-41224789D01*
X135219186Y-41200537D01*
X135203959Y-41195399D01*
X135191662Y-41191902D01*
X135180127Y-41189741D01*
X135167189Y-41188614D01*
X135150681Y-41188215D01*
X135131530Y-41188224D01*
X135107288Y-41188649D01*
X135086863Y-41189894D01*
X135067288Y-41192302D01*
X135045592Y-41196214D01*
X135025861Y-41200404D01*
X134960945Y-41216068D01*
X134891535Y-41235273D01*
X134818928Y-41257534D01*
X134744423Y-41282364D01*
X134669318Y-41309278D01*
X134594911Y-41337789D01*
X134522500Y-41367411D01*
X134453383Y-41397659D01*
X134388860Y-41428046D01*
X134330227Y-41458086D01*
X134314023Y-41466933D01*
X134283713Y-41484122D01*
X134259237Y-41499098D01*
X134239510Y-41512888D01*
X134223447Y-41526517D01*
X134209961Y-41541013D01*
X134197969Y-41557401D01*
X134186384Y-41576709D01*
X134174827Y-41598572D01*
X134152877Y-41649501D01*
X134138519Y-41701113D01*
X134131724Y-41753537D01*
X134131648Y-41794906D01*
X133856261Y-41794906D01*
X133837697Y-41763623D01*
X133825628Y-41743215D01*
X133814956Y-41725037D01*
X133806275Y-41710113D01*
X133800180Y-41699464D01*
X133797264Y-41694113D01*
X133797104Y-41693735D01*
X133799874Y-41690856D01*
X133808033Y-41684180D01*
X133820750Y-41674343D01*
X133837192Y-41661981D01*
X133856527Y-41647730D01*
X133872377Y-41636220D01*
X133948357Y-41581381D01*
X134011083Y-41459243D01*
X134027639Y-41426929D01*
X134040967Y-41400687D01*
X134051376Y-41379820D01*
X134059176Y-41363629D01*
X134064676Y-41351415D01*
X134068186Y-41342480D01*
X134070015Y-41336125D01*
X134070474Y-41331651D01*
X134069872Y-41328361D01*
X134069508Y-41327449D01*
X134066220Y-41320716D01*
X134060082Y-41308729D01*
X134051861Y-41292964D01*
X134042325Y-41274897D01*
X134038217Y-41267176D01*
X134011225Y-41216559D01*
X133062581Y-41216559D01*
X132868929Y-41704580D01*
X132845761Y-41762973D01*
X132823349Y-41819467D01*
X132801859Y-41873650D01*
X132781452Y-41925109D01*
X132762294Y-41973431D01*
X132744548Y-42018204D01*
X132728376Y-42059013D01*
X132713944Y-42095447D01*
X132701414Y-42127093D01*
X132690950Y-42153537D01*
X132682716Y-42174366D01*
X132676875Y-42189169D01*
X132673591Y-42197531D01*
X132672915Y-42199286D01*
X132672843Y-42200298D01*
X132566393Y-42200298D01*
X132760676Y-41711265D01*
X132994394Y-41122966D01*
G37*
G36*
X136922795Y-41467702D02*
G01*
X136920280Y-41474280D01*
X136915395Y-41486749D01*
X136908614Y-41503910D01*
X136900410Y-41524565D01*
X136891259Y-41547514D01*
X136887647Y-41556550D01*
X136856315Y-41634863D01*
X136637613Y-41635849D01*
X136589531Y-41636035D01*
X136548594Y-41636119D01*
X136514307Y-41636093D01*
X136486175Y-41635948D01*
X136463702Y-41635675D01*
X136446395Y-41635266D01*
X136433757Y-41634713D01*
X136425295Y-41634005D01*
X136420513Y-41633136D01*
X136418917Y-41632096D01*
X136418911Y-41632024D01*
X136420158Y-41627191D01*
X136423655Y-41616251D01*
X136429038Y-41600272D01*
X136435944Y-41580325D01*
X136444009Y-41557481D01*
X136449127Y-41543175D01*
X136479344Y-41459137D01*
X136702977Y-41458152D01*
X136926611Y-41457166D01*
X136922795Y-41467702D01*
G37*
G36*
X135230630Y-41466416D02*
G01*
X135254868Y-41472506D01*
X135274614Y-41483135D01*
X135289021Y-41497616D01*
X135297244Y-41515266D01*
X135298421Y-41521393D01*
X135297001Y-41537279D01*
X135289258Y-41551491D01*
X135276447Y-41563346D01*
X135259820Y-41572160D01*
X135240631Y-41577249D01*
X135220135Y-41577931D01*
X135201590Y-41574205D01*
X135179010Y-41563960D01*
X135162818Y-41550194D01*
X135153288Y-41533219D01*
X135150630Y-41516179D01*
X135154199Y-41501288D01*
X135163957Y-41487922D01*
X135178476Y-41476967D01*
X135196333Y-41469311D01*
X135216101Y-41465839D01*
X135230630Y-41466416D01*
G37*
G36*
X135167587Y-41665024D02*
G01*
X135177389Y-41671008D01*
X135184557Y-41681774D01*
X135188203Y-41694689D01*
X135187439Y-41707119D01*
X135184056Y-41713816D01*
X135178437Y-41717811D01*
X135167354Y-41723597D01*
X135152559Y-41730446D01*
X135135799Y-41737631D01*
X135118827Y-41744424D01*
X135103391Y-41750100D01*
X135091242Y-41753929D01*
X135084488Y-41755197D01*
X135074759Y-41752439D01*
X135069137Y-41748263D01*
X135063436Y-41739712D01*
X135058516Y-41728861D01*
X135058503Y-41728823D01*
X135056473Y-41719325D01*
X135058137Y-41711169D01*
X135064253Y-41703674D01*
X135075579Y-41696162D01*
X135092872Y-41687954D01*
X135113298Y-41679742D01*
X135136252Y-41671399D01*
X135152957Y-41666431D01*
X135163945Y-41664695D01*
X135167587Y-41665024D01*
G37*
G36*
X135057961Y-41416495D02*
G01*
X135073690Y-41423947D01*
X135090079Y-41437476D01*
X135099559Y-41452262D01*
X135102860Y-41469485D01*
X135102879Y-41471077D01*
X135099423Y-41487415D01*
X135089894Y-41501139D01*
X135075550Y-41511783D01*
X135057651Y-41518883D01*
X135037454Y-41521974D01*
X135016217Y-41520593D01*
X134995200Y-41514274D01*
X134991080Y-41512349D01*
X134973264Y-41500204D01*
X134961639Y-41485436D01*
X134956197Y-41469283D01*
X134956926Y-41452980D01*
X134963816Y-41437764D01*
X134976858Y-41424871D01*
X134991863Y-41417001D01*
X135013182Y-41412045D01*
X135036151Y-41411956D01*
X135057961Y-41416495D01*
G37*
G36*
X133408536Y-41793410D02*
G01*
X133448005Y-41793457D01*
X133480972Y-41793557D01*
X133508007Y-41793725D01*
X133529678Y-41793979D01*
X133546554Y-41794336D01*
X133559205Y-41794812D01*
X133568200Y-41795425D01*
X133574107Y-41796190D01*
X133577497Y-41797125D01*
X133578938Y-41798247D01*
X133578999Y-41799573D01*
X133578917Y-41799809D01*
X133576708Y-41805045D01*
X133571879Y-41816177D01*
X133564904Y-41832118D01*
X133556261Y-41851780D01*
X133546427Y-41874075D01*
X133541262Y-41885756D01*
X133506067Y-41965292D01*
X133072381Y-41965304D01*
X133077477Y-41952888D01*
X133080450Y-41945624D01*
X133085786Y-41932572D01*
X133092959Y-41915017D01*
X133101443Y-41894245D01*
X133110713Y-41871540D01*
X133112594Y-41866935D01*
X133142615Y-41793398D01*
X133361996Y-41793398D01*
X133408536Y-41793410D01*
G37*
G36*
X135303829Y-41325200D02*
G01*
X135324446Y-41334491D01*
X135341678Y-41348789D01*
X135343066Y-41350389D01*
X135351095Y-41365470D01*
X135353055Y-41382840D01*
X135348768Y-41399923D01*
X135346756Y-41403751D01*
X135335229Y-41416304D01*
X135318386Y-41425653D01*
X135298077Y-41431241D01*
X135276153Y-41432512D01*
X135259101Y-41430143D01*
X135243905Y-41424008D01*
X135229014Y-41413788D01*
X135216671Y-41401397D01*
X135209113Y-41388754D01*
X135208499Y-41386841D01*
X135206503Y-41369203D01*
X135211371Y-41353674D01*
X135221489Y-41340781D01*
X135238655Y-41328705D01*
X135259233Y-41322172D01*
X135281524Y-41321049D01*
X135303829Y-41325200D01*
G37*
G36*
X134460606Y-41520599D02*
G01*
X134464907Y-41524825D01*
X134471538Y-41534302D01*
X134479443Y-41547433D01*
X134484541Y-41556751D01*
X134492579Y-41571276D01*
X134499831Y-41583091D01*
X134505296Y-41590629D01*
X134507375Y-41592480D01*
X134512724Y-41591721D01*
X134523237Y-41588159D01*
X134537247Y-41582410D01*
X134548856Y-41577126D01*
X134564846Y-41570033D01*
X134579060Y-41564602D01*
X134589632Y-41561497D01*
X134593873Y-41561065D01*
X134599113Y-41563705D01*
X134605643Y-41570817D01*
X134614114Y-41583240D01*
X134624397Y-41600458D01*
X134633157Y-41616231D01*
X134640259Y-41630075D01*
X134644918Y-41640390D01*
X134646374Y-41645297D01*
X134644503Y-41650123D01*
X134638402Y-41656078D01*
X134627338Y-41663681D01*
X134610577Y-41673451D01*
X134593440Y-41682716D01*
X134581195Y-41689713D01*
X134571866Y-41696005D01*
X134567356Y-41700297D01*
X134567274Y-41700480D01*
X134568213Y-41705681D01*
X134572218Y-41715940D01*
X134578609Y-41729660D01*
X134584872Y-41741846D01*
X134594665Y-41760749D01*
X134600770Y-41774370D01*
X134603469Y-41783953D01*
X134603046Y-41790743D01*
X134599784Y-41795985D01*
X134597667Y-41797996D01*
X134590796Y-41803068D01*
X134579441Y-41810537D01*
X134565046Y-41819545D01*
X134549056Y-41829237D01*
X134532915Y-41838755D01*
X134518068Y-41847242D01*
X134505960Y-41853843D01*
X134498034Y-41857699D01*
X134495939Y-41858340D01*
X134489018Y-41855631D01*
X134486830Y-41853565D01*
X134483645Y-41848366D01*
X134477938Y-41837898D01*
X134470556Y-41823749D01*
X134463407Y-41809633D01*
X134453165Y-41790254D01*
X134445044Y-41777276D01*
X134439256Y-41771023D01*
X134437672Y-41770477D01*
X134432178Y-41772220D01*
X134421433Y-41776995D01*
X134406867Y-41784123D01*
X134389907Y-41792924D01*
X134385458Y-41795308D01*
X134364590Y-41806353D01*
X134349253Y-41813846D01*
X134338399Y-41818122D01*
X134330979Y-41819514D01*
X134325946Y-41818358D01*
X134322549Y-41815364D01*
X134318216Y-41808315D01*
X134312111Y-41796219D01*
X134304972Y-41780808D01*
X134297540Y-41763812D01*
X134290554Y-41746961D01*
X134284752Y-41731986D01*
X134280875Y-41720617D01*
X134279642Y-41714929D01*
X134280256Y-41710636D01*
X134282810Y-41706653D01*
X134288371Y-41702245D01*
X134298007Y-41696677D01*
X134312785Y-41689215D01*
X134326871Y-41682419D01*
X134344557Y-41673726D01*
X134359925Y-41665737D01*
X134371553Y-41659225D01*
X134378015Y-41654960D01*
X134378643Y-41654352D01*
X134380100Y-41650425D01*
X134379070Y-41643985D01*
X134375144Y-41633765D01*
X134367914Y-41618501D01*
X134365576Y-41613816D01*
X134358254Y-41598249D01*
X134352670Y-41584472D01*
X134349532Y-41574347D01*
X134349141Y-41570597D01*
X134350972Y-41566724D01*
X134356004Y-41562414D01*
X134365200Y-41557121D01*
X134379525Y-41550297D01*
X134399941Y-41541395D01*
X134402405Y-41540348D01*
X134421697Y-41532488D01*
X134438495Y-41526255D01*
X134451471Y-41522100D01*
X134459296Y-41520475D01*
X134460606Y-41520599D01*
G37*
G36*
X134943106Y-41753797D02*
G01*
X134952610Y-41759521D01*
X134960941Y-41770094D01*
X134966264Y-41782756D01*
X134967250Y-41790110D01*
X134966172Y-41797933D01*
X134962315Y-41804914D01*
X134954777Y-41811699D01*
X134942660Y-41818931D01*
X134925062Y-41827254D01*
X134901597Y-41837106D01*
X134877247Y-41846710D01*
X134858708Y-41853205D01*
X134844889Y-41856755D01*
X134834696Y-41857525D01*
X134827039Y-41855679D01*
X134820824Y-41851382D01*
X134819004Y-41849561D01*
X134810952Y-41836736D01*
X134807683Y-41822081D01*
X134809777Y-41808598D01*
X134810690Y-41806673D01*
X134816203Y-41801702D01*
X134827504Y-41795089D01*
X134843081Y-41787439D01*
X134861419Y-41779356D01*
X134881007Y-41771443D01*
X134900329Y-41764307D01*
X134917874Y-41758550D01*
X134932126Y-41754777D01*
X134941573Y-41753593D01*
X134943106Y-41753797D01*
G37*
G36*
X133646410Y-40325443D02*
G01*
X133660664Y-40292135D01*
X133666771Y-40281877D01*
X133677090Y-40268660D01*
X133693199Y-40251900D01*
X133714434Y-40232146D01*
X133740135Y-40209951D01*
X133769637Y-40185863D01*
X133802281Y-40160434D01*
X133837402Y-40134213D01*
X133874340Y-40107751D01*
X133886169Y-40099507D01*
X133989709Y-40032456D01*
X134097249Y-39971813D01*
X134208413Y-39917726D01*
X134322824Y-39870342D01*
X134440103Y-39829807D01*
X134559874Y-39796268D01*
X134681759Y-39769873D01*
X134768618Y-39755656D01*
X134811428Y-39749885D01*
X134850706Y-39745329D01*
X134888272Y-39741872D01*
X134925946Y-39739398D01*
X134965548Y-39737790D01*
X135008897Y-39736933D01*
X135057813Y-39736708D01*
X135064677Y-39736720D01*
X135116428Y-39737163D01*
X135162571Y-39738339D01*
X135205116Y-39740389D01*
X135246073Y-39743453D01*
X135287451Y-39747673D01*
X135331260Y-39753189D01*
X135362647Y-39757632D01*
X135483222Y-39779148D01*
X135602555Y-39808074D01*
X135720200Y-39844223D01*
X135835708Y-39887406D01*
X135948633Y-39937435D01*
X136058528Y-39994122D01*
X136164945Y-40057279D01*
X136267438Y-40126718D01*
X136304023Y-40153773D01*
X136340231Y-40181579D01*
X136370594Y-40205838D01*
X136395700Y-40227120D01*
X136416141Y-40245996D01*
X136432505Y-40263035D01*
X136445384Y-40278808D01*
X136455366Y-40293884D01*
X136461866Y-40306256D01*
X136467862Y-40320299D01*
X136471676Y-40333164D01*
X136473936Y-40347742D01*
X136475271Y-40366920D01*
X136475326Y-40368064D01*
X136474573Y-40401417D01*
X136468600Y-40430857D01*
X136456896Y-40458492D01*
X136450769Y-40469071D01*
X136444907Y-40476789D01*
X136434396Y-40488887D01*
X136420116Y-40504472D01*
X136402950Y-40522650D01*
X136383777Y-40542531D01*
X136363478Y-40563220D01*
X136342936Y-40583827D01*
X136323030Y-40603457D01*
X136304642Y-40621220D01*
X136288653Y-40636222D01*
X136275943Y-40647571D01*
X136268977Y-40653235D01*
X136238688Y-40671275D01*
X136205519Y-40682245D01*
X136169437Y-40686155D01*
X136167386Y-40686165D01*
X136147198Y-40685595D01*
X136129386Y-40683517D01*
X136112768Y-40679384D01*
X136096163Y-40672648D01*
X136078391Y-40662759D01*
X136058270Y-40649170D01*
X136034619Y-40631332D01*
X136013978Y-40614935D01*
X135927518Y-40549891D01*
X135838371Y-40491884D01*
X135746328Y-40440826D01*
X135651177Y-40396627D01*
X135552708Y-40359198D01*
X135450709Y-40328448D01*
X135344971Y-40304289D01*
X135244223Y-40287809D01*
X135210995Y-40284226D01*
X135171999Y-40281477D01*
X135128945Y-40279571D01*
X135083548Y-40278520D01*
X135037518Y-40278332D01*
X134992568Y-40279019D01*
X134950411Y-40280590D01*
X134912757Y-40283056D01*
X134887042Y-40285678D01*
X134777145Y-40302946D01*
X134670524Y-40327000D01*
X134567301Y-40357791D01*
X134467595Y-40395267D01*
X134371525Y-40439380D01*
X134279213Y-40490080D01*
X134190777Y-40547315D01*
X134107084Y-40610432D01*
X134082730Y-40629992D01*
X134063167Y-40645182D01*
X134047438Y-40656658D01*
X134034581Y-40665077D01*
X134023637Y-40671097D01*
X134013647Y-40675375D01*
X134010768Y-40676392D01*
X133977636Y-40684072D01*
X133942005Y-40686026D01*
X133924417Y-40684800D01*
X133895316Y-40678096D01*
X133870936Y-40667951D01*
X133862301Y-40663491D01*
X133854082Y-40658576D01*
X133845512Y-40652537D01*
X133835822Y-40644707D01*
X133824247Y-40634417D01*
X133810018Y-40620998D01*
X133792368Y-40603782D01*
X133770529Y-40582100D01*
X133757875Y-40569451D01*
X133727933Y-40539148D01*
X133703577Y-40513767D01*
X133684677Y-40493163D01*
X133671100Y-40477192D01*
X133662715Y-40465708D01*
X133661501Y-40463677D01*
X133646858Y-40430223D01*
X133639480Y-40395415D01*
X133639427Y-40382247D01*
X133737521Y-40382247D01*
X133741410Y-40402315D01*
X133744560Y-40409710D01*
X133749636Y-40416851D01*
X133759341Y-40428204D01*
X133772802Y-40442904D01*
X133789148Y-40460086D01*
X133807506Y-40478888D01*
X133827002Y-40498444D01*
X133846765Y-40517890D01*
X133865923Y-40536363D01*
X133883601Y-40552997D01*
X133898929Y-40566929D01*
X133911033Y-40577294D01*
X133919041Y-40583228D01*
X133920551Y-40584030D01*
X133941792Y-40589323D01*
X133963858Y-40588213D01*
X133976167Y-40584481D01*
X133983790Y-40580156D01*
X133995891Y-40571959D01*
X134011070Y-40560896D01*
X134027925Y-40547973D01*
X134036211Y-40541394D01*
X134126949Y-40473119D01*
X134220276Y-40412021D01*
X134316301Y-40358053D01*
X134415132Y-40311172D01*
X134516878Y-40271334D01*
X134621646Y-40238492D01*
X134729546Y-40212604D01*
X134840684Y-40193623D01*
X134896592Y-40186806D01*
X134926363Y-40184298D01*
X134961799Y-40182382D01*
X135001085Y-40181069D01*
X135042407Y-40180373D01*
X135083950Y-40180306D01*
X135123900Y-40180880D01*
X135160443Y-40182107D01*
X135191765Y-40184001D01*
X135200292Y-40184740D01*
X135252238Y-40190627D01*
X135307779Y-40198625D01*
X135363482Y-40208180D01*
X135415916Y-40218738D01*
X135429140Y-40221705D01*
X135460155Y-40229493D01*
X135496054Y-40239585D01*
X135534872Y-40251346D01*
X135574643Y-40264138D01*
X135613401Y-40277323D01*
X135649181Y-40290265D01*
X135680015Y-40302327D01*
X135687358Y-40305401D01*
X135787974Y-40352367D01*
X135885284Y-40406020D01*
X135978657Y-40465973D01*
X136067462Y-40531844D01*
X136093257Y-40552816D01*
X136113228Y-40568639D01*
X136129460Y-40579534D01*
X136143356Y-40586222D01*
X136156322Y-40589424D01*
X136165705Y-40589975D01*
X136174589Y-40589401D01*
X136183235Y-40587431D01*
X136192339Y-40583535D01*
X136202596Y-40577183D01*
X136214703Y-40567843D01*
X136229356Y-40554985D01*
X136247250Y-40538079D01*
X136269083Y-40516593D01*
X136291558Y-40494030D01*
X136315108Y-40470165D01*
X136333794Y-40450967D01*
X136348207Y-40435756D01*
X136358938Y-40423847D01*
X136366578Y-40414560D01*
X136371717Y-40407213D01*
X136374947Y-40401123D01*
X136376859Y-40395609D01*
X136376867Y-40395580D01*
X136379253Y-40372141D01*
X136374365Y-40349049D01*
X136370782Y-40341021D01*
X136363564Y-40331171D01*
X136350569Y-40317806D01*
X136332507Y-40301450D01*
X136310083Y-40282628D01*
X136284008Y-40261865D01*
X136254987Y-40239686D01*
X136223731Y-40216616D01*
X136190945Y-40193181D01*
X136157340Y-40169904D01*
X136123621Y-40147311D01*
X136090498Y-40125926D01*
X136058679Y-40106276D01*
X136036899Y-40093453D01*
X135940240Y-40041803D01*
X135838734Y-39995003D01*
X135733652Y-39953492D01*
X135626264Y-39917709D01*
X135517842Y-39888094D01*
X135409656Y-39865087D01*
X135347367Y-39854922D01*
X135229301Y-39841419D01*
X135110437Y-39834788D01*
X134991911Y-39835041D01*
X134874862Y-39842190D01*
X134810639Y-39849178D01*
X134692054Y-39867947D01*
X134574561Y-39894023D01*
X134458727Y-39927195D01*
X134345121Y-39967251D01*
X134234309Y-40013978D01*
X134126858Y-40067165D01*
X134023336Y-40126600D01*
X133960760Y-40166907D01*
X133930282Y-40187885D01*
X133899765Y-40209769D01*
X133869954Y-40231955D01*
X133841593Y-40253839D01*
X133815427Y-40274818D01*
X133792200Y-40294287D01*
X133772656Y-40311643D01*
X133757540Y-40326282D01*
X133747596Y-40337600D01*
X133744542Y-40342306D01*
X133738565Y-40361126D01*
X133737521Y-40382247D01*
X133639427Y-40382247D01*
X133639339Y-40360179D01*
X133646410Y-40325443D01*
G37*
%TO.C,C1*%
X138061400Y-64753748D02*
X138061400Y-65276252D01*
X136591400Y-64753748D02*
X136591400Y-65276252D01*
%TO.C,U1*%
X131616400Y-62799400D02*
X131616400Y-56789400D01*
X138436400Y-60549400D02*
X138436400Y-56789400D01*
X138436400Y-56789400D02*
X137176400Y-56789400D01*
X131616400Y-56789400D02*
X132876400Y-56789400D01*
%TD*%
D13*
%TO.C,U2*%
X157568600Y-55275400D03*
D14*
X154538600Y-57795400D03*
D13*
X157568600Y-52735400D03*
X140068600Y-46385400D03*
D14*
X150728600Y-57795400D03*
D13*
X157568600Y-56545400D03*
X140068600Y-56545400D03*
D14*
X145648600Y-57795400D03*
X149458600Y-57795400D03*
X143108600Y-57795400D03*
X146918600Y-57795400D03*
D13*
X157568600Y-47655400D03*
X140068600Y-45115400D03*
X157568600Y-43845400D03*
D14*
X151998600Y-57795400D03*
X153268600Y-57795400D03*
X148188600Y-57795400D03*
X144378600Y-57795400D03*
D13*
X140068600Y-55275400D03*
%TD*%
M02*
