%TF.GenerationSoftware,KiCad,Pcbnew,(6.0.8)*%
%TF.CreationDate,2023-06-07T12:36:53+01:00*%
%TF.ProjectId,BlueRetro_Universal_HW1_3v3,426c7565-5265-4747-926f-5f556e697665,rev?*%
%TF.SameCoordinates,Original*%
%TF.FileFunction,Legend,Top*%
%TF.FilePolarity,Positive*%
%FSLAX46Y46*%
G04 Gerber Fmt 4.6, Leading zero omitted, Abs format (unit mm)*
G04 Created by KiCad (PCBNEW (6.0.8)) date 2023-06-07 12:36:53*
%MOMM*%
%LPD*%
G01*
G04 APERTURE LIST*
%ADD10C,0.150000*%
%ADD11C,0.120000*%
%ADD12R,1.500000X0.900000*%
%ADD13R,0.900000X1.500000*%
G04 APERTURE END LIST*
D10*
X161410580Y-64606085D02*
X162220104Y-64606085D01*
X162315342Y-64558466D01*
X162362961Y-64510847D01*
X162410580Y-64415609D01*
X162410580Y-64225133D01*
X162362961Y-64129895D01*
X162315342Y-64082276D01*
X162220104Y-64034657D01*
X161410580Y-64034657D01*
X161743914Y-63558466D02*
X162410580Y-63558466D01*
X161839152Y-63558466D02*
X161791533Y-63510847D01*
X161743914Y-63415609D01*
X161743914Y-63272752D01*
X161791533Y-63177514D01*
X161886771Y-63129895D01*
X162410580Y-63129895D01*
X162410580Y-62653704D02*
X161743914Y-62653704D01*
X161410580Y-62653704D02*
X161458200Y-62701323D01*
X161505819Y-62653704D01*
X161458200Y-62606085D01*
X161410580Y-62653704D01*
X161505819Y-62653704D01*
X161743914Y-62272752D02*
X162410580Y-62034657D01*
X161743914Y-61796561D01*
X162362961Y-61034657D02*
X162410580Y-61129895D01*
X162410580Y-61320371D01*
X162362961Y-61415609D01*
X162267723Y-61463228D01*
X161886771Y-61463228D01*
X161791533Y-61415609D01*
X161743914Y-61320371D01*
X161743914Y-61129895D01*
X161791533Y-61034657D01*
X161886771Y-60987038D01*
X161982009Y-60987038D01*
X162077247Y-61463228D01*
X162410580Y-60558466D02*
X161743914Y-60558466D01*
X161934390Y-60558466D02*
X161839152Y-60510847D01*
X161791533Y-60463228D01*
X161743914Y-60367990D01*
X161743914Y-60272752D01*
X162362961Y-59987038D02*
X162410580Y-59891800D01*
X162410580Y-59701323D01*
X162362961Y-59606085D01*
X162267723Y-59558466D01*
X162220104Y-59558466D01*
X162124866Y-59606085D01*
X162077247Y-59701323D01*
X162077247Y-59844180D01*
X162029628Y-59939419D01*
X161934390Y-59987038D01*
X161886771Y-59987038D01*
X161791533Y-59939419D01*
X161743914Y-59844180D01*
X161743914Y-59701323D01*
X161791533Y-59606085D01*
X162410580Y-58701323D02*
X161886771Y-58701323D01*
X161791533Y-58748942D01*
X161743914Y-58844180D01*
X161743914Y-59034657D01*
X161791533Y-59129895D01*
X162362961Y-58701323D02*
X162410580Y-58796561D01*
X162410580Y-59034657D01*
X162362961Y-59129895D01*
X162267723Y-59177514D01*
X162172485Y-59177514D01*
X162077247Y-59129895D01*
X162029628Y-59034657D01*
X162029628Y-58796561D01*
X161982009Y-58701323D01*
X162410580Y-58082276D02*
X162362961Y-58177514D01*
X162267723Y-58225133D01*
X161410580Y-58225133D01*
X164020580Y-64606085D02*
X163020580Y-64606085D01*
X163496771Y-64606085D02*
X163496771Y-64034657D01*
X164020580Y-64034657D02*
X163020580Y-64034657D01*
X163020580Y-63653704D02*
X164020580Y-63415609D01*
X163306295Y-63225133D01*
X164020580Y-63034657D01*
X163020580Y-62796561D01*
X164020580Y-61891800D02*
X164020580Y-62463228D01*
X164020580Y-62177514D02*
X163020580Y-62177514D01*
X163163438Y-62272752D01*
X163258676Y-62367990D01*
X163306295Y-62463228D01*
X164020580Y-60701323D02*
X163020580Y-60701323D01*
X163020580Y-60320371D01*
X163068200Y-60225133D01*
X163115819Y-60177514D01*
X163211057Y-60129895D01*
X163353914Y-60129895D01*
X163449152Y-60177514D01*
X163496771Y-60225133D01*
X163544390Y-60320371D01*
X163544390Y-60701323D01*
X163925342Y-59129895D02*
X163972961Y-59177514D01*
X164020580Y-59320371D01*
X164020580Y-59415609D01*
X163972961Y-59558466D01*
X163877723Y-59653704D01*
X163782485Y-59701323D01*
X163592009Y-59748942D01*
X163449152Y-59748942D01*
X163258676Y-59701323D01*
X163163438Y-59653704D01*
X163068200Y-59558466D01*
X163020580Y-59415609D01*
X163020580Y-59320371D01*
X163068200Y-59177514D01*
X163115819Y-59129895D01*
X163496771Y-58367990D02*
X163544390Y-58225133D01*
X163592009Y-58177514D01*
X163687247Y-58129895D01*
X163830104Y-58129895D01*
X163925342Y-58177514D01*
X163972961Y-58225133D01*
X164020580Y-58320371D01*
X164020580Y-58701323D01*
X163020580Y-58701323D01*
X163020580Y-58367990D01*
X163068200Y-58272752D01*
X163115819Y-58225133D01*
X163211057Y-58177514D01*
X163306295Y-58177514D01*
X163401533Y-58225133D01*
X163449152Y-58272752D01*
X163496771Y-58367990D01*
X163496771Y-58701323D01*
%TO.C,G\u002A\u002A\u002A*%
G36*
X160809228Y-52121166D02*
G01*
X161883644Y-52119230D01*
X161915523Y-52175827D01*
X161928831Y-52200031D01*
X161943234Y-52227183D01*
X161957225Y-52254386D01*
X161969297Y-52278741D01*
X161972232Y-52284876D01*
X161997063Y-52337329D01*
X162083016Y-52335857D01*
X162168969Y-52334384D01*
X162235821Y-52303798D01*
X162304099Y-52273664D01*
X162375019Y-52244439D01*
X162447453Y-52216501D01*
X162520269Y-52190227D01*
X162592337Y-52165998D01*
X162662528Y-52144189D01*
X162729712Y-52125181D01*
X162792758Y-52109352D01*
X162850537Y-52097080D01*
X162856591Y-52095950D01*
X162900307Y-52089728D01*
X162942797Y-52087147D01*
X162982452Y-52088209D01*
X163017661Y-52092915D01*
X163030406Y-52095889D01*
X163089402Y-52115215D01*
X163149190Y-52141519D01*
X163208953Y-52174311D01*
X163267872Y-52213100D01*
X163325129Y-52257395D01*
X163376284Y-52303213D01*
X163407502Y-52333183D01*
X163928556Y-52333183D01*
X163937326Y-52313128D01*
X163941201Y-52303854D01*
X163947305Y-52288736D01*
X163955130Y-52269062D01*
X163964163Y-52246120D01*
X163973895Y-52221197D01*
X163979732Y-52206151D01*
X164013368Y-52119230D01*
X165090498Y-52121166D01*
X165145087Y-52224310D01*
X165199677Y-52327453D01*
X165271005Y-52328494D01*
X165297243Y-52328998D01*
X165316583Y-52329679D01*
X165329764Y-52330596D01*
X165337528Y-52331811D01*
X165340615Y-52333386D01*
X165340677Y-52334224D01*
X165339188Y-52338275D01*
X165335194Y-52349104D01*
X165328837Y-52366326D01*
X165320260Y-52389553D01*
X165309606Y-52418397D01*
X165297019Y-52452472D01*
X165282641Y-52491391D01*
X165266615Y-52534765D01*
X165249085Y-52582208D01*
X165230194Y-52633334D01*
X165210084Y-52687753D01*
X165188898Y-52745081D01*
X165166781Y-52804928D01*
X165143873Y-52866909D01*
X165131149Y-52901337D01*
X164923277Y-53463761D01*
X163809197Y-53463850D01*
X162695116Y-53463940D01*
X162692396Y-53485905D01*
X162686726Y-53519932D01*
X162678350Y-53554269D01*
X162667834Y-53587350D01*
X162655740Y-53617610D01*
X162642632Y-53643481D01*
X162629075Y-53663398D01*
X162628048Y-53664618D01*
X162607020Y-53683425D01*
X162580604Y-53697581D01*
X162549617Y-53706891D01*
X162514874Y-53711162D01*
X162477192Y-53710201D01*
X162451024Y-53706591D01*
X162397811Y-53693112D01*
X162347038Y-53672616D01*
X162299216Y-53645481D01*
X162254855Y-53612083D01*
X162214465Y-53572797D01*
X162178554Y-53528000D01*
X162151954Y-53485905D01*
X162139588Y-53463940D01*
X161282335Y-53463940D01*
X161201975Y-53463934D01*
X161123654Y-53463916D01*
X161047713Y-53463888D01*
X160974495Y-53463848D01*
X160904340Y-53463799D01*
X160837590Y-53463741D01*
X160774586Y-53463674D01*
X160715670Y-53463598D01*
X160661183Y-53463515D01*
X160611466Y-53463424D01*
X160566862Y-53463326D01*
X160527711Y-53463223D01*
X160494355Y-53463114D01*
X160467135Y-53462999D01*
X160446392Y-53462881D01*
X160432469Y-53462758D01*
X160425706Y-53462631D01*
X160425082Y-53462579D01*
X160426460Y-53458801D01*
X160430312Y-53448997D01*
X160436222Y-53434213D01*
X160443770Y-53415494D01*
X160452537Y-53393886D01*
X160456065Y-53385222D01*
X160465311Y-53362537D01*
X160473633Y-53342111D01*
X160480579Y-53325050D01*
X160485699Y-53312464D01*
X160488541Y-53305458D01*
X160488914Y-53304532D01*
X160487795Y-53302814D01*
X160482419Y-53301468D01*
X160472053Y-53300436D01*
X160455962Y-53299659D01*
X160433411Y-53299080D01*
X160416285Y-53298801D01*
X160341791Y-53297764D01*
X160381227Y-53198498D01*
X160487677Y-53198498D01*
X160488483Y-53199402D01*
X160490570Y-53200206D01*
X160494339Y-53200914D01*
X160500191Y-53201532D01*
X160508530Y-53202067D01*
X160519757Y-53202525D01*
X160534273Y-53202912D01*
X160552481Y-53203233D01*
X160574783Y-53203495D01*
X160601580Y-53203703D01*
X160633275Y-53203864D01*
X160670269Y-53203984D01*
X160712965Y-53204068D01*
X160761763Y-53204123D01*
X160817067Y-53204154D01*
X160879278Y-53204169D01*
X160936037Y-53204171D01*
X161386687Y-53204171D01*
X161591109Y-53057079D01*
X161641763Y-52943057D01*
X161692416Y-52829034D01*
X161671095Y-52793106D01*
X161946482Y-52793106D01*
X161948225Y-52812684D01*
X161951570Y-52833374D01*
X161956718Y-52855658D01*
X161963872Y-52880016D01*
X161973231Y-52906932D01*
X161984999Y-52936886D01*
X161999376Y-52970360D01*
X162016564Y-53007837D01*
X162036764Y-53049796D01*
X162060179Y-53096722D01*
X162087009Y-53149094D01*
X162117456Y-53207395D01*
X162128853Y-53229002D01*
X162144397Y-53258485D01*
X162160725Y-53289590D01*
X162176935Y-53320584D01*
X162192120Y-53349738D01*
X162205378Y-53375318D01*
X162214301Y-53392655D01*
X162225242Y-53413798D01*
X162235575Y-53433364D01*
X162244580Y-53450022D01*
X162251539Y-53462440D01*
X162255571Y-53469057D01*
X162285820Y-53506724D01*
X162321215Y-53539984D01*
X162360628Y-53568034D01*
X162402930Y-53590067D01*
X162446210Y-53605076D01*
X162468713Y-53609630D01*
X162492096Y-53612084D01*
X162514177Y-53612379D01*
X162532772Y-53610460D01*
X162542990Y-53607587D01*
X162552234Y-53601635D01*
X162560755Y-53591579D01*
X162568639Y-53577046D01*
X162575974Y-53557661D01*
X162582844Y-53533050D01*
X162589336Y-53502838D01*
X162595536Y-53466652D01*
X162601531Y-53424117D01*
X162607405Y-53374858D01*
X162613246Y-53318502D01*
X162615879Y-53290809D01*
X162620359Y-53244040D01*
X162624593Y-53204181D01*
X162625094Y-53200196D01*
X163691288Y-53200196D01*
X163694809Y-53201327D01*
X163705436Y-53202265D01*
X163723264Y-53203013D01*
X163748389Y-53203574D01*
X163780907Y-53203949D01*
X163820913Y-53204142D01*
X163847142Y-53204171D01*
X164002995Y-53204171D01*
X164040761Y-53111533D01*
X164051760Y-53084571D01*
X164062575Y-53058098D01*
X164072633Y-53033511D01*
X164081362Y-53012208D01*
X164088191Y-52995584D01*
X164091594Y-52987335D01*
X164104662Y-52955774D01*
X164252202Y-52956774D01*
X164399742Y-52957773D01*
X164438913Y-53020805D01*
X164451083Y-53040702D01*
X164461720Y-53058693D01*
X164470195Y-53073665D01*
X164475879Y-53084504D01*
X164478144Y-53090097D01*
X164478159Y-53090282D01*
X164476849Y-53096074D01*
X164473206Y-53107444D01*
X164467751Y-53122881D01*
X164461000Y-53140873D01*
X164459140Y-53145674D01*
X164452158Y-53163906D01*
X164446321Y-53179788D01*
X164442142Y-53191867D01*
X164440140Y-53198690D01*
X164440039Y-53199439D01*
X164441497Y-53200669D01*
X164446263Y-53201660D01*
X164454917Y-53202426D01*
X164468043Y-53202980D01*
X164486222Y-53203337D01*
X164510036Y-53203512D01*
X164540066Y-53203518D01*
X164576894Y-53203371D01*
X164595638Y-53203259D01*
X164751244Y-53202261D01*
X164803745Y-53057097D01*
X164815180Y-53025364D01*
X164825761Y-52995777D01*
X164835211Y-52969128D01*
X164843252Y-52946207D01*
X164849609Y-52927806D01*
X164854005Y-52914716D01*
X164856161Y-52907728D01*
X164856336Y-52906858D01*
X164854493Y-52901877D01*
X164849374Y-52891727D01*
X164841701Y-52877752D01*
X164832195Y-52861295D01*
X164829139Y-52856151D01*
X164819401Y-52839610D01*
X164811417Y-52825559D01*
X164805854Y-52815209D01*
X164803378Y-52809770D01*
X164803353Y-52809259D01*
X164806930Y-52806905D01*
X164815874Y-52801191D01*
X164829077Y-52792820D01*
X164845435Y-52782494D01*
X164858335Y-52774373D01*
X164876744Y-52762673D01*
X164893211Y-52751973D01*
X164906491Y-52743101D01*
X164915336Y-52736886D01*
X164918125Y-52734655D01*
X164920768Y-52730086D01*
X164926098Y-52719138D01*
X164933821Y-52702467D01*
X164943647Y-52680729D01*
X164955281Y-52654580D01*
X164968431Y-52624676D01*
X164982805Y-52591674D01*
X164998110Y-52556230D01*
X165008533Y-52531925D01*
X165092634Y-52335285D01*
X165061437Y-52275104D01*
X165030241Y-52214922D01*
X164555956Y-52214841D01*
X164081671Y-52214759D01*
X164048291Y-52299757D01*
X164036392Y-52330006D01*
X164022380Y-52365536D01*
X164006537Y-52405644D01*
X163989140Y-52449624D01*
X163970472Y-52496773D01*
X163950811Y-52546384D01*
X163930437Y-52597755D01*
X163909631Y-52650180D01*
X163888672Y-52702955D01*
X163867841Y-52755375D01*
X163847417Y-52806736D01*
X163827680Y-52856333D01*
X163808910Y-52903462D01*
X163791388Y-52947417D01*
X163775392Y-52987496D01*
X163761203Y-53022992D01*
X163749102Y-53053201D01*
X163739367Y-53077419D01*
X163734910Y-53088458D01*
X163724020Y-53115485D01*
X163714124Y-53140291D01*
X163705572Y-53161973D01*
X163698716Y-53179632D01*
X163693909Y-53192367D01*
X163691501Y-53199277D01*
X163691288Y-53200196D01*
X162625094Y-53200196D01*
X162628822Y-53170516D01*
X162633289Y-53142330D01*
X162638233Y-53118908D01*
X162643898Y-53099534D01*
X162650522Y-53083495D01*
X162658349Y-53070073D01*
X162667619Y-53058555D01*
X162678574Y-53048225D01*
X162691454Y-53038368D01*
X162703876Y-53029970D01*
X162731254Y-53013320D01*
X162764689Y-52994939D01*
X162802945Y-52975371D01*
X162844785Y-52955159D01*
X162888973Y-52934849D01*
X162934273Y-52914985D01*
X162979449Y-52896110D01*
X163023264Y-52878769D01*
X163064481Y-52863505D01*
X163101865Y-52850864D01*
X163129426Y-52842663D01*
X163156457Y-52836559D01*
X163180815Y-52834225D01*
X163203993Y-52835965D01*
X163227485Y-52842088D01*
X163252785Y-52852898D01*
X163281387Y-52868702D01*
X163293906Y-52876378D01*
X163309731Y-52886855D01*
X163330022Y-52901140D01*
X163353359Y-52918169D01*
X163378326Y-52936875D01*
X163403503Y-52956195D01*
X163427472Y-52975061D01*
X163448815Y-52992410D01*
X163452530Y-52995509D01*
X163477089Y-53015251D01*
X163497913Y-53029677D01*
X163516347Y-53039178D01*
X163533738Y-53044142D01*
X163551433Y-53044960D01*
X163570777Y-53042021D01*
X163592340Y-53035965D01*
X163619777Y-53027143D01*
X163617461Y-52984818D01*
X163611561Y-52930136D01*
X163599638Y-52872636D01*
X163581597Y-52812012D01*
X163557343Y-52747957D01*
X163526782Y-52680164D01*
X163517236Y-52660779D01*
X163480498Y-52592645D01*
X163441379Y-52530559D01*
X163398833Y-52473041D01*
X163351813Y-52418618D01*
X163328376Y-52394197D01*
X163271632Y-52341084D01*
X163213306Y-52294691D01*
X163153743Y-52255249D01*
X163093294Y-52222989D01*
X163034020Y-52198737D01*
X163018793Y-52193599D01*
X163006496Y-52190102D01*
X162994961Y-52187941D01*
X162982023Y-52186814D01*
X162965515Y-52186415D01*
X162946364Y-52186424D01*
X162922122Y-52186849D01*
X162901697Y-52188094D01*
X162882122Y-52190502D01*
X162860426Y-52194414D01*
X162840695Y-52198604D01*
X162775779Y-52214268D01*
X162706369Y-52233473D01*
X162633762Y-52255734D01*
X162559257Y-52280564D01*
X162484152Y-52307478D01*
X162409745Y-52335989D01*
X162337334Y-52365611D01*
X162268217Y-52395859D01*
X162203694Y-52426246D01*
X162145061Y-52456286D01*
X162128857Y-52465133D01*
X162098547Y-52482322D01*
X162074071Y-52497298D01*
X162054344Y-52511088D01*
X162038281Y-52524717D01*
X162024795Y-52539213D01*
X162012803Y-52555601D01*
X162001218Y-52574909D01*
X161989661Y-52596772D01*
X161967711Y-52647701D01*
X161953353Y-52699313D01*
X161946558Y-52751737D01*
X161946482Y-52793106D01*
X161671095Y-52793106D01*
X161652531Y-52761823D01*
X161640462Y-52741415D01*
X161629790Y-52723237D01*
X161621109Y-52708313D01*
X161615014Y-52697664D01*
X161612098Y-52692313D01*
X161611938Y-52691935D01*
X161614708Y-52689056D01*
X161622867Y-52682380D01*
X161635584Y-52672543D01*
X161652026Y-52660181D01*
X161671361Y-52645930D01*
X161687211Y-52634420D01*
X161763191Y-52579581D01*
X161825917Y-52457443D01*
X161842473Y-52425129D01*
X161855801Y-52398887D01*
X161866210Y-52378020D01*
X161874010Y-52361829D01*
X161879510Y-52349615D01*
X161883020Y-52340680D01*
X161884849Y-52334325D01*
X161885308Y-52329851D01*
X161884706Y-52326561D01*
X161884342Y-52325649D01*
X161881054Y-52318916D01*
X161874916Y-52306929D01*
X161866695Y-52291164D01*
X161857159Y-52273097D01*
X161853051Y-52265376D01*
X161826059Y-52214759D01*
X160877415Y-52214759D01*
X160683763Y-52702780D01*
X160660595Y-52761173D01*
X160638183Y-52817667D01*
X160616693Y-52871850D01*
X160596286Y-52923309D01*
X160577128Y-52971631D01*
X160559382Y-53016404D01*
X160543210Y-53057213D01*
X160528778Y-53093647D01*
X160516248Y-53125293D01*
X160505784Y-53151737D01*
X160497550Y-53172566D01*
X160491709Y-53187369D01*
X160488425Y-53195731D01*
X160487749Y-53197486D01*
X160487677Y-53198498D01*
X160381227Y-53198498D01*
X160575510Y-52709465D01*
X160809228Y-52121166D01*
G37*
G36*
X161942892Y-51824730D02*
G01*
X161953179Y-51791661D01*
X161970051Y-51760930D01*
X161978494Y-51749716D01*
X161990707Y-51736961D01*
X162008623Y-51721208D01*
X162031257Y-51703152D01*
X162057625Y-51683489D01*
X162086742Y-51662915D01*
X162117623Y-51642126D01*
X162149284Y-51621817D01*
X162180740Y-51602685D01*
X162210990Y-51585433D01*
X162299763Y-51541073D01*
X162392531Y-51503133D01*
X162489019Y-51471699D01*
X162588952Y-51446856D01*
X162692054Y-51428689D01*
X162734347Y-51423285D01*
X162759230Y-51421163D01*
X162790043Y-51419668D01*
X162825101Y-51418789D01*
X162862720Y-51418512D01*
X162901215Y-51418828D01*
X162938902Y-51419723D01*
X162974097Y-51421187D01*
X163005115Y-51423207D01*
X163026586Y-51425311D01*
X163130361Y-51441467D01*
X163231361Y-51464692D01*
X163329469Y-51494943D01*
X163424568Y-51532177D01*
X163516540Y-51576352D01*
X163605266Y-51627426D01*
X163625820Y-51640547D01*
X163668350Y-51669103D01*
X163704095Y-51695047D01*
X163733357Y-51718632D01*
X163756434Y-51740111D01*
X163773625Y-51759738D01*
X163783038Y-51773746D01*
X163796348Y-51803911D01*
X163803942Y-51837021D01*
X163805520Y-51870846D01*
X163800783Y-51903155D01*
X163800563Y-51903992D01*
X163796885Y-51916534D01*
X163792549Y-51928060D01*
X163786968Y-51939327D01*
X163779557Y-51951094D01*
X163769731Y-51964120D01*
X163756905Y-51979162D01*
X163740495Y-51996981D01*
X163719915Y-52018333D01*
X163694580Y-52043978D01*
X163685786Y-52052801D01*
X163658243Y-52080227D01*
X163635175Y-52102674D01*
X163615793Y-52120699D01*
X163599307Y-52134861D01*
X163584928Y-52145716D01*
X163571866Y-52153823D01*
X163559333Y-52159739D01*
X163546537Y-52164022D01*
X163532691Y-52167229D01*
X163520831Y-52169315D01*
X163490250Y-52171724D01*
X163461030Y-52168526D01*
X163432008Y-52159370D01*
X163402019Y-52143903D01*
X163374386Y-52125153D01*
X163307280Y-52079885D01*
X163237232Y-52041663D01*
X163164189Y-52010463D01*
X163100281Y-51989604D01*
X163030481Y-51973436D01*
X162957742Y-51963307D01*
X162883588Y-51959246D01*
X162809547Y-51961282D01*
X162737144Y-51969444D01*
X162676631Y-51981562D01*
X162637058Y-51991931D01*
X162600590Y-52003058D01*
X162566082Y-52015498D01*
X162532386Y-52029801D01*
X162498358Y-52046522D01*
X162462850Y-52066213D01*
X162424717Y-52089427D01*
X162382813Y-52116716D01*
X162349329Y-52139427D01*
X162318452Y-52156518D01*
X162285397Y-52167311D01*
X162251611Y-52171509D01*
X162218542Y-52168811D01*
X162212900Y-52167599D01*
X162191573Y-52161619D01*
X162173585Y-52154027D01*
X162155785Y-52143299D01*
X162142228Y-52133472D01*
X162131864Y-52124837D01*
X162117560Y-52111831D01*
X162100267Y-52095422D01*
X162080937Y-52076572D01*
X162060523Y-52056248D01*
X162039975Y-52035413D01*
X162020245Y-52015033D01*
X162002286Y-51996073D01*
X161987049Y-51979496D01*
X161975486Y-51966269D01*
X161968674Y-51957542D01*
X161952081Y-51926544D01*
X161942289Y-51893314D01*
X161940027Y-51867819D01*
X162037543Y-51867819D01*
X162042442Y-51888545D01*
X162044550Y-51893066D01*
X162049625Y-51900207D01*
X162059330Y-51911560D01*
X162072792Y-51926259D01*
X162089138Y-51943442D01*
X162107495Y-51962244D01*
X162126992Y-51981800D01*
X162146755Y-52001246D01*
X162165912Y-52019718D01*
X162183591Y-52036353D01*
X162198919Y-52050284D01*
X162211023Y-52060649D01*
X162219031Y-52066583D01*
X162220540Y-52067386D01*
X162237861Y-52072034D01*
X162257126Y-52072999D01*
X162274368Y-52070134D01*
X162276280Y-52069462D01*
X162283683Y-52065579D01*
X162295353Y-52058260D01*
X162309464Y-52048686D01*
X162319505Y-52041503D01*
X162389832Y-51994712D01*
X162463243Y-51954789D01*
X162539324Y-51921809D01*
X162617664Y-51895847D01*
X162697851Y-51876978D01*
X162779471Y-51865276D01*
X162862113Y-51860817D01*
X162945363Y-51863674D01*
X163028811Y-51873922D01*
X163112043Y-51891637D01*
X163125909Y-51895333D01*
X163199873Y-51919370D01*
X163272647Y-51950397D01*
X163342834Y-51987770D01*
X163389475Y-52017224D01*
X163414654Y-52034205D01*
X163434414Y-52047369D01*
X163449651Y-52057202D01*
X163461261Y-52064189D01*
X163470139Y-52068814D01*
X163477180Y-52071564D01*
X163483280Y-52072922D01*
X163489334Y-52073376D01*
X163493179Y-52073415D01*
X163506701Y-52072548D01*
X163518873Y-52070377D01*
X163521999Y-52069412D01*
X163527321Y-52065760D01*
X163537119Y-52057442D01*
X163550555Y-52045280D01*
X163566791Y-52030099D01*
X163584991Y-52012722D01*
X163604315Y-51993972D01*
X163623927Y-51974673D01*
X163642989Y-51955649D01*
X163660663Y-51937723D01*
X163676112Y-51921719D01*
X163688498Y-51908460D01*
X163696983Y-51898769D01*
X163700548Y-51893869D01*
X163707541Y-51872373D01*
X163707533Y-51849831D01*
X163700687Y-51827843D01*
X163692326Y-51814176D01*
X163684340Y-51805761D01*
X163670992Y-51794110D01*
X163653392Y-51780042D01*
X163632651Y-51764381D01*
X163609881Y-51747948D01*
X163586191Y-51731565D01*
X163562692Y-51716054D01*
X163543497Y-51704047D01*
X163455934Y-51655297D01*
X163365997Y-51613781D01*
X163273869Y-51579548D01*
X163179730Y-51552645D01*
X163083760Y-51533121D01*
X162986141Y-51521023D01*
X162887053Y-51516399D01*
X162835580Y-51516946D01*
X162737168Y-51523256D01*
X162642080Y-51536283D01*
X162549741Y-51556177D01*
X162459576Y-51583083D01*
X162371012Y-51617149D01*
X162283572Y-51658472D01*
X162248708Y-51677194D01*
X162214163Y-51697070D01*
X162180726Y-51717546D01*
X162149188Y-51738069D01*
X162120337Y-51758088D01*
X162094964Y-51777049D01*
X162073856Y-51794400D01*
X162057805Y-51809588D01*
X162047599Y-51822060D01*
X162046020Y-51824753D01*
X162038754Y-51845717D01*
X162037543Y-51867819D01*
X161940027Y-51867819D01*
X161939244Y-51858995D01*
X161942892Y-51824730D01*
G37*
G36*
X161461244Y-51323643D02*
G01*
X161475498Y-51290335D01*
X161481605Y-51280077D01*
X161491924Y-51266860D01*
X161508033Y-51250100D01*
X161529268Y-51230346D01*
X161554969Y-51208151D01*
X161584471Y-51184063D01*
X161617115Y-51158634D01*
X161652236Y-51132413D01*
X161689174Y-51105951D01*
X161701003Y-51097707D01*
X161804543Y-51030656D01*
X161912083Y-50970013D01*
X162023247Y-50915926D01*
X162137658Y-50868542D01*
X162254937Y-50828007D01*
X162374708Y-50794468D01*
X162496593Y-50768073D01*
X162583452Y-50753856D01*
X162626262Y-50748085D01*
X162665540Y-50743529D01*
X162703106Y-50740072D01*
X162740780Y-50737598D01*
X162780382Y-50735990D01*
X162823731Y-50735133D01*
X162872647Y-50734908D01*
X162879511Y-50734920D01*
X162931262Y-50735363D01*
X162977405Y-50736539D01*
X163019950Y-50738589D01*
X163060907Y-50741653D01*
X163102285Y-50745873D01*
X163146094Y-50751389D01*
X163177481Y-50755832D01*
X163298056Y-50777348D01*
X163417389Y-50806274D01*
X163535034Y-50842423D01*
X163650542Y-50885606D01*
X163763467Y-50935635D01*
X163873362Y-50992322D01*
X163979779Y-51055479D01*
X164082272Y-51124918D01*
X164118857Y-51151973D01*
X164155065Y-51179779D01*
X164185428Y-51204038D01*
X164210534Y-51225320D01*
X164230975Y-51244196D01*
X164247339Y-51261235D01*
X164260218Y-51277008D01*
X164270200Y-51292084D01*
X164276700Y-51304456D01*
X164282696Y-51318499D01*
X164286510Y-51331364D01*
X164288770Y-51345942D01*
X164290105Y-51365120D01*
X164290160Y-51366264D01*
X164289407Y-51399617D01*
X164283434Y-51429057D01*
X164271730Y-51456692D01*
X164265603Y-51467271D01*
X164259741Y-51474989D01*
X164249230Y-51487087D01*
X164234950Y-51502672D01*
X164217784Y-51520850D01*
X164198611Y-51540731D01*
X164178312Y-51561420D01*
X164157770Y-51582027D01*
X164137864Y-51601657D01*
X164119476Y-51619420D01*
X164103487Y-51634422D01*
X164090777Y-51645771D01*
X164083811Y-51651435D01*
X164053522Y-51669475D01*
X164020353Y-51680445D01*
X163984271Y-51684355D01*
X163982220Y-51684365D01*
X163962032Y-51683795D01*
X163944220Y-51681717D01*
X163927602Y-51677584D01*
X163910997Y-51670848D01*
X163893225Y-51660959D01*
X163873104Y-51647370D01*
X163849453Y-51629532D01*
X163828812Y-51613135D01*
X163742352Y-51548091D01*
X163653205Y-51490084D01*
X163561162Y-51439026D01*
X163466011Y-51394827D01*
X163367542Y-51357398D01*
X163265543Y-51326648D01*
X163159805Y-51302489D01*
X163059057Y-51286009D01*
X163025829Y-51282426D01*
X162986833Y-51279677D01*
X162943779Y-51277771D01*
X162898382Y-51276720D01*
X162852352Y-51276532D01*
X162807402Y-51277219D01*
X162765245Y-51278790D01*
X162727591Y-51281256D01*
X162701876Y-51283878D01*
X162591979Y-51301146D01*
X162485358Y-51325200D01*
X162382135Y-51355991D01*
X162282429Y-51393467D01*
X162186359Y-51437580D01*
X162094047Y-51488280D01*
X162005611Y-51545515D01*
X161921918Y-51608632D01*
X161897564Y-51628192D01*
X161878001Y-51643382D01*
X161862272Y-51654858D01*
X161849415Y-51663277D01*
X161838471Y-51669297D01*
X161828481Y-51673575D01*
X161825602Y-51674592D01*
X161792470Y-51682272D01*
X161756839Y-51684226D01*
X161739251Y-51683000D01*
X161710150Y-51676296D01*
X161685770Y-51666151D01*
X161677135Y-51661691D01*
X161668916Y-51656776D01*
X161660346Y-51650737D01*
X161650656Y-51642907D01*
X161639081Y-51632617D01*
X161624852Y-51619198D01*
X161607202Y-51601982D01*
X161585363Y-51580300D01*
X161572709Y-51567651D01*
X161542767Y-51537348D01*
X161518411Y-51511967D01*
X161499511Y-51491363D01*
X161485934Y-51475392D01*
X161477549Y-51463908D01*
X161476335Y-51461877D01*
X161461692Y-51428423D01*
X161454314Y-51393615D01*
X161454261Y-51380447D01*
X161552355Y-51380447D01*
X161556244Y-51400515D01*
X161559394Y-51407910D01*
X161564470Y-51415051D01*
X161574175Y-51426404D01*
X161587636Y-51441104D01*
X161603982Y-51458286D01*
X161622340Y-51477088D01*
X161641836Y-51496644D01*
X161661599Y-51516090D01*
X161680757Y-51534563D01*
X161698435Y-51551197D01*
X161713763Y-51565129D01*
X161725867Y-51575494D01*
X161733875Y-51581428D01*
X161735385Y-51582230D01*
X161756626Y-51587523D01*
X161778692Y-51586413D01*
X161791001Y-51582681D01*
X161798624Y-51578356D01*
X161810725Y-51570159D01*
X161825904Y-51559096D01*
X161842759Y-51546173D01*
X161851045Y-51539594D01*
X161941783Y-51471319D01*
X162035110Y-51410221D01*
X162131135Y-51356253D01*
X162229966Y-51309372D01*
X162331712Y-51269534D01*
X162436480Y-51236692D01*
X162544380Y-51210804D01*
X162655518Y-51191823D01*
X162711426Y-51185006D01*
X162741197Y-51182498D01*
X162776633Y-51180582D01*
X162815919Y-51179269D01*
X162857241Y-51178573D01*
X162898784Y-51178506D01*
X162938734Y-51179080D01*
X162975277Y-51180307D01*
X163006599Y-51182201D01*
X163015126Y-51182940D01*
X163067072Y-51188827D01*
X163122613Y-51196825D01*
X163178316Y-51206380D01*
X163230750Y-51216938D01*
X163243974Y-51219905D01*
X163274989Y-51227693D01*
X163310888Y-51237785D01*
X163349706Y-51249546D01*
X163389477Y-51262338D01*
X163428235Y-51275523D01*
X163464015Y-51288465D01*
X163494849Y-51300527D01*
X163502192Y-51303601D01*
X163602808Y-51350567D01*
X163700118Y-51404220D01*
X163793491Y-51464173D01*
X163882296Y-51530044D01*
X163908091Y-51551016D01*
X163928062Y-51566839D01*
X163944294Y-51577734D01*
X163958190Y-51584422D01*
X163971156Y-51587624D01*
X163980539Y-51588175D01*
X163989423Y-51587601D01*
X163998069Y-51585631D01*
X164007173Y-51581735D01*
X164017430Y-51575383D01*
X164029537Y-51566043D01*
X164044190Y-51553185D01*
X164062084Y-51536279D01*
X164083917Y-51514793D01*
X164106392Y-51492230D01*
X164129942Y-51468365D01*
X164148628Y-51449167D01*
X164163041Y-51433956D01*
X164173772Y-51422047D01*
X164181412Y-51412760D01*
X164186551Y-51405413D01*
X164189781Y-51399323D01*
X164191693Y-51393809D01*
X164191701Y-51393780D01*
X164194087Y-51370341D01*
X164189199Y-51347249D01*
X164185616Y-51339221D01*
X164178398Y-51329371D01*
X164165403Y-51316006D01*
X164147341Y-51299650D01*
X164124917Y-51280828D01*
X164098842Y-51260065D01*
X164069821Y-51237886D01*
X164038565Y-51214816D01*
X164005779Y-51191381D01*
X163972174Y-51168104D01*
X163938455Y-51145511D01*
X163905332Y-51124126D01*
X163873513Y-51104476D01*
X163851733Y-51091653D01*
X163755074Y-51040003D01*
X163653568Y-50993203D01*
X163548486Y-50951692D01*
X163441098Y-50915909D01*
X163332676Y-50886294D01*
X163224490Y-50863287D01*
X163162201Y-50853122D01*
X163044135Y-50839619D01*
X162925271Y-50832988D01*
X162806745Y-50833241D01*
X162689696Y-50840390D01*
X162625473Y-50847378D01*
X162506888Y-50866147D01*
X162389395Y-50892223D01*
X162273561Y-50925395D01*
X162159955Y-50965451D01*
X162049143Y-51012178D01*
X161941692Y-51065365D01*
X161838170Y-51124800D01*
X161775594Y-51165107D01*
X161745116Y-51186085D01*
X161714599Y-51207969D01*
X161684788Y-51230155D01*
X161656427Y-51252039D01*
X161630261Y-51273018D01*
X161607034Y-51292487D01*
X161587490Y-51309843D01*
X161572374Y-51324482D01*
X161562430Y-51335800D01*
X161559376Y-51340506D01*
X161553399Y-51359326D01*
X161552355Y-51380447D01*
X161454261Y-51380447D01*
X161454173Y-51358379D01*
X161461244Y-51323643D01*
G37*
G36*
X162275440Y-52518799D02*
G01*
X162279741Y-52523025D01*
X162286372Y-52532502D01*
X162294277Y-52545633D01*
X162299375Y-52554951D01*
X162307413Y-52569476D01*
X162314665Y-52581291D01*
X162320130Y-52588829D01*
X162322209Y-52590680D01*
X162327558Y-52589921D01*
X162338071Y-52586359D01*
X162352081Y-52580610D01*
X162363690Y-52575326D01*
X162379680Y-52568233D01*
X162393894Y-52562802D01*
X162404466Y-52559697D01*
X162408707Y-52559265D01*
X162413947Y-52561905D01*
X162420477Y-52569017D01*
X162428948Y-52581440D01*
X162439231Y-52598658D01*
X162447991Y-52614431D01*
X162455093Y-52628275D01*
X162459752Y-52638590D01*
X162461208Y-52643497D01*
X162459337Y-52648323D01*
X162453236Y-52654278D01*
X162442172Y-52661881D01*
X162425411Y-52671651D01*
X162408274Y-52680916D01*
X162396029Y-52687913D01*
X162386700Y-52694205D01*
X162382190Y-52698497D01*
X162382108Y-52698680D01*
X162383047Y-52703881D01*
X162387052Y-52714140D01*
X162393443Y-52727860D01*
X162399706Y-52740046D01*
X162409499Y-52758949D01*
X162415604Y-52772570D01*
X162418303Y-52782153D01*
X162417880Y-52788943D01*
X162414618Y-52794185D01*
X162412501Y-52796196D01*
X162405630Y-52801268D01*
X162394275Y-52808737D01*
X162379880Y-52817745D01*
X162363890Y-52827437D01*
X162347749Y-52836955D01*
X162332902Y-52845442D01*
X162320794Y-52852043D01*
X162312868Y-52855899D01*
X162310773Y-52856540D01*
X162303852Y-52853831D01*
X162301664Y-52851765D01*
X162298479Y-52846566D01*
X162292772Y-52836098D01*
X162285390Y-52821949D01*
X162278241Y-52807833D01*
X162267999Y-52788454D01*
X162259878Y-52775476D01*
X162254090Y-52769223D01*
X162252506Y-52768677D01*
X162247012Y-52770420D01*
X162236267Y-52775195D01*
X162221701Y-52782323D01*
X162204741Y-52791124D01*
X162200292Y-52793508D01*
X162179424Y-52804553D01*
X162164087Y-52812046D01*
X162153233Y-52816322D01*
X162145813Y-52817714D01*
X162140780Y-52816558D01*
X162137383Y-52813564D01*
X162133050Y-52806515D01*
X162126945Y-52794419D01*
X162119806Y-52779008D01*
X162112374Y-52762012D01*
X162105388Y-52745161D01*
X162099586Y-52730186D01*
X162095709Y-52718817D01*
X162094476Y-52713129D01*
X162095090Y-52708836D01*
X162097644Y-52704853D01*
X162103205Y-52700445D01*
X162112841Y-52694877D01*
X162127619Y-52687415D01*
X162141705Y-52680619D01*
X162159391Y-52671926D01*
X162174759Y-52663937D01*
X162186387Y-52657425D01*
X162192849Y-52653160D01*
X162193477Y-52652552D01*
X162194934Y-52648625D01*
X162193904Y-52642185D01*
X162189978Y-52631965D01*
X162182748Y-52616701D01*
X162180410Y-52612016D01*
X162173088Y-52596449D01*
X162167504Y-52582672D01*
X162164366Y-52572547D01*
X162163975Y-52568797D01*
X162165806Y-52564924D01*
X162170838Y-52560614D01*
X162180034Y-52555321D01*
X162194359Y-52548497D01*
X162214775Y-52539595D01*
X162217239Y-52538548D01*
X162236531Y-52530688D01*
X162253329Y-52524455D01*
X162266305Y-52520300D01*
X162274130Y-52518675D01*
X162275440Y-52518799D01*
G37*
G36*
X162757940Y-52751997D02*
G01*
X162767444Y-52757721D01*
X162775775Y-52768294D01*
X162781098Y-52780956D01*
X162782084Y-52788310D01*
X162781006Y-52796133D01*
X162777149Y-52803114D01*
X162769611Y-52809899D01*
X162757494Y-52817131D01*
X162739896Y-52825454D01*
X162716431Y-52835306D01*
X162692081Y-52844910D01*
X162673542Y-52851405D01*
X162659723Y-52854955D01*
X162649530Y-52855725D01*
X162641873Y-52853879D01*
X162635658Y-52849582D01*
X162633838Y-52847761D01*
X162625786Y-52834936D01*
X162622517Y-52820281D01*
X162624611Y-52806798D01*
X162625524Y-52804873D01*
X162631037Y-52799902D01*
X162642338Y-52793289D01*
X162657915Y-52785639D01*
X162676253Y-52777556D01*
X162695841Y-52769643D01*
X162715163Y-52762507D01*
X162732708Y-52756750D01*
X162746960Y-52752977D01*
X162756407Y-52751793D01*
X162757940Y-52751997D01*
G37*
G36*
X162982421Y-52663224D02*
G01*
X162992223Y-52669208D01*
X162999391Y-52679974D01*
X163003037Y-52692889D01*
X163002273Y-52705319D01*
X162998890Y-52712016D01*
X162993271Y-52716011D01*
X162982188Y-52721797D01*
X162967393Y-52728646D01*
X162950633Y-52735831D01*
X162933661Y-52742624D01*
X162918225Y-52748300D01*
X162906076Y-52752129D01*
X162899322Y-52753397D01*
X162889593Y-52750639D01*
X162883971Y-52746463D01*
X162878270Y-52737912D01*
X162873350Y-52727061D01*
X162873337Y-52727023D01*
X162871307Y-52717525D01*
X162872971Y-52709369D01*
X162879087Y-52701874D01*
X162890413Y-52694362D01*
X162907706Y-52686154D01*
X162928132Y-52677942D01*
X162951086Y-52669599D01*
X162967791Y-52664631D01*
X162978779Y-52662895D01*
X162982421Y-52663224D01*
G37*
G36*
X163045464Y-52464616D02*
G01*
X163069702Y-52470706D01*
X163089448Y-52481335D01*
X163103855Y-52495816D01*
X163112078Y-52513466D01*
X163113255Y-52519593D01*
X163111835Y-52535479D01*
X163104092Y-52549691D01*
X163091281Y-52561546D01*
X163074654Y-52570360D01*
X163055465Y-52575449D01*
X163034969Y-52576131D01*
X163016424Y-52572405D01*
X162993844Y-52562160D01*
X162977652Y-52548394D01*
X162968122Y-52531419D01*
X162965464Y-52514379D01*
X162969033Y-52499488D01*
X162978791Y-52486122D01*
X162993310Y-52475167D01*
X163011167Y-52467511D01*
X163030935Y-52464039D01*
X163045464Y-52464616D01*
G37*
G36*
X162872795Y-52414695D02*
G01*
X162888524Y-52422147D01*
X162904913Y-52435676D01*
X162914393Y-52450462D01*
X162917694Y-52467685D01*
X162917713Y-52469277D01*
X162914257Y-52485615D01*
X162904728Y-52499339D01*
X162890384Y-52509983D01*
X162872485Y-52517083D01*
X162852288Y-52520174D01*
X162831051Y-52518793D01*
X162810034Y-52512474D01*
X162805914Y-52510549D01*
X162788098Y-52498404D01*
X162776473Y-52483636D01*
X162771031Y-52467483D01*
X162771760Y-52451180D01*
X162778650Y-52435964D01*
X162791692Y-52423071D01*
X162806697Y-52415201D01*
X162828016Y-52410245D01*
X162850985Y-52410156D01*
X162872795Y-52414695D01*
G37*
G36*
X163118663Y-52323400D02*
G01*
X163139280Y-52332691D01*
X163156512Y-52346989D01*
X163157900Y-52348589D01*
X163165929Y-52363670D01*
X163167889Y-52381040D01*
X163163602Y-52398123D01*
X163161590Y-52401951D01*
X163150063Y-52414504D01*
X163133220Y-52423853D01*
X163112911Y-52429441D01*
X163090987Y-52430712D01*
X163073935Y-52428343D01*
X163058739Y-52422208D01*
X163043848Y-52411988D01*
X163031505Y-52399597D01*
X163023947Y-52386954D01*
X163023333Y-52385041D01*
X163021337Y-52367403D01*
X163026205Y-52351874D01*
X163036323Y-52338981D01*
X163053489Y-52326905D01*
X163074067Y-52320372D01*
X163096358Y-52319249D01*
X163118663Y-52323400D01*
G37*
G36*
X162911843Y-52268549D02*
G01*
X162931397Y-52276065D01*
X162946989Y-52287126D01*
X162953919Y-52295729D01*
X162960320Y-52312105D01*
X162961238Y-52329449D01*
X162956701Y-52345114D01*
X162953349Y-52350338D01*
X162939355Y-52362407D01*
X162920441Y-52370633D01*
X162898507Y-52374618D01*
X162875451Y-52373961D01*
X162858681Y-52370220D01*
X162848146Y-52364963D01*
X162836328Y-52356377D01*
X162830985Y-52351509D01*
X162822231Y-52341856D01*
X162817920Y-52333561D01*
X162816546Y-52323186D01*
X162816479Y-52318418D01*
X162819291Y-52299930D01*
X162828120Y-52285463D01*
X162843558Y-52274158D01*
X162848650Y-52271665D01*
X162868547Y-52265909D01*
X162890252Y-52265017D01*
X162911843Y-52268549D01*
G37*
G36*
X161223370Y-52791610D02*
G01*
X161262839Y-52791657D01*
X161295806Y-52791757D01*
X161322841Y-52791925D01*
X161344512Y-52792179D01*
X161361388Y-52792536D01*
X161374039Y-52793012D01*
X161383034Y-52793625D01*
X161388941Y-52794390D01*
X161392331Y-52795325D01*
X161393772Y-52796447D01*
X161393833Y-52797773D01*
X161393751Y-52798009D01*
X161391542Y-52803245D01*
X161386713Y-52814377D01*
X161379738Y-52830318D01*
X161371095Y-52849980D01*
X161361261Y-52872275D01*
X161356096Y-52883956D01*
X161320901Y-52963492D01*
X160887215Y-52963504D01*
X160892311Y-52951088D01*
X160895284Y-52943824D01*
X160900620Y-52930772D01*
X160907793Y-52913217D01*
X160916277Y-52892445D01*
X160925547Y-52869740D01*
X160927428Y-52865135D01*
X160957449Y-52791598D01*
X161176830Y-52791598D01*
X161223370Y-52791610D01*
G37*
G36*
X161353940Y-52455539D02*
G01*
X161391285Y-52455619D01*
X161425568Y-52455757D01*
X161456107Y-52455947D01*
X161482221Y-52456183D01*
X161503228Y-52456460D01*
X161518445Y-52456771D01*
X161527191Y-52457112D01*
X161529098Y-52457369D01*
X161527457Y-52461172D01*
X161522839Y-52470874D01*
X161515696Y-52485547D01*
X161506483Y-52504263D01*
X161495653Y-52526095D01*
X161485151Y-52547142D01*
X161441203Y-52634973D01*
X161234932Y-52634973D01*
X161196034Y-52634923D01*
X161159529Y-52634779D01*
X161126115Y-52634551D01*
X161096486Y-52634248D01*
X161071339Y-52633880D01*
X161051370Y-52633455D01*
X161037274Y-52632983D01*
X161029749Y-52632474D01*
X161028662Y-52632189D01*
X161030044Y-52628019D01*
X161033930Y-52617775D01*
X161039927Y-52602453D01*
X161047643Y-52583048D01*
X161056685Y-52560556D01*
X161063998Y-52542512D01*
X161099334Y-52455620D01*
X161314216Y-52455524D01*
X161353940Y-52455539D01*
G37*
G36*
X164737629Y-52465902D02*
G01*
X164735114Y-52472480D01*
X164730229Y-52484949D01*
X164723448Y-52502110D01*
X164715244Y-52522765D01*
X164706093Y-52545714D01*
X164702481Y-52554750D01*
X164671149Y-52633063D01*
X164452447Y-52634049D01*
X164404365Y-52634235D01*
X164363428Y-52634319D01*
X164329141Y-52634293D01*
X164301009Y-52634148D01*
X164278536Y-52633875D01*
X164261229Y-52633466D01*
X164248591Y-52632913D01*
X164240129Y-52632205D01*
X164235347Y-52631336D01*
X164233751Y-52630296D01*
X164233745Y-52630224D01*
X164234992Y-52625391D01*
X164238489Y-52614451D01*
X164243872Y-52598472D01*
X164250778Y-52578525D01*
X164258843Y-52555681D01*
X164263961Y-52541375D01*
X164294178Y-52457337D01*
X164517811Y-52456352D01*
X164741445Y-52455366D01*
X164737629Y-52465902D01*
G37*
D11*
%TO.C,U2*%
X140576000Y-69084800D02*
X141576000Y-69084800D01*
X140576000Y-68304800D02*
X140576000Y-69084800D01*
X140576000Y-49759800D02*
X140196000Y-49759800D01*
X158816000Y-69084800D02*
X157816000Y-69084800D01*
X158816000Y-68304800D02*
X158816000Y-69084800D01*
X140576000Y-43344800D02*
X140576000Y-49759800D01*
X140576000Y-43344800D02*
X158816000Y-43344800D01*
X158816000Y-43344800D02*
X158816000Y-49759800D01*
%TO.C,U1*%
X131667200Y-57934800D02*
X132927200Y-57934800D01*
X138487200Y-57934800D02*
X137227200Y-57934800D01*
X138487200Y-61694800D02*
X138487200Y-57934800D01*
X131667200Y-63944800D02*
X131667200Y-57934800D01*
%TO.C,JP1*%
X136377200Y-58444800D02*
X138377200Y-58444800D01*
X136377200Y-61244800D02*
X136377200Y-58444800D01*
X138377200Y-61244800D02*
X136377200Y-61244800D01*
X138377200Y-58444800D02*
X138377200Y-61244800D01*
%TO.C,J1*%
X133869400Y-72865800D02*
X165929400Y-72865800D01*
X133869400Y-72865800D02*
X133869400Y-70745800D01*
X133869400Y-70745800D02*
X165929400Y-70745800D01*
X131809400Y-71805800D02*
X131809400Y-70745800D01*
X131809400Y-70745800D02*
X132869400Y-70745800D01*
X165929400Y-72865800D02*
X165929400Y-70745800D01*
%TO.C,C2*%
X135812200Y-66203548D02*
X135812200Y-66726052D01*
X134342200Y-66203548D02*
X134342200Y-66726052D01*
%TO.C,C1*%
X138112200Y-66203548D02*
X138112200Y-66726052D01*
X136642200Y-66203548D02*
X136642200Y-66726052D01*
%TD*%
D12*
%TO.C,U2*%
X158446000Y-54764800D03*
X158446000Y-58574800D03*
X158446000Y-63654800D03*
X158446000Y-66194800D03*
X158446000Y-67464800D03*
D13*
X155416000Y-68714800D03*
X154146000Y-68714800D03*
X152876000Y-68714800D03*
X151606000Y-68714800D03*
X150336000Y-68714800D03*
X149066000Y-68714800D03*
X147796000Y-68714800D03*
X146526000Y-68714800D03*
X145256000Y-68714800D03*
X143986000Y-68714800D03*
D12*
X140946000Y-67464800D03*
X140946000Y-66194800D03*
X140946000Y-57304800D03*
X140946000Y-56034800D03*
%TD*%
M02*
