%TF.GenerationSoftware,KiCad,Pcbnew,(6.0.8)*%
%TF.CreationDate,2023-06-07T12:36:53+01:00*%
%TF.ProjectId,BlueRetro_Universal_HW1_3v3,426c7565-5265-4747-926f-5f556e697665,rev?*%
%TF.SameCoordinates,Original*%
%TF.FileFunction,Copper,L1,Top*%
%TF.FilePolarity,Positive*%
%FSLAX46Y46*%
G04 Gerber Fmt 4.6, Leading zero omitted, Abs format (unit mm)*
G04 Created by KiCad (PCBNEW (6.0.8)) date 2023-06-07 12:36:53*
%MOMM*%
%LPD*%
G01*
G04 APERTURE LIST*
G04 Aperture macros list*
%AMRoundRect*
0 Rectangle with rounded corners*
0 $1 Rounding radius*
0 $2 $3 $4 $5 $6 $7 $8 $9 X,Y pos of 4 corners*
0 Add a 4 corners polygon primitive as box body*
4,1,4,$2,$3,$4,$5,$6,$7,$8,$9,$2,$3,0*
0 Add four circle primitives for the rounded corners*
1,1,$1+$1,$2,$3*
1,1,$1+$1,$4,$5*
1,1,$1+$1,$6,$7*
1,1,$1+$1,$8,$9*
0 Add four rect primitives between the rounded corners*
20,1,$1+$1,$2,$3,$4,$5,0*
20,1,$1+$1,$4,$5,$6,$7,0*
20,1,$1+$1,$6,$7,$8,$9,0*
20,1,$1+$1,$8,$9,$2,$3,0*%
G04 Aperture macros list end*
%TA.AperFunction,ComponentPad*%
%ADD10C,0.475000*%
%TD*%
%TA.AperFunction,SMDPad,CuDef*%
%ADD11R,1.050000X1.050000*%
%TD*%
%TA.AperFunction,SMDPad,CuDef*%
%ADD12R,4.200000X4.200000*%
%TD*%
%TA.AperFunction,SMDPad,CuDef*%
%ADD13R,1.500000X0.900000*%
%TD*%
%TA.AperFunction,SMDPad,CuDef*%
%ADD14R,1.500000X2.000000*%
%TD*%
%TA.AperFunction,SMDPad,CuDef*%
%ADD15R,3.800000X2.000000*%
%TD*%
%TA.AperFunction,SMDPad,CuDef*%
%ADD16R,1.500000X1.000000*%
%TD*%
%TA.AperFunction,SMDPad,CuDef*%
%ADD17O,1.350000X1.350000*%
%TD*%
%TA.AperFunction,SMDPad,CuDef*%
%ADD18R,1.350000X1.350000*%
%TD*%
%TA.AperFunction,SMDPad,CuDef*%
%ADD19RoundRect,0.250000X-0.475000X0.250000X-0.475000X-0.250000X0.475000X-0.250000X0.475000X0.250000X0*%
%TD*%
%TA.AperFunction,ViaPad*%
%ADD20C,0.800000*%
%TD*%
%TA.AperFunction,Conductor*%
%ADD21C,0.250000*%
%TD*%
G04 APERTURE END LIST*
D10*
%TO.P,U2,39,GND*%
%TO.N,GND*%
X149016000Y-57532300D03*
D11*
X149016000Y-58294800D03*
D10*
X150541000Y-59057300D03*
D12*
X149016000Y-58294800D03*
D10*
X148253500Y-58294800D03*
D11*
X149016000Y-56769800D03*
D10*
X149778500Y-58294800D03*
D11*
X150541000Y-56769800D03*
X147491000Y-59819800D03*
X147491000Y-58294800D03*
X150541000Y-58294800D03*
D10*
X149016000Y-59057300D03*
X150541000Y-57532300D03*
X148253500Y-56769800D03*
X148253500Y-59819800D03*
D11*
X149016000Y-59819800D03*
X150541000Y-59819800D03*
D10*
X147491000Y-59057300D03*
X149778500Y-56769800D03*
D11*
X147491000Y-56769800D03*
D10*
X149778500Y-59819800D03*
X147491000Y-57532300D03*
D13*
%TO.P,U2,38,GND*%
X158446000Y-50954800D03*
%TO.P,U2,37,IO23*%
%TO.N,IO23*%
X158446000Y-52224800D03*
%TO.P,U2,36,IO22*%
%TO.N,IO22*%
X158446000Y-53494800D03*
%TO.P,U2,34,RXD0/IO3*%
%TO.N,IO3*%
X158446000Y-56034800D03*
%TO.P,U2,33,IO21*%
%TO.N,IO21*%
X158446000Y-57304800D03*
%TO.P,U2,31,IO19*%
%TO.N,IO19*%
X158446000Y-59844800D03*
%TO.P,U2,30,IO18*%
%TO.N,IO18*%
X158446000Y-61114800D03*
%TO.P,U2,29,IO5*%
%TO.N,IO5*%
X158446000Y-62384800D03*
%TO.P,U2,27,IO16*%
%TO.N,IO16*%
X158446000Y-64924800D03*
%TO.P,U2,12,IO27*%
%TO.N,IO27*%
X140946000Y-64924800D03*
%TO.P,U2,11,IO26*%
%TO.N,IO26*%
X140946000Y-63654800D03*
%TO.P,U2,10,IO25*%
%TO.N,IO25*%
X140946000Y-62384800D03*
%TO.P,U2,9,IO33*%
%TO.N,IO33*%
X140946000Y-61114800D03*
%TO.P,U2,8,IO32*%
%TO.N,IO32*%
X140946000Y-59844800D03*
%TO.P,U2,7,IO35*%
%TO.N,IO35*%
X140946000Y-58574800D03*
%TO.P,U2,4,SENSOR_VP*%
%TO.N,IO36*%
X140946000Y-54764800D03*
%TO.P,U2,3,EN*%
%TO.N,+3V3*%
X140946000Y-53494800D03*
%TO.P,U2,2,VDD*%
X140946000Y-52224800D03*
%TO.P,U2,1,GND*%
%TO.N,GND*%
X140946000Y-50954800D03*
%TD*%
D14*
%TO.P,U1,3,VI*%
%TO.N,+5V*%
X137377200Y-62994800D03*
%TO.P,U1,2,VO*%
%TO.N,+3V3*%
X135077200Y-62994800D03*
D15*
X135077200Y-56694800D03*
D14*
%TO.P,U1,1,GND*%
%TO.N,GND*%
X132777200Y-62994800D03*
%TD*%
D16*
%TO.P,JP1,2,B*%
%TO.N,+3V3*%
X137377200Y-59194800D03*
%TO.P,JP1,1,A*%
%TO.N,+5V*%
X137377200Y-60494800D03*
%TD*%
D17*
%TO.P,J1,17,Pin_17*%
%TO.N,GND*%
X164869400Y-71805800D03*
%TO.P,J1,16,Pin_16*%
%TO.N,IO16*%
X162869400Y-71805800D03*
%TO.P,J1,15,Pin_15*%
%TO.N,IO5*%
X160869400Y-71805800D03*
%TO.P,J1,14,Pin_14*%
%TO.N,IO18*%
X158869400Y-71805800D03*
%TO.P,J1,13,Pin_13*%
%TO.N,IO19*%
X156869400Y-71805800D03*
%TO.P,J1,12,Pin_12*%
%TO.N,IO21*%
X154869400Y-71805800D03*
%TO.P,J1,11,Pin_11*%
%TO.N,IO3*%
X152869400Y-71805800D03*
%TO.P,J1,10,Pin_10*%
%TO.N,IO22*%
X150869400Y-71805800D03*
%TO.P,J1,9,Pin_9*%
%TO.N,IO23*%
X148869400Y-71805800D03*
%TO.P,J1,8,Pin_8*%
%TO.N,IO36*%
X146869400Y-71805800D03*
%TO.P,J1,7,Pin_7*%
%TO.N,IO35*%
X144869400Y-71805800D03*
%TO.P,J1,6,Pin_6*%
%TO.N,IO32*%
X142869400Y-71805800D03*
%TO.P,J1,5,Pin_5*%
%TO.N,IO33*%
X140869400Y-71805800D03*
%TO.P,J1,4,Pin_4*%
%TO.N,IO25*%
X138869400Y-71805800D03*
%TO.P,J1,3,Pin_3*%
%TO.N,IO26*%
X136869400Y-71805800D03*
%TO.P,J1,2,Pin_2*%
%TO.N,IO27*%
X134869400Y-71805800D03*
D18*
%TO.P,J1,1,Pin_1*%
%TO.N,+5V*%
X132869400Y-71805800D03*
%TD*%
D19*
%TO.P,C2,2*%
%TO.N,GND*%
X135077200Y-67414800D03*
%TO.P,C2,1*%
%TO.N,+3V3*%
X135077200Y-65514800D03*
%TD*%
%TO.P,C1,2*%
%TO.N,GND*%
X137377200Y-67414800D03*
%TO.P,C1,1*%
%TO.N,+5V*%
X137377200Y-65514800D03*
%TD*%
D20*
%TO.N,+5V*%
X132869400Y-69111400D03*
X137377200Y-65514800D03*
%TD*%
D21*
%TO.N,IO23*%
X149250400Y-71805800D02*
X148869400Y-71805800D01*
X154178000Y-66878200D02*
X149250400Y-71805800D01*
X157325200Y-52224800D02*
X154178000Y-55372000D01*
X158446000Y-52224800D02*
X157325200Y-52224800D01*
X154178000Y-55372000D02*
X154178000Y-66878200D01*
%TO.N,IO22*%
X157325200Y-53494800D02*
X154660600Y-56159400D01*
X154660600Y-56159400D02*
X154660600Y-68275200D01*
X151130000Y-71805800D02*
X150869400Y-71805800D01*
X158446000Y-53494800D02*
X157325200Y-53494800D01*
X154660600Y-68275200D02*
X151130000Y-71805800D01*
%TO.N,IO36*%
X145034000Y-69970400D02*
X146869400Y-71805800D01*
X145034000Y-60782200D02*
X145034000Y-69970400D01*
X140946000Y-56694200D02*
X145034000Y-60782200D01*
X140946000Y-54764800D02*
X140946000Y-56694200D01*
%TO.N,IO35*%
X144475200Y-61214000D02*
X144475200Y-71411600D01*
X141836000Y-58574800D02*
X144475200Y-61214000D01*
X144475200Y-71411600D02*
X144869400Y-71805800D01*
X140946000Y-58574800D02*
X141836000Y-58574800D01*
%TO.N,IO3*%
X154419400Y-70255800D02*
X152869400Y-71805800D01*
X155244800Y-57988200D02*
X155244800Y-69416804D01*
X155244800Y-69416804D02*
X154419400Y-70242204D01*
X157198200Y-56034800D02*
X155244800Y-57988200D01*
X158446000Y-56034800D02*
X157198200Y-56034800D01*
X154419400Y-70242204D02*
X154419400Y-70255800D01*
%TO.N,IO21*%
X154869400Y-70428600D02*
X154869400Y-71805800D01*
X155752800Y-69545200D02*
X154869400Y-70428600D01*
X155752800Y-58801000D02*
X155752800Y-69545200D01*
X157249000Y-57304800D02*
X155752800Y-58801000D01*
X158446000Y-57304800D02*
X157249000Y-57304800D01*
%TO.N,IO19*%
X156249800Y-70093000D02*
X156869400Y-70712600D01*
X156249800Y-60971000D02*
X156249800Y-70093000D01*
X156869400Y-70712600D02*
X156869400Y-71805800D01*
X157376000Y-59844800D02*
X156249800Y-60971000D01*
X158446000Y-59844800D02*
X157376000Y-59844800D01*
%TO.N,IO18*%
X156699800Y-69636200D02*
X158869400Y-71805800D01*
X156699800Y-61740200D02*
X156699800Y-69636200D01*
X157325200Y-61114800D02*
X156699800Y-61740200D01*
X158446000Y-61114800D02*
X157325200Y-61114800D01*
%TO.N,IO5*%
X157149800Y-68086200D02*
X160869400Y-71805800D01*
X157452200Y-62384800D02*
X157149800Y-62687200D01*
X157149800Y-62687200D02*
X157149800Y-68086200D01*
X158446000Y-62384800D02*
X157452200Y-62384800D01*
%TO.N,IO32*%
X143992600Y-66700400D02*
X142869400Y-67823600D01*
X143992600Y-61849000D02*
X143992600Y-66700400D01*
X142869400Y-67823600D02*
X142869400Y-71805800D01*
X141988400Y-59844800D02*
X143992600Y-61849000D01*
X140946000Y-59844800D02*
X141988400Y-59844800D01*
%TO.N,IO33*%
X140869400Y-68858400D02*
X140869400Y-71805800D01*
X143484600Y-66243200D02*
X140869400Y-68858400D01*
X141988400Y-61114800D02*
X143484600Y-62611000D01*
X140946000Y-61114800D02*
X141988400Y-61114800D01*
X143484600Y-62611000D02*
X143484600Y-66243200D01*
%TO.N,IO25*%
X142900400Y-65900300D02*
X138869400Y-69931300D01*
X141912200Y-62384800D02*
X142900400Y-63373000D01*
X142900400Y-63373000D02*
X142900400Y-65900300D01*
X138869400Y-69931300D02*
X138869400Y-71805800D01*
X140946000Y-62384800D02*
X141912200Y-62384800D01*
%TO.N,IO26*%
X139046800Y-68877600D02*
X137345000Y-68877600D01*
X142341600Y-65582800D02*
X139046800Y-68877600D01*
X142064600Y-63654800D02*
X142341600Y-63931800D01*
X142341600Y-63931800D02*
X142341600Y-65582800D01*
X140946000Y-63654800D02*
X142064600Y-63654800D01*
X137345000Y-68877600D02*
X136869400Y-69353200D01*
X136869400Y-69353200D02*
X136869400Y-71805800D01*
%TO.N,IO27*%
X134869400Y-68889400D02*
X134869400Y-71805800D01*
X135331200Y-68427600D02*
X134869400Y-68889400D01*
X138607800Y-68427600D02*
X135331200Y-68427600D01*
X140946000Y-66089400D02*
X138607800Y-68427600D01*
X140946000Y-64924800D02*
X140946000Y-66089400D01*
%TO.N,IO16*%
X158446000Y-67382400D02*
X162869400Y-71805800D01*
X158446000Y-64924800D02*
X158446000Y-67382400D01*
%TO.N,+3V3*%
X138277200Y-53494800D02*
X135077200Y-56694800D01*
X140946000Y-53494800D02*
X138277200Y-53494800D01*
X140946000Y-53494800D02*
X140946000Y-52224800D01*
%TO.N,+5V*%
X137377200Y-62994800D02*
X137377200Y-60494800D01*
X137377200Y-65514800D02*
X137377200Y-62994800D01*
%TO.N,+3V3*%
X137377200Y-59194800D02*
X135090000Y-59194800D01*
X135077200Y-59182000D02*
X135077200Y-56694800D01*
X135090000Y-59194800D02*
X135077200Y-59182000D01*
X135077200Y-62994800D02*
X135077200Y-59182000D01*
X135077200Y-65514800D02*
X135077200Y-62994800D01*
%TO.N,+5V*%
X132869400Y-71805800D02*
X132869400Y-69111400D01*
%TD*%
%TA.AperFunction,Conductor*%
%TO.N,GND*%
G36*
X139830415Y-49931502D02*
G01*
X139876908Y-49985158D01*
X139887012Y-50055432D01*
X139857518Y-50120012D01*
X139846623Y-50130162D01*
X139846626Y-50130165D01*
X139827715Y-50149076D01*
X139751214Y-50251151D01*
X139742676Y-50266746D01*
X139697522Y-50387194D01*
X139693895Y-50402449D01*
X139688369Y-50453314D01*
X139688000Y-50460128D01*
X139688000Y-50682685D01*
X139692475Y-50697924D01*
X139693865Y-50699129D01*
X139701548Y-50700800D01*
X142185884Y-50700800D01*
X142201123Y-50696325D01*
X142202328Y-50694935D01*
X142203999Y-50687252D01*
X142203999Y-50460131D01*
X142203629Y-50453310D01*
X142198105Y-50402448D01*
X142194479Y-50387196D01*
X142149324Y-50266746D01*
X142140786Y-50251151D01*
X142064285Y-50149076D01*
X142045374Y-50130165D01*
X142046898Y-50128641D01*
X142011624Y-50081462D01*
X142006602Y-50010643D01*
X142040664Y-49948351D01*
X142102997Y-49914363D01*
X142129706Y-49911500D01*
X157262294Y-49911500D01*
X157330415Y-49931502D01*
X157376908Y-49985158D01*
X157387012Y-50055432D01*
X157357518Y-50120012D01*
X157346623Y-50130162D01*
X157346626Y-50130165D01*
X157327715Y-50149076D01*
X157251214Y-50251151D01*
X157242676Y-50266746D01*
X157197522Y-50387194D01*
X157193895Y-50402449D01*
X157188369Y-50453314D01*
X157188000Y-50460128D01*
X157188000Y-50682685D01*
X157192475Y-50697924D01*
X157193865Y-50699129D01*
X157201548Y-50700800D01*
X159685884Y-50700800D01*
X159701123Y-50696325D01*
X159702328Y-50694935D01*
X159703999Y-50687252D01*
X159703999Y-50460131D01*
X159703629Y-50453310D01*
X159698105Y-50402448D01*
X159694479Y-50387196D01*
X159649324Y-50266746D01*
X159640786Y-50251151D01*
X159564285Y-50149076D01*
X159545374Y-50130165D01*
X159546898Y-50128641D01*
X159511624Y-50081462D01*
X159506602Y-50010643D01*
X159540664Y-49948351D01*
X159602997Y-49914363D01*
X159629706Y-49911500D01*
X165811700Y-49911500D01*
X165879821Y-49931502D01*
X165926314Y-49985158D01*
X165937700Y-50037500D01*
X165937700Y-70894142D01*
X165917698Y-70962263D01*
X165864042Y-71008756D01*
X165793768Y-71018860D01*
X165726171Y-70986667D01*
X165596890Y-70867161D01*
X165587765Y-70860160D01*
X165413655Y-70750305D01*
X165403408Y-70745084D01*
X165212193Y-70668797D01*
X165201167Y-70665530D01*
X165141170Y-70653597D01*
X165128294Y-70654749D01*
X165123400Y-70669902D01*
X165123400Y-71933800D01*
X165103398Y-72001921D01*
X165049742Y-72048414D01*
X164997400Y-72059800D01*
X164741400Y-72059800D01*
X164673279Y-72039798D01*
X164626786Y-71986142D01*
X164615400Y-71933800D01*
X164615400Y-70667137D01*
X164611594Y-70654175D01*
X164596678Y-70652239D01*
X164567602Y-70657235D01*
X164556482Y-70660215D01*
X164363340Y-70731469D01*
X164352962Y-70736419D01*
X164176039Y-70841677D01*
X164166727Y-70848443D01*
X164011947Y-70984181D01*
X164004029Y-70992525D01*
X163969717Y-71036049D01*
X163911836Y-71077161D01*
X163840916Y-71080455D01*
X163779473Y-71044883D01*
X163769810Y-71033431D01*
X163756133Y-71015115D01*
X163756132Y-71015114D01*
X163752680Y-71010491D01*
X163748444Y-71006575D01*
X163597196Y-70866763D01*
X163597193Y-70866761D01*
X163592956Y-70862844D01*
X163408999Y-70746776D01*
X163206972Y-70666176D01*
X162993639Y-70623741D01*
X162987864Y-70623665D01*
X162987860Y-70623665D01*
X162878819Y-70622238D01*
X162776146Y-70620894D01*
X162673403Y-70638549D01*
X162602878Y-70630372D01*
X162562969Y-70603464D01*
X159116405Y-67156900D01*
X159082379Y-67094588D01*
X159079500Y-67067805D01*
X159079500Y-66009300D01*
X159099502Y-65941179D01*
X159153158Y-65894686D01*
X159205500Y-65883300D01*
X159244134Y-65883300D01*
X159306316Y-65876545D01*
X159442705Y-65825415D01*
X159559261Y-65738061D01*
X159646615Y-65621505D01*
X159697745Y-65485116D01*
X159704500Y-65422934D01*
X159704500Y-64426666D01*
X159697745Y-64364484D01*
X159646615Y-64228095D01*
X159559261Y-64111539D01*
X159442705Y-64024185D01*
X159306316Y-63973055D01*
X159244134Y-63966300D01*
X157909300Y-63966300D01*
X157841179Y-63946298D01*
X157794686Y-63892642D01*
X157783300Y-63840300D01*
X157783300Y-63469300D01*
X157803302Y-63401179D01*
X157856958Y-63354686D01*
X157909300Y-63343300D01*
X159244134Y-63343300D01*
X159306316Y-63336545D01*
X159442705Y-63285415D01*
X159559261Y-63198061D01*
X159646615Y-63081505D01*
X159697745Y-62945116D01*
X159704500Y-62882934D01*
X159704500Y-61886666D01*
X159697745Y-61824484D01*
X159686328Y-61794029D01*
X159681145Y-61723223D01*
X159686326Y-61705576D01*
X159697745Y-61675116D01*
X159704500Y-61612934D01*
X159704500Y-60616666D01*
X159697745Y-60554484D01*
X159686328Y-60524029D01*
X159681145Y-60453223D01*
X159686326Y-60435576D01*
X159697745Y-60405116D01*
X159704500Y-60342934D01*
X159704500Y-59346666D01*
X159697745Y-59284484D01*
X159646615Y-59148095D01*
X159559261Y-59031539D01*
X159442705Y-58944185D01*
X159306316Y-58893055D01*
X159244134Y-58886300D01*
X157647866Y-58886300D01*
X157585684Y-58893055D01*
X157449295Y-58944185D01*
X157332739Y-59031539D01*
X157315656Y-59054333D01*
X157250767Y-59140913D01*
X157250765Y-59140916D01*
X157245385Y-59148095D01*
X157236022Y-59173070D01*
X157193383Y-59229833D01*
X157153195Y-59249837D01*
X157122407Y-59258782D01*
X157115585Y-59262816D01*
X157115579Y-59262819D01*
X157104968Y-59269094D01*
X157087218Y-59277790D01*
X157075756Y-59282328D01*
X157075751Y-59282331D01*
X157068383Y-59285248D01*
X157061968Y-59289909D01*
X157032625Y-59311227D01*
X157022707Y-59317743D01*
X157004019Y-59328795D01*
X156984637Y-59340258D01*
X156970313Y-59354582D01*
X156955281Y-59367421D01*
X156938893Y-59379328D01*
X156910712Y-59413393D01*
X156902722Y-59422173D01*
X156601395Y-59723500D01*
X156539083Y-59757526D01*
X156468268Y-59752461D01*
X156411432Y-59709914D01*
X156386621Y-59643394D01*
X156386300Y-59634405D01*
X156386300Y-59115594D01*
X156406302Y-59047473D01*
X156423205Y-59026499D01*
X157254868Y-58194836D01*
X157317180Y-58160810D01*
X157387995Y-58165875D01*
X157419523Y-58183102D01*
X157449295Y-58205415D01*
X157585684Y-58256545D01*
X157647866Y-58263300D01*
X159244134Y-58263300D01*
X159306316Y-58256545D01*
X159442705Y-58205415D01*
X159559261Y-58118061D01*
X159646615Y-58001505D01*
X159697745Y-57865116D01*
X159704500Y-57802934D01*
X159704500Y-56806666D01*
X159697745Y-56744484D01*
X159686328Y-56714029D01*
X159681145Y-56643223D01*
X159686326Y-56625576D01*
X159697745Y-56595116D01*
X159704500Y-56532934D01*
X159704500Y-55536666D01*
X159697745Y-55474484D01*
X159646615Y-55338095D01*
X159559261Y-55221539D01*
X159442705Y-55134185D01*
X159306316Y-55083055D01*
X159244134Y-55076300D01*
X157647866Y-55076300D01*
X157585684Y-55083055D01*
X157449295Y-55134185D01*
X157332739Y-55221539D01*
X157245385Y-55338095D01*
X157244716Y-55339881D01*
X157196973Y-55387513D01*
X157140675Y-55402794D01*
X157115778Y-55403577D01*
X157098311Y-55404126D01*
X157090697Y-55406338D01*
X157090692Y-55406339D01*
X157078859Y-55409777D01*
X157059496Y-55413788D01*
X157039403Y-55416326D01*
X157032036Y-55419243D01*
X157032031Y-55419244D01*
X156998292Y-55432602D01*
X156987065Y-55436446D01*
X156944607Y-55448782D01*
X156937781Y-55452819D01*
X156927172Y-55459093D01*
X156909424Y-55467788D01*
X156890583Y-55475248D01*
X156884167Y-55479910D01*
X156884166Y-55479910D01*
X156854813Y-55501236D01*
X156844893Y-55507752D01*
X156813665Y-55526220D01*
X156813662Y-55526222D01*
X156806838Y-55530258D01*
X156792517Y-55544579D01*
X156777484Y-55557419D01*
X156761093Y-55569328D01*
X156749417Y-55583442D01*
X156732902Y-55603405D01*
X156724912Y-55612184D01*
X155509195Y-56827900D01*
X155446883Y-56861926D01*
X155376067Y-56856861D01*
X155319232Y-56814314D01*
X155294421Y-56747794D01*
X155294100Y-56738805D01*
X155294100Y-56473994D01*
X155314102Y-56405873D01*
X155331005Y-56384899D01*
X157300223Y-54415681D01*
X157362535Y-54381655D01*
X157433350Y-54386720D01*
X157444494Y-54391817D01*
X157449295Y-54395415D01*
X157585684Y-54446545D01*
X157647866Y-54453300D01*
X159244134Y-54453300D01*
X159306316Y-54446545D01*
X159442705Y-54395415D01*
X159559261Y-54308061D01*
X159646615Y-54191505D01*
X159697745Y-54055116D01*
X159704500Y-53992934D01*
X159704500Y-52996666D01*
X159697745Y-52934484D01*
X159686328Y-52904029D01*
X159681145Y-52833223D01*
X159686326Y-52815576D01*
X159697745Y-52785116D01*
X159704500Y-52722934D01*
X159704500Y-51726666D01*
X159697745Y-51664484D01*
X159686061Y-51633317D01*
X159680878Y-51562512D01*
X159686061Y-51544857D01*
X159694479Y-51522402D01*
X159698105Y-51507151D01*
X159703631Y-51456286D01*
X159704000Y-51449472D01*
X159704000Y-51226915D01*
X159699525Y-51211676D01*
X159698135Y-51210471D01*
X159690452Y-51208800D01*
X157206116Y-51208800D01*
X157190877Y-51213275D01*
X157189672Y-51214665D01*
X157188001Y-51222348D01*
X157188001Y-51449469D01*
X157188370Y-51456286D01*
X157192598Y-51495206D01*
X157180069Y-51565089D01*
X157131748Y-51617104D01*
X157102490Y-51629809D01*
X157096636Y-51631510D01*
X157071607Y-51638782D01*
X157064781Y-51642819D01*
X157054172Y-51649093D01*
X157036424Y-51657788D01*
X157017583Y-51665248D01*
X157011167Y-51669910D01*
X157011166Y-51669910D01*
X156981813Y-51691236D01*
X156971893Y-51697752D01*
X156940665Y-51716220D01*
X156940662Y-51716222D01*
X156933838Y-51720258D01*
X156919517Y-51734579D01*
X156904484Y-51747419D01*
X156888093Y-51759328D01*
X156883042Y-51765434D01*
X156859902Y-51793405D01*
X156851912Y-51802184D01*
X153785747Y-54868348D01*
X153777461Y-54875888D01*
X153770982Y-54880000D01*
X153765557Y-54885777D01*
X153724357Y-54929651D01*
X153721602Y-54932493D01*
X153701865Y-54952230D01*
X153699385Y-54955427D01*
X153691682Y-54964447D01*
X153661414Y-54996679D01*
X153657595Y-55003625D01*
X153657593Y-55003628D01*
X153651652Y-55014434D01*
X153640801Y-55030953D01*
X153628386Y-55046959D01*
X153625241Y-55054228D01*
X153625238Y-55054232D01*
X153610826Y-55087537D01*
X153605609Y-55098187D01*
X153584305Y-55136940D01*
X153582334Y-55144615D01*
X153582334Y-55144616D01*
X153579267Y-55156562D01*
X153572863Y-55175266D01*
X153564819Y-55193855D01*
X153563580Y-55201678D01*
X153563577Y-55201688D01*
X153557901Y-55237524D01*
X153555495Y-55249144D01*
X153547387Y-55280725D01*
X153544500Y-55291970D01*
X153544500Y-55312224D01*
X153542949Y-55331934D01*
X153539780Y-55351943D01*
X153540526Y-55359835D01*
X153543941Y-55395961D01*
X153544500Y-55407819D01*
X153544500Y-66563606D01*
X153524498Y-66631727D01*
X153507595Y-66652701D01*
X149470922Y-70689373D01*
X149408610Y-70723399D01*
X149335137Y-70717308D01*
X149212341Y-70668318D01*
X149206972Y-70666176D01*
X148993639Y-70623741D01*
X148987864Y-70623665D01*
X148987860Y-70623665D01*
X148878819Y-70622238D01*
X148776146Y-70620894D01*
X148770449Y-70621873D01*
X148770448Y-70621873D01*
X148567465Y-70656752D01*
X148567462Y-70656753D01*
X148561775Y-70657730D01*
X148357707Y-70733014D01*
X148331636Y-70748525D01*
X148181448Y-70837878D01*
X148170776Y-70844227D01*
X148007242Y-70987642D01*
X148003670Y-70992172D01*
X148003669Y-70992174D01*
X147969407Y-71035634D01*
X147911525Y-71076747D01*
X147840605Y-71080039D01*
X147779163Y-71044467D01*
X147769500Y-71033015D01*
X147756137Y-71015119D01*
X147756130Y-71015112D01*
X147752680Y-71010491D01*
X147748444Y-71006575D01*
X147597196Y-70866763D01*
X147597193Y-70866761D01*
X147592956Y-70862844D01*
X147408999Y-70746776D01*
X147206972Y-70666176D01*
X146993639Y-70623741D01*
X146987864Y-70623665D01*
X146987860Y-70623665D01*
X146878819Y-70622238D01*
X146776146Y-70620894D01*
X146770449Y-70621873D01*
X146770448Y-70621873D01*
X146673402Y-70638549D01*
X146602878Y-70630372D01*
X146562968Y-70603464D01*
X146137278Y-70177773D01*
X145704404Y-69744899D01*
X145670379Y-69682587D01*
X145667500Y-69655804D01*
X145667500Y-60860967D01*
X145668027Y-60849784D01*
X145669702Y-60842291D01*
X145667562Y-60774214D01*
X145667500Y-60770255D01*
X145667500Y-60742344D01*
X145666995Y-60738344D01*
X145666062Y-60726501D01*
X145664922Y-60690230D01*
X145664673Y-60682311D01*
X145659021Y-60662857D01*
X145655013Y-60643500D01*
X145653468Y-60631270D01*
X145653468Y-60631269D01*
X145652474Y-60623403D01*
X145648462Y-60613269D01*
X145636196Y-60582288D01*
X145632351Y-60571058D01*
X145622229Y-60536217D01*
X145622229Y-60536216D01*
X145620018Y-60528607D01*
X145615985Y-60521788D01*
X145615983Y-60521783D01*
X145609707Y-60511172D01*
X145601012Y-60493424D01*
X145593552Y-60474583D01*
X145568041Y-60439469D01*
X146408001Y-60439469D01*
X146408371Y-60446290D01*
X146413895Y-60497152D01*
X146417521Y-60512404D01*
X146462676Y-60632854D01*
X146471214Y-60648449D01*
X146547715Y-60750524D01*
X146560276Y-60763085D01*
X146662351Y-60839586D01*
X146677946Y-60848124D01*
X146798394Y-60893278D01*
X146813649Y-60896905D01*
X146864514Y-60902431D01*
X146871328Y-60902800D01*
X148743885Y-60902800D01*
X148759124Y-60898325D01*
X148760329Y-60896935D01*
X148762000Y-60889252D01*
X148762000Y-60884684D01*
X149270000Y-60884684D01*
X149274475Y-60899923D01*
X149275865Y-60901128D01*
X149283548Y-60902799D01*
X151160669Y-60902799D01*
X151167490Y-60902429D01*
X151218352Y-60896905D01*
X151233604Y-60893279D01*
X151354054Y-60848124D01*
X151369649Y-60839586D01*
X151471724Y-60763085D01*
X151484285Y-60750524D01*
X151560786Y-60648449D01*
X151569324Y-60632854D01*
X151614478Y-60512406D01*
X151618105Y-60497151D01*
X151623631Y-60446286D01*
X151624000Y-60439472D01*
X151624000Y-58566915D01*
X151619525Y-58551676D01*
X151618135Y-58550471D01*
X151610452Y-58548800D01*
X151161479Y-58548800D01*
X151150454Y-58552037D01*
X151153692Y-58559127D01*
X151175273Y-58580708D01*
X151209299Y-58643020D01*
X151204235Y-58713836D01*
X151175275Y-58758900D01*
X150889684Y-59044492D01*
X150882073Y-59058430D01*
X150882205Y-59060266D01*
X150886454Y-59066878D01*
X151175275Y-59355700D01*
X151209300Y-59418012D01*
X151204235Y-59488828D01*
X151175274Y-59533891D01*
X151096432Y-59612732D01*
X151017589Y-59691575D01*
X150955276Y-59725600D01*
X150884461Y-59720534D01*
X150839399Y-59691574D01*
X150807812Y-59659987D01*
X150797723Y-59654478D01*
X150795000Y-59661779D01*
X150795000Y-59947800D01*
X150774998Y-60015921D01*
X150721342Y-60062414D01*
X150669000Y-60073800D01*
X150386490Y-60073800D01*
X150375465Y-60077037D01*
X150378703Y-60084128D01*
X150412774Y-60118199D01*
X150446800Y-60180511D01*
X150441735Y-60251326D01*
X150412774Y-60296389D01*
X150333932Y-60375231D01*
X150255090Y-60454074D01*
X150192778Y-60488100D01*
X150121963Y-60483035D01*
X150076900Y-60454075D01*
X149791308Y-60168484D01*
X149777370Y-60160873D01*
X149775534Y-60161005D01*
X149768922Y-60165254D01*
X149480100Y-60454075D01*
X149417788Y-60488100D01*
X149346972Y-60483035D01*
X149301908Y-60454073D01*
X149282808Y-60434972D01*
X149272723Y-60429466D01*
X149270000Y-60436768D01*
X149270000Y-60884684D01*
X148762000Y-60884684D01*
X148762000Y-60440279D01*
X148758763Y-60429254D01*
X148751673Y-60432492D01*
X148730092Y-60454073D01*
X148667780Y-60488099D01*
X148596964Y-60483035D01*
X148551900Y-60454075D01*
X148266308Y-60168484D01*
X148252370Y-60160873D01*
X148250534Y-60161005D01*
X148243922Y-60165254D01*
X147955100Y-60454075D01*
X147892788Y-60488100D01*
X147821972Y-60483035D01*
X147776909Y-60454074D01*
X147698068Y-60375232D01*
X147619225Y-60296389D01*
X147585200Y-60234076D01*
X147590266Y-60163261D01*
X147619226Y-60118199D01*
X147650813Y-60086612D01*
X147656322Y-60076523D01*
X147649021Y-60073800D01*
X147363000Y-60073800D01*
X147294879Y-60053798D01*
X147248386Y-60000142D01*
X147237000Y-59947800D01*
X147237000Y-59665290D01*
X147233763Y-59654265D01*
X147226672Y-59657503D01*
X147192601Y-59691574D01*
X147130289Y-59725600D01*
X147059474Y-59720535D01*
X147014411Y-59691574D01*
X146935569Y-59612732D01*
X146856726Y-59533890D01*
X146822700Y-59471578D01*
X146827765Y-59400763D01*
X146856725Y-59355700D01*
X147142316Y-59070108D01*
X147148693Y-59058429D01*
X147832074Y-59058429D01*
X147832205Y-59060268D01*
X147836453Y-59066877D01*
X147866005Y-59096430D01*
X147866004Y-59096430D01*
X147866005Y-59096431D01*
X148240690Y-59471115D01*
X148254630Y-59478727D01*
X148256466Y-59478595D01*
X148263078Y-59474346D01*
X148640995Y-59096430D01*
X148640997Y-59096428D01*
X148667315Y-59070109D01*
X148673693Y-59058429D01*
X149357074Y-59058429D01*
X149357205Y-59060268D01*
X149361453Y-59066877D01*
X149391005Y-59096430D01*
X149391004Y-59096430D01*
X149391005Y-59096431D01*
X149765690Y-59471115D01*
X149779630Y-59478727D01*
X149781466Y-59478595D01*
X149788078Y-59474346D01*
X150165995Y-59096430D01*
X150165997Y-59096428D01*
X150192315Y-59070109D01*
X150199926Y-59056171D01*
X150199795Y-59054333D01*
X150195545Y-59047721D01*
X149817630Y-58669805D01*
X149817628Y-58669803D01*
X149791309Y-58643485D01*
X149777371Y-58635874D01*
X149775533Y-58636005D01*
X149768921Y-58640255D01*
X149391005Y-59018170D01*
X149391003Y-59018172D01*
X149364685Y-59044491D01*
X149357074Y-59058429D01*
X148673693Y-59058429D01*
X148674926Y-59056171D01*
X148674795Y-59054333D01*
X148670545Y-59047721D01*
X148292630Y-58669805D01*
X148292628Y-58669803D01*
X148266309Y-58643485D01*
X148252371Y-58635874D01*
X148250533Y-58636005D01*
X148243921Y-58640255D01*
X147866005Y-59018170D01*
X147866003Y-59018172D01*
X147839685Y-59044491D01*
X147832074Y-59058429D01*
X147148693Y-59058429D01*
X147149927Y-59056170D01*
X147149795Y-59054334D01*
X147145546Y-59047722D01*
X146856725Y-58758900D01*
X146822700Y-58696588D01*
X146827765Y-58625772D01*
X146856727Y-58580708D01*
X146875828Y-58561608D01*
X146881334Y-58551523D01*
X146874032Y-58548800D01*
X146426116Y-58548800D01*
X146410877Y-58553275D01*
X146409672Y-58554665D01*
X146408001Y-58562348D01*
X146408001Y-60439469D01*
X145568041Y-60439469D01*
X145567564Y-60438813D01*
X145561048Y-60428893D01*
X145542580Y-60397665D01*
X145542578Y-60397662D01*
X145538542Y-60390838D01*
X145524221Y-60376517D01*
X145511380Y-60361483D01*
X145504131Y-60351506D01*
X145499472Y-60345093D01*
X145465395Y-60316902D01*
X145456616Y-60308912D01*
X143170390Y-58022685D01*
X146408000Y-58022685D01*
X146412475Y-58037924D01*
X146413865Y-58039129D01*
X146421548Y-58040800D01*
X146870521Y-58040800D01*
X146881546Y-58037563D01*
X146878308Y-58030473D01*
X146856727Y-58008892D01*
X146822701Y-57946580D01*
X146827765Y-57875764D01*
X146856725Y-57830700D01*
X147142316Y-57545108D01*
X147148693Y-57533429D01*
X147832074Y-57533429D01*
X147832205Y-57535268D01*
X147836453Y-57541877D01*
X147866005Y-57571430D01*
X147866004Y-57571430D01*
X147866005Y-57571431D01*
X148240690Y-57946115D01*
X148254630Y-57953727D01*
X148256466Y-57953595D01*
X148263078Y-57949346D01*
X148640995Y-57571430D01*
X148640997Y-57571428D01*
X148667315Y-57545109D01*
X148673693Y-57533429D01*
X149357074Y-57533429D01*
X149357205Y-57535268D01*
X149361453Y-57541877D01*
X149391005Y-57571430D01*
X149391004Y-57571430D01*
X149391005Y-57571431D01*
X149765690Y-57946115D01*
X149779630Y-57953727D01*
X149781466Y-57953595D01*
X149788078Y-57949346D01*
X150165995Y-57571430D01*
X150165997Y-57571428D01*
X150192315Y-57545109D01*
X150199926Y-57531171D01*
X150199795Y-57529333D01*
X150195545Y-57522721D01*
X149817630Y-57144805D01*
X149817628Y-57144803D01*
X149791309Y-57118485D01*
X149777371Y-57110874D01*
X149775533Y-57111005D01*
X149768921Y-57115255D01*
X149391005Y-57493170D01*
X149391003Y-57493172D01*
X149364685Y-57519491D01*
X149357074Y-57533429D01*
X148673693Y-57533429D01*
X148674926Y-57531171D01*
X148674795Y-57529333D01*
X148670545Y-57522721D01*
X148292630Y-57144805D01*
X148292628Y-57144803D01*
X148266309Y-57118485D01*
X148252371Y-57110874D01*
X148250533Y-57111005D01*
X148243921Y-57115255D01*
X147866005Y-57493170D01*
X147866003Y-57493172D01*
X147839685Y-57519491D01*
X147832074Y-57533429D01*
X147148693Y-57533429D01*
X147149927Y-57531170D01*
X147149795Y-57529334D01*
X147145546Y-57522722D01*
X146856725Y-57233900D01*
X146822700Y-57171588D01*
X146827765Y-57100772D01*
X146856726Y-57055709D01*
X146935568Y-56976868D01*
X147014411Y-56898025D01*
X147076724Y-56864000D01*
X147147539Y-56869066D01*
X147192601Y-56898026D01*
X147224188Y-56929613D01*
X147234277Y-56935122D01*
X147237000Y-56927821D01*
X147237000Y-56641800D01*
X147257002Y-56573679D01*
X147310658Y-56527186D01*
X147363000Y-56515800D01*
X147645510Y-56515800D01*
X147656535Y-56512563D01*
X147653297Y-56505472D01*
X147619226Y-56471401D01*
X147585200Y-56409089D01*
X147590265Y-56338274D01*
X147619226Y-56293211D01*
X147698068Y-56214369D01*
X147776910Y-56135526D01*
X147839222Y-56101500D01*
X147910037Y-56106565D01*
X147955100Y-56135525D01*
X148240692Y-56421116D01*
X148254630Y-56428727D01*
X148256466Y-56428595D01*
X148263078Y-56424346D01*
X148551900Y-56135525D01*
X148614212Y-56101500D01*
X148685028Y-56106565D01*
X148730092Y-56135527D01*
X148749192Y-56154628D01*
X148759277Y-56160134D01*
X148762000Y-56152832D01*
X148762000Y-56149321D01*
X149270000Y-56149321D01*
X149273237Y-56160346D01*
X149280327Y-56157108D01*
X149301908Y-56135527D01*
X149364220Y-56101501D01*
X149435036Y-56106565D01*
X149480100Y-56135525D01*
X149765692Y-56421116D01*
X149779630Y-56428727D01*
X149781466Y-56428595D01*
X149788078Y-56424346D01*
X150076900Y-56135525D01*
X150139212Y-56101500D01*
X150210028Y-56106565D01*
X150255091Y-56135526D01*
X150333932Y-56214368D01*
X150412775Y-56293211D01*
X150446800Y-56355524D01*
X150441734Y-56426339D01*
X150412774Y-56471401D01*
X150381187Y-56502988D01*
X150375678Y-56513077D01*
X150382979Y-56515800D01*
X150669000Y-56515800D01*
X150737121Y-56535802D01*
X150783614Y-56589458D01*
X150795000Y-56641800D01*
X150795000Y-56924310D01*
X150798237Y-56935335D01*
X150805328Y-56932097D01*
X150839399Y-56898026D01*
X150901711Y-56864000D01*
X150972526Y-56869065D01*
X151017589Y-56898026D01*
X151096431Y-56976868D01*
X151175274Y-57055710D01*
X151209300Y-57118022D01*
X151204235Y-57188837D01*
X151175275Y-57233900D01*
X150889684Y-57519492D01*
X150882073Y-57533430D01*
X150882205Y-57535266D01*
X150886454Y-57541878D01*
X151175275Y-57830700D01*
X151209300Y-57893012D01*
X151204235Y-57963828D01*
X151175273Y-58008892D01*
X151156172Y-58027992D01*
X151150666Y-58038077D01*
X151157968Y-58040800D01*
X151605884Y-58040800D01*
X151621123Y-58036325D01*
X151622328Y-58034935D01*
X151623999Y-58027252D01*
X151623999Y-56150131D01*
X151623629Y-56143310D01*
X151618105Y-56092448D01*
X151614479Y-56077196D01*
X151569324Y-55956746D01*
X151560786Y-55941151D01*
X151484285Y-55839076D01*
X151471724Y-55826515D01*
X151369649Y-55750014D01*
X151354054Y-55741476D01*
X151233606Y-55696322D01*
X151218351Y-55692695D01*
X151167486Y-55687169D01*
X151160672Y-55686800D01*
X149288115Y-55686800D01*
X149272876Y-55691275D01*
X149271671Y-55692665D01*
X149270000Y-55700348D01*
X149270000Y-56149321D01*
X148762000Y-56149321D01*
X148762000Y-55704916D01*
X148757525Y-55689677D01*
X148756135Y-55688472D01*
X148748452Y-55686801D01*
X146871331Y-55686801D01*
X146864510Y-55687171D01*
X146813648Y-55692695D01*
X146798396Y-55696321D01*
X146677946Y-55741476D01*
X146662351Y-55750014D01*
X146560276Y-55826515D01*
X146547715Y-55839076D01*
X146471214Y-55941151D01*
X146462676Y-55956746D01*
X146417522Y-56077194D01*
X146413895Y-56092449D01*
X146408369Y-56143314D01*
X146408000Y-56150128D01*
X146408000Y-58022685D01*
X143170390Y-58022685D01*
X141616405Y-56468700D01*
X141582379Y-56406388D01*
X141579500Y-56379605D01*
X141579500Y-55849300D01*
X141599502Y-55781179D01*
X141653158Y-55734686D01*
X141705500Y-55723300D01*
X141744134Y-55723300D01*
X141806316Y-55716545D01*
X141942705Y-55665415D01*
X142059261Y-55578061D01*
X142146615Y-55461505D01*
X142197745Y-55325116D01*
X142204500Y-55262934D01*
X142204500Y-54266666D01*
X142197745Y-54204484D01*
X142186328Y-54174029D01*
X142181145Y-54103223D01*
X142186326Y-54085576D01*
X142197745Y-54055116D01*
X142204500Y-53992934D01*
X142204500Y-52996666D01*
X142197745Y-52934484D01*
X142186328Y-52904029D01*
X142181145Y-52833223D01*
X142186326Y-52815576D01*
X142197745Y-52785116D01*
X142204500Y-52722934D01*
X142204500Y-51726666D01*
X142197745Y-51664484D01*
X142186061Y-51633317D01*
X142180878Y-51562512D01*
X142186061Y-51544857D01*
X142194479Y-51522402D01*
X142198105Y-51507151D01*
X142203631Y-51456286D01*
X142204000Y-51449472D01*
X142204000Y-51226915D01*
X142199525Y-51211676D01*
X142198135Y-51210471D01*
X142190452Y-51208800D01*
X139706116Y-51208800D01*
X139690877Y-51213275D01*
X139689672Y-51214665D01*
X139688001Y-51222348D01*
X139688001Y-51449469D01*
X139688371Y-51456290D01*
X139693895Y-51507152D01*
X139697520Y-51522400D01*
X139705939Y-51544857D01*
X139711122Y-51615664D01*
X139705942Y-51633310D01*
X139694255Y-51664484D01*
X139687500Y-51726666D01*
X139687500Y-52722934D01*
X139687868Y-52726320D01*
X139687985Y-52728483D01*
X139671698Y-52797586D01*
X139620636Y-52846914D01*
X139562170Y-52861300D01*
X138355963Y-52861300D01*
X138344779Y-52860773D01*
X138337291Y-52859099D01*
X138329368Y-52859348D01*
X138269233Y-52861238D01*
X138265275Y-52861300D01*
X138237344Y-52861300D01*
X138233429Y-52861795D01*
X138233425Y-52861795D01*
X138233367Y-52861803D01*
X138233338Y-52861806D01*
X138221496Y-52862739D01*
X138177310Y-52864127D01*
X138159944Y-52869172D01*
X138157858Y-52869778D01*
X138138506Y-52873786D01*
X138126268Y-52875332D01*
X138126266Y-52875333D01*
X138118403Y-52876326D01*
X138077286Y-52892606D01*
X138066085Y-52896441D01*
X138023606Y-52908782D01*
X138016787Y-52912815D01*
X138016782Y-52912817D01*
X138006171Y-52919093D01*
X137988421Y-52927790D01*
X137969583Y-52935248D01*
X137963167Y-52939909D01*
X137963166Y-52939910D01*
X137933825Y-52961228D01*
X137923901Y-52967747D01*
X137892660Y-52986222D01*
X137892655Y-52986226D01*
X137885837Y-52990258D01*
X137871513Y-53004582D01*
X137856481Y-53017421D01*
X137840093Y-53029328D01*
X137811912Y-53063393D01*
X137803922Y-53072173D01*
X135726700Y-55149395D01*
X135664388Y-55183421D01*
X135637605Y-55186300D01*
X133129066Y-55186300D01*
X133066884Y-55193055D01*
X132930495Y-55244185D01*
X132813939Y-55331539D01*
X132726585Y-55448095D01*
X132675455Y-55584484D01*
X132668700Y-55646666D01*
X132668700Y-57742934D01*
X132675455Y-57805116D01*
X132726585Y-57941505D01*
X132813939Y-58058061D01*
X132930495Y-58145415D01*
X133066884Y-58196545D01*
X133129066Y-58203300D01*
X134317700Y-58203300D01*
X134385821Y-58223302D01*
X134432314Y-58276958D01*
X134443700Y-58329300D01*
X134443700Y-59103233D01*
X134443173Y-59114416D01*
X134441498Y-59121909D01*
X134441747Y-59129835D01*
X134441747Y-59129836D01*
X134443638Y-59189986D01*
X134443700Y-59193945D01*
X134443700Y-61360300D01*
X134423698Y-61428421D01*
X134370042Y-61474914D01*
X134317700Y-61486300D01*
X134279066Y-61486300D01*
X134216884Y-61493055D01*
X134080495Y-61544185D01*
X134011856Y-61595627D01*
X134002348Y-61602753D01*
X133935842Y-61627601D01*
X133866459Y-61612548D01*
X133851218Y-61602753D01*
X133780848Y-61550014D01*
X133765254Y-61541476D01*
X133644806Y-61496322D01*
X133629551Y-61492695D01*
X133578686Y-61487169D01*
X133571872Y-61486800D01*
X133049315Y-61486800D01*
X133034076Y-61491275D01*
X133032871Y-61492665D01*
X133031200Y-61500348D01*
X133031200Y-64484684D01*
X133035675Y-64499923D01*
X133037065Y-64501128D01*
X133044748Y-64502799D01*
X133571869Y-64502799D01*
X133578690Y-64502429D01*
X133629552Y-64496905D01*
X133644804Y-64493279D01*
X133765254Y-64448124D01*
X133780848Y-64439586D01*
X133851218Y-64386847D01*
X133917724Y-64361999D01*
X133987107Y-64377052D01*
X134002348Y-64386847D01*
X134080495Y-64445415D01*
X134088904Y-64448567D01*
X134088905Y-64448568D01*
X134094045Y-64450495D01*
X134150810Y-64493136D01*
X134175510Y-64559698D01*
X134160303Y-64629047D01*
X134129921Y-64665041D01*
X134127852Y-64666322D01*
X134002895Y-64791497D01*
X133999055Y-64797727D01*
X133999054Y-64797728D01*
X133927258Y-64914203D01*
X133910085Y-64942062D01*
X133854403Y-65109939D01*
X133843700Y-65214400D01*
X133843700Y-65815200D01*
X133844037Y-65818446D01*
X133844037Y-65818450D01*
X133852377Y-65898826D01*
X133854674Y-65920966D01*
X133856855Y-65927502D01*
X133856855Y-65927504D01*
X133869494Y-65965388D01*
X133910650Y-66088746D01*
X134003722Y-66239148D01*
X134128897Y-66364105D01*
X134133435Y-66366902D01*
X134174024Y-66424153D01*
X134177254Y-66495076D01*
X134141628Y-66556487D01*
X134133132Y-66563862D01*
X134122993Y-66571898D01*
X134008461Y-66686629D01*
X133999449Y-66698040D01*
X133914384Y-66836043D01*
X133908237Y-66849224D01*
X133857062Y-67003510D01*
X133854195Y-67016886D01*
X133844528Y-67111238D01*
X133844200Y-67117655D01*
X133844200Y-67142685D01*
X133848675Y-67157924D01*
X133850065Y-67159129D01*
X133857748Y-67160800D01*
X137505200Y-67160800D01*
X137573321Y-67180802D01*
X137619814Y-67234458D01*
X137631200Y-67286800D01*
X137631200Y-67542800D01*
X137611198Y-67610921D01*
X137557542Y-67657414D01*
X137505200Y-67668800D01*
X133862316Y-67668800D01*
X133847077Y-67673275D01*
X133845872Y-67674665D01*
X133844201Y-67682348D01*
X133844201Y-67711895D01*
X133844538Y-67718414D01*
X133854457Y-67814006D01*
X133857349Y-67827400D01*
X133908788Y-67981584D01*
X133914961Y-67994762D01*
X134000263Y-68132607D01*
X134009299Y-68144008D01*
X134124029Y-68258539D01*
X134135440Y-68267551D01*
X134273444Y-68352617D01*
X134285045Y-68358027D01*
X134338329Y-68404945D01*
X134357789Y-68473223D01*
X134337246Y-68541182D01*
X134331354Y-68549445D01*
X134319786Y-68564359D01*
X134316641Y-68571628D01*
X134316638Y-68571632D01*
X134302226Y-68604937D01*
X134297009Y-68615587D01*
X134275705Y-68654340D01*
X134273734Y-68662015D01*
X134273734Y-68662016D01*
X134270667Y-68673962D01*
X134264263Y-68692666D01*
X134256219Y-68711255D01*
X134254980Y-68719078D01*
X134254977Y-68719088D01*
X134249301Y-68754924D01*
X134246895Y-68766544D01*
X134237872Y-68801689D01*
X134235900Y-68809370D01*
X134235900Y-68829624D01*
X134234349Y-68849334D01*
X134231180Y-68869343D01*
X134231926Y-68877235D01*
X134235341Y-68913361D01*
X134235900Y-68925219D01*
X134235900Y-70733832D01*
X134215898Y-70801953D01*
X134179711Y-70836910D01*
X134180414Y-70837878D01*
X134175742Y-70841272D01*
X134170776Y-70844227D01*
X134166432Y-70848037D01*
X134148992Y-70863331D01*
X134084588Y-70893208D01*
X134014255Y-70883522D01*
X133965089Y-70844165D01*
X133936503Y-70806023D01*
X133907661Y-70767539D01*
X133791105Y-70680185D01*
X133654716Y-70629055D01*
X133627486Y-70626097D01*
X133615292Y-70624772D01*
X133549730Y-70597530D01*
X133509304Y-70539166D01*
X133502900Y-70499509D01*
X133502900Y-69813924D01*
X133522902Y-69745803D01*
X133535258Y-69729621D01*
X133608440Y-69648344D01*
X133676130Y-69531102D01*
X133700623Y-69488679D01*
X133700624Y-69488678D01*
X133703927Y-69482956D01*
X133762942Y-69301328D01*
X133765902Y-69273170D01*
X133782214Y-69117965D01*
X133782904Y-69111400D01*
X133762942Y-68921472D01*
X133703927Y-68739844D01*
X133691944Y-68719088D01*
X133650554Y-68647399D01*
X133608440Y-68574456D01*
X133554077Y-68514079D01*
X133485075Y-68437445D01*
X133485074Y-68437444D01*
X133480653Y-68432534D01*
X133326152Y-68320282D01*
X133320124Y-68317598D01*
X133320122Y-68317597D01*
X133157719Y-68245291D01*
X133157718Y-68245291D01*
X133151688Y-68242606D01*
X133058288Y-68222753D01*
X132971344Y-68204272D01*
X132971339Y-68204272D01*
X132964887Y-68202900D01*
X132773913Y-68202900D01*
X132767461Y-68204272D01*
X132767456Y-68204272D01*
X132680512Y-68222753D01*
X132587112Y-68242606D01*
X132581082Y-68245291D01*
X132581081Y-68245291D01*
X132418678Y-68317597D01*
X132418676Y-68317598D01*
X132412648Y-68320282D01*
X132258147Y-68432534D01*
X132253726Y-68437444D01*
X132253725Y-68437445D01*
X132184724Y-68514079D01*
X132130360Y-68574456D01*
X132088246Y-68647399D01*
X132046857Y-68719088D01*
X132034873Y-68739844D01*
X132032831Y-68746129D01*
X132021533Y-68780900D01*
X131981459Y-68839506D01*
X131916063Y-68867143D01*
X131846106Y-68855036D01*
X131793800Y-68807030D01*
X131775700Y-68741964D01*
X131775700Y-64620914D01*
X131795702Y-64552793D01*
X131849358Y-64506300D01*
X131916935Y-64496584D01*
X131916993Y-64496052D01*
X131919067Y-64496277D01*
X131919632Y-64496196D01*
X131921375Y-64496528D01*
X131975714Y-64502431D01*
X131982528Y-64502800D01*
X132505085Y-64502800D01*
X132520324Y-64498325D01*
X132521529Y-64496935D01*
X132523200Y-64489252D01*
X132523200Y-61504916D01*
X132518725Y-61489677D01*
X132517335Y-61488472D01*
X132509652Y-61486801D01*
X131982531Y-61486801D01*
X131975710Y-61487171D01*
X131916993Y-61493548D01*
X131916665Y-61490532D01*
X131859923Y-61487558D01*
X131802287Y-61446101D01*
X131776215Y-61380065D01*
X131775700Y-61368686D01*
X131775700Y-50037500D01*
X131795702Y-49969379D01*
X131849358Y-49922886D01*
X131901700Y-49911500D01*
X139762294Y-49911500D01*
X139830415Y-49931502D01*
G37*
%TD.AperFunction*%
%TD*%
M02*
