%TF.GenerationSoftware,KiCad,Pcbnew,(6.0.8)*%
%TF.CreationDate,2023-06-07T12:36:53+01:00*%
%TF.ProjectId,BlueRetro_Universal_HW1_3v3,426c7565-5265-4747-926f-5f556e697665,rev?*%
%TF.SameCoordinates,Original*%
%TF.FileFunction,Paste,Top*%
%TF.FilePolarity,Positive*%
%FSLAX46Y46*%
G04 Gerber Fmt 4.6, Leading zero omitted, Abs format (unit mm)*
G04 Created by KiCad (PCBNEW (6.0.8)) date 2023-06-07 12:36:53*
%MOMM*%
%LPD*%
G01*
G04 APERTURE LIST*
G04 Aperture macros list*
%AMRoundRect*
0 Rectangle with rounded corners*
0 $1 Rounding radius*
0 $2 $3 $4 $5 $6 $7 $8 $9 X,Y pos of 4 corners*
0 Add a 4 corners polygon primitive as box body*
4,1,4,$2,$3,$4,$5,$6,$7,$8,$9,$2,$3,0*
0 Add four circle primitives for the rounded corners*
1,1,$1+$1,$2,$3*
1,1,$1+$1,$4,$5*
1,1,$1+$1,$6,$7*
1,1,$1+$1,$8,$9*
0 Add four rect primitives between the rounded corners*
20,1,$1+$1,$2,$3,$4,$5,0*
20,1,$1+$1,$4,$5,$6,$7,0*
20,1,$1+$1,$6,$7,$8,$9,0*
20,1,$1+$1,$8,$9,$2,$3,0*%
G04 Aperture macros list end*
%ADD10R,1.050000X1.050000*%
%ADD11R,1.500000X0.900000*%
%ADD12R,1.500000X2.000000*%
%ADD13R,3.800000X2.000000*%
%ADD14O,1.350000X1.350000*%
%ADD15R,1.350000X1.350000*%
%ADD16RoundRect,0.250000X-0.475000X0.250000X-0.475000X-0.250000X0.475000X-0.250000X0.475000X0.250000X0*%
G04 APERTURE END LIST*
D10*
%TO.C,U2*%
X149016000Y-58294800D03*
X149016000Y-56769800D03*
X150541000Y-56769800D03*
X147491000Y-59819800D03*
X147491000Y-58294800D03*
X150541000Y-58294800D03*
X149016000Y-59819800D03*
X150541000Y-59819800D03*
X147491000Y-56769800D03*
D11*
X158446000Y-50954800D03*
X158446000Y-52224800D03*
X158446000Y-53494800D03*
X158446000Y-56034800D03*
X158446000Y-57304800D03*
X158446000Y-59844800D03*
X158446000Y-61114800D03*
X158446000Y-62384800D03*
X158446000Y-64924800D03*
X140946000Y-64924800D03*
X140946000Y-63654800D03*
X140946000Y-62384800D03*
X140946000Y-61114800D03*
X140946000Y-59844800D03*
X140946000Y-58574800D03*
X140946000Y-54764800D03*
X140946000Y-53494800D03*
X140946000Y-52224800D03*
X140946000Y-50954800D03*
%TD*%
D12*
%TO.C,U1*%
X137377200Y-62994800D03*
X135077200Y-62994800D03*
D13*
X135077200Y-56694800D03*
D12*
X132777200Y-62994800D03*
%TD*%
D14*
%TO.C,J1*%
X164869400Y-71805800D03*
X162869400Y-71805800D03*
X160869400Y-71805800D03*
X158869400Y-71805800D03*
X156869400Y-71805800D03*
X154869400Y-71805800D03*
X152869400Y-71805800D03*
X150869400Y-71805800D03*
X148869400Y-71805800D03*
X146869400Y-71805800D03*
X144869400Y-71805800D03*
X142869400Y-71805800D03*
X140869400Y-71805800D03*
X138869400Y-71805800D03*
X136869400Y-71805800D03*
X134869400Y-71805800D03*
D15*
X132869400Y-71805800D03*
%TD*%
D16*
%TO.C,C2*%
X135077200Y-67414800D03*
X135077200Y-65514800D03*
%TD*%
%TO.C,C1*%
X137377200Y-67414800D03*
X137377200Y-65514800D03*
%TD*%
M02*
