%TF.GenerationSoftware,KiCad,Pcbnew,(6.0.8)*%
%TF.CreationDate,2023-05-25T13:10:06+01:00*%
%TF.ProjectId,BlueRetro_Universal_HW1,426c7565-5265-4747-926f-5f556e697665,rev?*%
%TF.SameCoordinates,Original*%
%TF.FileFunction,Copper,L1,Top*%
%TF.FilePolarity,Positive*%
%FSLAX46Y46*%
G04 Gerber Fmt 4.6, Leading zero omitted, Abs format (unit mm)*
G04 Created by KiCad (PCBNEW (6.0.8)) date 2023-05-25 13:10:06*
%MOMM*%
%LPD*%
G01*
G04 APERTURE LIST*
G04 Aperture macros list*
%AMRoundRect*
0 Rectangle with rounded corners*
0 $1 Rounding radius*
0 $2 $3 $4 $5 $6 $7 $8 $9 X,Y pos of 4 corners*
0 Add a 4 corners polygon primitive as box body*
4,1,4,$2,$3,$4,$5,$6,$7,$8,$9,$2,$3,0*
0 Add four circle primitives for the rounded corners*
1,1,$1+$1,$2,$3*
1,1,$1+$1,$4,$5*
1,1,$1+$1,$6,$7*
1,1,$1+$1,$8,$9*
0 Add four rect primitives between the rounded corners*
20,1,$1+$1,$2,$3,$4,$5,0*
20,1,$1+$1,$4,$5,$6,$7,0*
20,1,$1+$1,$6,$7,$8,$9,0*
20,1,$1+$1,$8,$9,$2,$3,0*%
G04 Aperture macros list end*
%TA.AperFunction,SMDPad,CuDef*%
%ADD10RoundRect,0.100000X-0.100000X0.637500X-0.100000X-0.637500X0.100000X-0.637500X0.100000X0.637500X0*%
%TD*%
%TA.AperFunction,SMDPad,CuDef*%
%ADD11RoundRect,0.250000X-0.262500X-0.450000X0.262500X-0.450000X0.262500X0.450000X-0.262500X0.450000X0*%
%TD*%
%TA.AperFunction,SMDPad,CuDef*%
%ADD12RoundRect,0.250000X-0.475000X0.250000X-0.475000X-0.250000X0.475000X-0.250000X0.475000X0.250000X0*%
%TD*%
%TA.AperFunction,SMDPad,CuDef*%
%ADD13R,1.350000X1.350000*%
%TD*%
%TA.AperFunction,SMDPad,CuDef*%
%ADD14O,1.350000X1.350000*%
%TD*%
%TA.AperFunction,SMDPad,CuDef*%
%ADD15R,1.500000X0.900000*%
%TD*%
%TA.AperFunction,ComponentPad*%
%ADD16C,0.475000*%
%TD*%
%TA.AperFunction,SMDPad,CuDef*%
%ADD17R,1.050000X1.050000*%
%TD*%
%TA.AperFunction,SMDPad,CuDef*%
%ADD18R,4.200000X4.200000*%
%TD*%
%TA.AperFunction,SMDPad,CuDef*%
%ADD19R,1.500000X2.000000*%
%TD*%
%TA.AperFunction,SMDPad,CuDef*%
%ADD20R,3.800000X2.000000*%
%TD*%
%TA.AperFunction,ViaPad*%
%ADD21C,0.800000*%
%TD*%
%TA.AperFunction,Conductor*%
%ADD22C,0.250000*%
%TD*%
G04 APERTURE END LIST*
D10*
%TO.P,U3,1,A1*%
%TO.N,unconnected-(U3-Pad1)*%
X145768600Y-60002500D03*
%TO.P,U3,2,VCCA*%
%TO.N,+3V3*%
X145118600Y-60002500D03*
%TO.P,U3,3,A2*%
%TO.N,IO36*%
X144468600Y-60002500D03*
%TO.P,U3,4,A3*%
%TO.N,IO35*%
X143818600Y-60002500D03*
%TO.P,U3,5,A4*%
%TO.N,IO32*%
X143168600Y-60002500D03*
%TO.P,U3,6,A5*%
%TO.N,IO33*%
X142518600Y-60002500D03*
%TO.P,U3,7,A6*%
%TO.N,IO25*%
X141868600Y-60002500D03*
%TO.P,U3,8,A7*%
%TO.N,IO26*%
X141218600Y-60002500D03*
%TO.P,U3,9,A8*%
%TO.N,IO27*%
X140568600Y-60002500D03*
%TO.P,U3,10,OE*%
%TO.N,OE*%
X139918600Y-60002500D03*
%TO.P,U3,11,GND*%
%TO.N,GND*%
X139918600Y-65727500D03*
%TO.P,U3,12,B8*%
%TO.N,IO27_BUF*%
X140568600Y-65727500D03*
%TO.P,U3,13,B7*%
%TO.N,IO26_BUF*%
X141218600Y-65727500D03*
%TO.P,U3,14,B6*%
%TO.N,IO25_BUF*%
X141868600Y-65727500D03*
%TO.P,U3,15,B5*%
%TO.N,IO33_BUF*%
X142518600Y-65727500D03*
%TO.P,U3,16,B4*%
%TO.N,IO32_BUF*%
X143168600Y-65727500D03*
%TO.P,U3,17,B3*%
%TO.N,IO35_BUF*%
X143818600Y-65727500D03*
%TO.P,U3,18,B2*%
%TO.N,IO36_BUF*%
X144468600Y-65727500D03*
%TO.P,U3,19,VCCB*%
%TO.N,+5V*%
X145118600Y-65727500D03*
%TO.P,U3,20,B1*%
%TO.N,unconnected-(U3-Pad20)*%
X145768600Y-65727500D03*
%TD*%
D11*
%TO.P,R1,1*%
%TO.N,+3V3*%
X147220300Y-59965000D03*
%TO.P,R1,2*%
%TO.N,OE*%
X149045300Y-59965000D03*
%TD*%
D12*
%TO.P,C2,1*%
%TO.N,+3V3*%
X135026400Y-64065000D03*
%TO.P,C2,2*%
%TO.N,GND*%
X135026400Y-65965000D03*
%TD*%
D13*
%TO.P,J1,1,Pin_1*%
%TO.N,+5V*%
X132818600Y-69367400D03*
D14*
%TO.P,J1,2,Pin_2*%
%TO.N,IO27_BUF*%
X134818600Y-69367400D03*
%TO.P,J1,3,Pin_3*%
%TO.N,IO26_BUF*%
X136818600Y-69367400D03*
%TO.P,J1,4,Pin_4*%
%TO.N,IO25_BUF*%
X138818600Y-69367400D03*
%TO.P,J1,5,Pin_5*%
%TO.N,IO33_BUF*%
X140818600Y-69367400D03*
%TO.P,J1,6,Pin_6*%
%TO.N,IO32_BUF*%
X142818600Y-69367400D03*
%TO.P,J1,7,Pin_7*%
%TO.N,IO35_BUF*%
X144818600Y-69367400D03*
%TO.P,J1,8,Pin_8*%
%TO.N,IO36_BUF*%
X146818600Y-69367400D03*
%TO.P,J1,9,Pin_9*%
%TO.N,IO23_BUF*%
X148818600Y-69367400D03*
%TO.P,J1,10,Pin_10*%
%TO.N,IO22_BUF*%
X150818600Y-69367400D03*
%TO.P,J1,11,Pin_11*%
%TO.N,IO3_BUF*%
X152818600Y-69367400D03*
%TO.P,J1,12,Pin_12*%
%TO.N,IO21_BUF*%
X154818600Y-69367400D03*
%TO.P,J1,13,Pin_13*%
%TO.N,IO19_BUF*%
X156818600Y-69367400D03*
%TO.P,J1,14,Pin_14*%
%TO.N,IO18_BUF*%
X158818600Y-69367400D03*
%TO.P,J1,15,Pin_15*%
%TO.N,IO5_BUF*%
X160818600Y-69367400D03*
%TO.P,J1,16,Pin_16*%
%TO.N,IO16_BUF*%
X162818600Y-69367400D03*
%TO.P,J1,17,Pin_17*%
%TO.N,GND*%
X164818600Y-69367400D03*
%TD*%
D15*
%TO.P,U2,1,GND*%
%TO.N,GND*%
X140068600Y-40035400D03*
%TO.P,U2,2,VDD*%
%TO.N,+3V3*%
X140068600Y-41305400D03*
%TO.P,U2,3,EN*%
X140068600Y-42575400D03*
%TO.P,U2,4,SENSOR_VP*%
%TO.N,IO36*%
X140068600Y-43845400D03*
%TO.P,U2,7,IO35*%
%TO.N,IO35*%
X140068600Y-47655400D03*
%TO.P,U2,8,IO32*%
%TO.N,IO32*%
X140068600Y-48925400D03*
%TO.P,U2,9,IO33*%
%TO.N,IO33*%
X140068600Y-50195400D03*
%TO.P,U2,10,IO25*%
%TO.N,IO25*%
X140068600Y-51465400D03*
%TO.P,U2,11,IO26*%
%TO.N,IO26*%
X140068600Y-52735400D03*
%TO.P,U2,12,IO27*%
%TO.N,IO27*%
X140068600Y-54005400D03*
%TO.P,U2,27,IO16*%
%TO.N,IO16*%
X157568600Y-54005400D03*
%TO.P,U2,29,IO5*%
%TO.N,IO5*%
X157568600Y-51465400D03*
%TO.P,U2,30,IO18*%
%TO.N,IO18*%
X157568600Y-50195400D03*
%TO.P,U2,31,IO19*%
%TO.N,IO19*%
X157568600Y-48925400D03*
%TO.P,U2,33,IO21*%
%TO.N,IO21*%
X157568600Y-46385400D03*
%TO.P,U2,34,RXD0/IO3*%
%TO.N,IO3*%
X157568600Y-45115400D03*
%TO.P,U2,36,IO22*%
%TO.N,IO22*%
X157568600Y-42575400D03*
%TO.P,U2,37,IO23*%
%TO.N,IO23*%
X157568600Y-41305400D03*
%TO.P,U2,38,GND*%
%TO.N,GND*%
X157568600Y-40035400D03*
D16*
%TO.P,U2,39,GND*%
X148901100Y-47375400D03*
X148138600Y-46612900D03*
X148138600Y-48137900D03*
D17*
X149663600Y-48900400D03*
D16*
X149663600Y-46612900D03*
D17*
X146613600Y-48900400D03*
D16*
X148901100Y-48900400D03*
X147376100Y-47375400D03*
X147376100Y-48900400D03*
D17*
X146613600Y-45850400D03*
X146613600Y-47375400D03*
X149663600Y-47375400D03*
D18*
X148138600Y-47375400D03*
D17*
X148138600Y-47375400D03*
X149663600Y-45850400D03*
D16*
X148901100Y-45850400D03*
D17*
X148138600Y-45850400D03*
D16*
X146613600Y-48137900D03*
X147376100Y-45850400D03*
D17*
X148138600Y-48900400D03*
D16*
X149663600Y-48137900D03*
X146613600Y-46612900D03*
%TD*%
D10*
%TO.P,U4,1,A1*%
%TO.N,IO16*%
X157718600Y-60002500D03*
%TO.P,U4,2,VCCA*%
%TO.N,+3V3*%
X157068600Y-60002500D03*
%TO.P,U4,3,A2*%
%TO.N,IO5*%
X156418600Y-60002500D03*
%TO.P,U4,4,A3*%
%TO.N,IO18*%
X155768600Y-60002500D03*
%TO.P,U4,5,A4*%
%TO.N,IO19*%
X155118600Y-60002500D03*
%TO.P,U4,6,A5*%
%TO.N,IO21*%
X154468600Y-60002500D03*
%TO.P,U4,7,A6*%
%TO.N,IO3*%
X153818600Y-60002500D03*
%TO.P,U4,8,A7*%
%TO.N,IO22*%
X153168600Y-60002500D03*
%TO.P,U4,9,A8*%
%TO.N,IO23*%
X152518600Y-60002500D03*
%TO.P,U4,10,OE*%
%TO.N,OE*%
X151868600Y-60002500D03*
%TO.P,U4,11,GND*%
%TO.N,GND*%
X151868600Y-65727500D03*
%TO.P,U4,12,B8*%
%TO.N,IO23_BUF*%
X152518600Y-65727500D03*
%TO.P,U4,13,B7*%
%TO.N,IO22_BUF*%
X153168600Y-65727500D03*
%TO.P,U4,14,B6*%
%TO.N,IO3_BUF*%
X153818600Y-65727500D03*
%TO.P,U4,15,B5*%
%TO.N,IO21_BUF*%
X154468600Y-65727500D03*
%TO.P,U4,16,B4*%
%TO.N,IO19_BUF*%
X155118600Y-65727500D03*
%TO.P,U4,17,B3*%
%TO.N,IO18_BUF*%
X155768600Y-65727500D03*
%TO.P,U4,18,B2*%
%TO.N,IO5_BUF*%
X156418600Y-65727500D03*
%TO.P,U4,19,VCCB*%
%TO.N,+5V*%
X157068600Y-65727500D03*
%TO.P,U4,20,B1*%
%TO.N,IO16_BUF*%
X157718600Y-65727500D03*
%TD*%
D12*
%TO.P,C1,1*%
%TO.N,+5V*%
X137326400Y-64065000D03*
%TO.P,C1,2*%
%TO.N,GND*%
X137326400Y-65965000D03*
%TD*%
D19*
%TO.P,U1,1,GND*%
%TO.N,GND*%
X132726400Y-61849400D03*
D20*
%TO.P,U1,2,VO*%
%TO.N,+3V3*%
X135026400Y-55549400D03*
D19*
X135026400Y-61849400D03*
%TO.P,U1,3,VI*%
%TO.N,+5V*%
X137326400Y-61849400D03*
%TD*%
D21*
%TO.N,+5V*%
X137326400Y-61849400D03*
X145110200Y-64262000D03*
X132816600Y-67157600D03*
%TO.N,+3V3*%
X150545800Y-60223400D03*
X157073600Y-61518800D03*
%TD*%
D22*
%TO.N,+5V*%
X153879041Y-61849400D02*
X137326400Y-61849400D01*
X132816600Y-67157600D02*
X132818600Y-67159600D01*
X145118600Y-65727500D02*
X145118600Y-64270400D01*
X157068600Y-65038959D02*
X153879041Y-61849400D01*
X132818600Y-67159600D02*
X132818600Y-69367400D01*
X157068600Y-65727500D02*
X157068600Y-65038959D01*
X137326400Y-61849400D02*
X137326400Y-64065000D01*
X145118600Y-64270400D02*
X145110200Y-64262000D01*
%TO.N,+3V3*%
X147220300Y-59965000D02*
X147220300Y-59279200D01*
X146428900Y-58487800D02*
X150004000Y-58487800D01*
X140068600Y-41947800D02*
X140068600Y-42575400D01*
X140068600Y-41305400D02*
X140068600Y-41947800D01*
X145118600Y-50071800D02*
X141143600Y-46096800D01*
X157073600Y-60007500D02*
X157068600Y-60002500D01*
X145118600Y-60002500D02*
X145118600Y-58487800D01*
X150004000Y-58487800D02*
X150545800Y-59029600D01*
X145118600Y-58487800D02*
X145118600Y-50071800D01*
X145118600Y-58487800D02*
X146428900Y-58487800D01*
X135026400Y-61849400D02*
X135026400Y-64065000D01*
X157073600Y-61518800D02*
X157073600Y-60007500D01*
X141143600Y-43150400D02*
X140068600Y-42075400D01*
X150545800Y-59029600D02*
X150545800Y-60223400D01*
X135026400Y-55549400D02*
X135026400Y-61849400D01*
X139488600Y-42575400D02*
X138684000Y-43380000D01*
X140068600Y-42575400D02*
X139488600Y-42575400D01*
X141143600Y-46096800D02*
X141143600Y-43150400D01*
X137820800Y-55549400D02*
X135026400Y-55549400D01*
X147220300Y-59279200D02*
X146428900Y-58487800D01*
X138684000Y-43380000D02*
X138684000Y-54686200D01*
X138684000Y-54686200D02*
X137820800Y-55549400D01*
%TO.N,IO36*%
X144468600Y-50133000D02*
X140068600Y-45733000D01*
X144468600Y-60002500D02*
X144468600Y-50133000D01*
X140068600Y-45733000D02*
X140068600Y-43845400D01*
%TO.N,IO35*%
X143818600Y-50397400D02*
X141076600Y-47655400D01*
X141076600Y-47655400D02*
X140068600Y-47655400D01*
X143818600Y-60002500D02*
X143818600Y-50397400D01*
%TO.N,IO32*%
X143168600Y-51042800D02*
X141046200Y-48920400D01*
X140073600Y-48920400D02*
X140068600Y-48925400D01*
X141046200Y-48920400D02*
X140073600Y-48920400D01*
X143168600Y-60002500D02*
X143168600Y-51042800D01*
%TO.N,IO33*%
X140975000Y-50195400D02*
X142518600Y-51739000D01*
X142518600Y-51739000D02*
X142518600Y-60002500D01*
X140068600Y-50195400D02*
X140975000Y-50195400D01*
%TO.N,IO25*%
X140068600Y-51465400D02*
X141068600Y-51465400D01*
X141068600Y-51465400D02*
X141868600Y-52265400D01*
X141868600Y-52265400D02*
X141868600Y-60002500D01*
%TO.N,IO26*%
X140068600Y-52735400D02*
X141068600Y-52735400D01*
X141068600Y-52735400D02*
X141218600Y-52885400D01*
X141218600Y-52885400D02*
X141218600Y-60002500D01*
%TO.N,IO27*%
X140568600Y-54505400D02*
X140568600Y-60002500D01*
X140068600Y-54005400D02*
X140568600Y-54505400D01*
%TO.N,IO16*%
X157718600Y-54155400D02*
X157718600Y-60002500D01*
X157568600Y-54005400D02*
X157718600Y-54155400D01*
%TO.N,IO5*%
X156418600Y-52615400D02*
X156418600Y-60002500D01*
X156418600Y-52615400D02*
X157568600Y-51465400D01*
%TO.N,IO18*%
X155768600Y-50995400D02*
X155768600Y-60002500D01*
X157568600Y-50195400D02*
X156568600Y-50195400D01*
X156568600Y-50195400D02*
X155768600Y-50995400D01*
%TO.N,IO19*%
X156568600Y-48925400D02*
X155118600Y-50375400D01*
X155118600Y-50375400D02*
X155118600Y-60002500D01*
X157568600Y-48925400D02*
X156568600Y-48925400D01*
%TO.N,IO21*%
X154468600Y-49485400D02*
X157568600Y-46385400D01*
X154468600Y-49485400D02*
X154468600Y-60002500D01*
%TO.N,IO3*%
X157568600Y-45115400D02*
X156568600Y-45115400D01*
X153818600Y-47865400D02*
X153818600Y-60002500D01*
X156568600Y-45115400D02*
X153818600Y-47865400D01*
%TO.N,IO22*%
X153168600Y-60002500D02*
X153168600Y-46975400D01*
X153168600Y-46975400D02*
X157568600Y-42575400D01*
%TO.N,IO23*%
X156568600Y-41305400D02*
X152518600Y-45355400D01*
X157568600Y-41305400D02*
X156568600Y-41305400D01*
X152518600Y-45355400D02*
X152518600Y-60002500D01*
%TO.N,OE*%
X149731100Y-61389900D02*
X149733000Y-61391800D01*
X139918600Y-60691041D02*
X139928600Y-60701041D01*
X139928600Y-61112400D02*
X140208000Y-61391800D01*
X151868600Y-60958000D02*
X151868600Y-60002500D01*
X149045300Y-59965000D02*
X149045300Y-61368300D01*
X139928600Y-60701041D02*
X139928600Y-61112400D01*
X151434800Y-61391800D02*
X151868600Y-60958000D01*
X140208000Y-61391800D02*
X149021800Y-61391800D01*
X149045300Y-61368300D02*
X149021800Y-61391800D01*
X139918600Y-60002500D02*
X139918600Y-60691041D01*
X149733000Y-61391800D02*
X151434800Y-61391800D01*
X149021800Y-61391800D02*
X149733000Y-61391800D01*
%TO.N,IO36_BUF*%
X144468600Y-65727500D02*
X144468600Y-67017400D01*
X144468600Y-67017400D02*
X146818600Y-69367400D01*
%TO.N,IO35_BUF*%
X143818600Y-65727500D02*
X143818600Y-67839600D01*
X143814800Y-67843400D02*
X143814800Y-68363600D01*
X143818600Y-67839600D02*
X143814800Y-67843400D01*
X143814800Y-65731300D02*
X143818600Y-65727500D01*
X143814800Y-68363600D02*
X144818600Y-69367400D01*
%TO.N,IO32_BUF*%
X142818600Y-67366400D02*
X142818600Y-69367400D01*
X143168600Y-67016400D02*
X142818600Y-67366400D01*
X143168600Y-65727500D02*
X143168600Y-67016400D01*
%TO.N,IO33_BUF*%
X142518600Y-65727500D02*
X142518600Y-66548800D01*
X142519400Y-65728300D02*
X142518600Y-65727500D01*
X140818600Y-68248800D02*
X140818600Y-69367400D01*
X142518600Y-66548800D02*
X140818600Y-68248800D01*
%TO.N,IO25_BUF*%
X138818600Y-68343800D02*
X138818600Y-69367400D01*
X139268200Y-67894200D02*
X138818600Y-68343800D01*
X141868600Y-65727500D02*
X141868600Y-66416041D01*
X141868600Y-66416041D02*
X140390441Y-67894200D01*
X140390441Y-67894200D02*
X139268200Y-67894200D01*
%TO.N,IO26_BUF*%
X136818600Y-68126800D02*
X136818600Y-69367400D01*
X137541000Y-67404400D02*
X136818600Y-68126800D01*
X140230241Y-67404400D02*
X137541000Y-67404400D01*
X141218600Y-66416041D02*
X140230241Y-67404400D01*
X141218600Y-65727500D02*
X141218600Y-66416041D01*
%TO.N,IO27_BUF*%
X140030241Y-66954400D02*
X135509000Y-66954400D01*
X140568600Y-66416041D02*
X140030241Y-66954400D01*
X135509000Y-66954400D02*
X134818600Y-67644800D01*
X140568600Y-65727500D02*
X140568600Y-66416041D01*
X134818600Y-67644800D02*
X134818600Y-69367400D01*
%TO.N,IO23_BUF*%
X152518600Y-66416041D02*
X151853241Y-67081400D01*
X148818600Y-68300600D02*
X148818600Y-69367400D01*
X151853241Y-67081400D02*
X150037800Y-67081400D01*
X150037800Y-67081400D02*
X148818600Y-68300600D01*
X152518600Y-65727500D02*
X152518600Y-66416041D01*
%TO.N,IO22_BUF*%
X151333200Y-67614800D02*
X152222200Y-67614800D01*
X153168600Y-66668400D02*
X153168600Y-65727500D01*
X150818600Y-68129400D02*
X151333200Y-67614800D01*
X153187400Y-65746300D02*
X153168600Y-65727500D01*
X152222200Y-67614800D02*
X153168600Y-66668400D01*
X150818600Y-69367400D02*
X150818600Y-68129400D01*
%TO.N,IO3_BUF*%
X152818600Y-67932800D02*
X153818600Y-66932800D01*
X153822400Y-65731300D02*
X153818600Y-65727500D01*
X153818600Y-66932800D02*
X153818600Y-65727500D01*
X152818600Y-69367400D02*
X152818600Y-67932800D01*
%TO.N,IO21_BUF*%
X154457400Y-67868800D02*
X154457400Y-65738700D01*
X154818600Y-68230000D02*
X154457400Y-67868800D01*
X154818600Y-69367400D02*
X154818600Y-68230000D01*
X154457400Y-65738700D02*
X154468600Y-65727500D01*
%TO.N,IO19_BUF*%
X155118600Y-67667400D02*
X155118600Y-65727500D01*
X156818600Y-69367400D02*
X155118600Y-67667400D01*
X155117800Y-65728300D02*
X155118600Y-65727500D01*
%TO.N,IO18_BUF*%
X158818600Y-69367400D02*
X157294600Y-67843400D01*
X157294600Y-67843400D02*
X156210000Y-67843400D01*
X155768600Y-67402000D02*
X155768600Y-65727500D01*
X156210000Y-67843400D02*
X155768600Y-67402000D01*
%TO.N,IO5_BUF*%
X156418600Y-66416041D02*
X157337959Y-67335400D01*
X156418600Y-65727500D02*
X156418600Y-66416041D01*
X158786600Y-67335400D02*
X160818600Y-69367400D01*
X157337959Y-67335400D02*
X158786600Y-67335400D01*
%TO.N,IO16_BUF*%
X160336600Y-66885400D02*
X162818600Y-69367400D01*
X157718600Y-66608800D02*
X157995200Y-66885400D01*
X157718600Y-65727500D02*
X157718600Y-66608800D01*
X157995200Y-66885400D02*
X160336600Y-66885400D01*
%TD*%
%TA.AperFunction,Conductor*%
%TO.N,GND*%
G36*
X138956485Y-39009502D02*
G01*
X139002978Y-39063158D01*
X139013082Y-39133432D01*
X138983588Y-39198012D01*
X138963927Y-39216328D01*
X138962873Y-39217118D01*
X138950315Y-39229676D01*
X138873814Y-39331751D01*
X138865276Y-39347346D01*
X138820122Y-39467794D01*
X138816495Y-39483049D01*
X138810969Y-39533914D01*
X138810600Y-39540728D01*
X138810600Y-39763285D01*
X138815075Y-39778524D01*
X138816465Y-39779729D01*
X138824148Y-39781400D01*
X141308484Y-39781400D01*
X141323723Y-39776925D01*
X141324928Y-39775535D01*
X141326599Y-39767852D01*
X141326599Y-39540731D01*
X141326229Y-39533910D01*
X141320705Y-39483048D01*
X141317079Y-39467796D01*
X141271924Y-39347346D01*
X141263386Y-39331751D01*
X141186885Y-39229676D01*
X141174327Y-39217118D01*
X141173273Y-39216328D01*
X141172490Y-39215281D01*
X141167974Y-39210765D01*
X141168626Y-39210113D01*
X141130757Y-39159470D01*
X141125730Y-39088651D01*
X141159788Y-39026357D01*
X141222118Y-38992365D01*
X141248836Y-38989500D01*
X156388364Y-38989500D01*
X156456485Y-39009502D01*
X156502978Y-39063158D01*
X156513082Y-39133432D01*
X156483588Y-39198012D01*
X156463927Y-39216328D01*
X156462873Y-39217118D01*
X156450315Y-39229676D01*
X156373814Y-39331751D01*
X156365276Y-39347346D01*
X156320122Y-39467794D01*
X156316495Y-39483049D01*
X156310969Y-39533914D01*
X156310600Y-39540728D01*
X156310600Y-39763285D01*
X156315075Y-39778524D01*
X156316465Y-39779729D01*
X156324148Y-39781400D01*
X158808484Y-39781400D01*
X158823723Y-39776925D01*
X158824928Y-39775535D01*
X158826599Y-39767852D01*
X158826599Y-39540731D01*
X158826229Y-39533910D01*
X158820705Y-39483048D01*
X158817079Y-39467796D01*
X158771924Y-39347346D01*
X158763386Y-39331751D01*
X158686885Y-39229676D01*
X158674327Y-39217118D01*
X158673273Y-39216328D01*
X158672490Y-39215281D01*
X158667974Y-39210765D01*
X158668626Y-39210113D01*
X158630757Y-39159470D01*
X158625730Y-39088651D01*
X158659788Y-39026357D01*
X158722118Y-38992365D01*
X158748836Y-38989500D01*
X165760900Y-38989500D01*
X165829021Y-39009502D01*
X165875514Y-39063158D01*
X165886900Y-39115500D01*
X165886900Y-68455742D01*
X165866898Y-68523863D01*
X165813242Y-68570356D01*
X165742968Y-68580460D01*
X165675371Y-68548267D01*
X165546090Y-68428761D01*
X165536965Y-68421760D01*
X165362855Y-68311905D01*
X165352608Y-68306684D01*
X165161393Y-68230397D01*
X165150367Y-68227130D01*
X165090370Y-68215197D01*
X165077494Y-68216349D01*
X165072600Y-68231502D01*
X165072600Y-69495400D01*
X165052598Y-69563521D01*
X164998942Y-69610014D01*
X164946600Y-69621400D01*
X164690600Y-69621400D01*
X164622479Y-69601398D01*
X164575986Y-69547742D01*
X164564600Y-69495400D01*
X164564600Y-68228737D01*
X164560794Y-68215775D01*
X164545878Y-68213839D01*
X164516802Y-68218835D01*
X164505682Y-68221815D01*
X164312540Y-68293069D01*
X164302162Y-68298019D01*
X164125239Y-68403277D01*
X164115927Y-68410043D01*
X163961147Y-68545781D01*
X163953229Y-68554125D01*
X163918917Y-68597649D01*
X163861036Y-68638761D01*
X163790116Y-68642055D01*
X163728673Y-68606483D01*
X163719010Y-68595031D01*
X163705333Y-68576715D01*
X163705332Y-68576714D01*
X163701880Y-68572091D01*
X163692938Y-68563825D01*
X163546396Y-68428363D01*
X163546393Y-68428361D01*
X163542156Y-68424444D01*
X163358199Y-68308376D01*
X163156172Y-68227776D01*
X162942839Y-68185341D01*
X162937064Y-68185265D01*
X162937060Y-68185265D01*
X162828019Y-68183838D01*
X162725346Y-68182494D01*
X162719649Y-68183473D01*
X162719648Y-68183473D01*
X162622601Y-68200149D01*
X162552077Y-68191972D01*
X162512168Y-68165064D01*
X161694633Y-67347528D01*
X160840252Y-66493147D01*
X160832712Y-66484861D01*
X160828600Y-66478382D01*
X160820945Y-66471193D01*
X160778949Y-66431757D01*
X160776107Y-66429002D01*
X160756370Y-66409265D01*
X160753173Y-66406785D01*
X160744151Y-66399080D01*
X160711921Y-66368814D01*
X160704975Y-66364995D01*
X160704972Y-66364993D01*
X160694166Y-66359052D01*
X160677647Y-66348201D01*
X160677183Y-66347841D01*
X160661641Y-66335786D01*
X160654372Y-66332641D01*
X160654368Y-66332638D01*
X160621063Y-66318226D01*
X160610413Y-66313009D01*
X160571660Y-66291705D01*
X160552037Y-66286667D01*
X160533334Y-66280263D01*
X160522020Y-66275367D01*
X160522019Y-66275367D01*
X160514745Y-66272219D01*
X160506922Y-66270980D01*
X160506912Y-66270977D01*
X160471076Y-66265301D01*
X160459456Y-66262895D01*
X160424311Y-66253872D01*
X160424310Y-66253872D01*
X160416630Y-66251900D01*
X160396376Y-66251900D01*
X160376665Y-66250349D01*
X160364486Y-66248420D01*
X160356657Y-66247180D01*
X160348765Y-66247926D01*
X160312639Y-66251341D01*
X160300781Y-66251900D01*
X158553100Y-66251900D01*
X158484979Y-66231898D01*
X158438486Y-66178242D01*
X158427100Y-66125900D01*
X158427099Y-65054239D01*
X158427099Y-65050116D01*
X158421439Y-65007115D01*
X158412516Y-64939337D01*
X158412516Y-64939335D01*
X158411438Y-64931150D01*
X158363425Y-64815236D01*
X158353284Y-64790752D01*
X158353283Y-64790750D01*
X158350124Y-64783124D01*
X158252587Y-64656013D01*
X158246037Y-64650987D01*
X158246034Y-64650984D01*
X158189031Y-64607245D01*
X158125475Y-64558476D01*
X157995186Y-64504509D01*
X157985079Y-64500322D01*
X157977450Y-64497162D01*
X157956729Y-64494434D01*
X157862572Y-64482038D01*
X157862571Y-64482038D01*
X157858485Y-64481500D01*
X157718617Y-64481500D01*
X157578716Y-64481501D01*
X157488619Y-64493362D01*
X157418472Y-64482422D01*
X157383080Y-64457535D01*
X155892661Y-62967115D01*
X154389140Y-61463594D01*
X154355114Y-61401282D01*
X154360179Y-61330466D01*
X154402726Y-61273631D01*
X154469246Y-61248820D01*
X154478222Y-61248499D01*
X154608484Y-61248499D01*
X154612569Y-61247961D01*
X154612573Y-61247961D01*
X154719263Y-61233916D01*
X154719265Y-61233916D01*
X154727450Y-61232838D01*
X154745381Y-61225411D01*
X154815970Y-61217821D01*
X154841818Y-61225410D01*
X154845261Y-61226837D01*
X154852120Y-61229678D01*
X154852123Y-61229679D01*
X154859750Y-61232838D01*
X154867938Y-61233916D01*
X154974621Y-61247961D01*
X154978715Y-61248500D01*
X155118583Y-61248500D01*
X155258484Y-61248499D01*
X155262569Y-61247961D01*
X155262573Y-61247961D01*
X155369263Y-61233916D01*
X155369265Y-61233916D01*
X155377450Y-61232838D01*
X155395381Y-61225411D01*
X155465970Y-61217821D01*
X155491818Y-61225410D01*
X155495261Y-61226837D01*
X155502120Y-61229678D01*
X155502123Y-61229679D01*
X155509750Y-61232838D01*
X155517938Y-61233916D01*
X155624621Y-61247961D01*
X155628715Y-61248500D01*
X155768583Y-61248500D01*
X155908484Y-61248499D01*
X155912569Y-61247961D01*
X155912573Y-61247961D01*
X156027450Y-61232838D01*
X156027670Y-61234511D01*
X156088889Y-61235973D01*
X156147681Y-61275772D01*
X156175624Y-61341038D01*
X156175824Y-61369156D01*
X156160096Y-61518800D01*
X156180058Y-61708728D01*
X156239073Y-61890356D01*
X156334560Y-62055744D01*
X156462347Y-62197666D01*
X156616848Y-62309918D01*
X156622876Y-62312602D01*
X156622878Y-62312603D01*
X156785281Y-62384909D01*
X156791312Y-62387594D01*
X156884713Y-62407447D01*
X156971656Y-62425928D01*
X156971661Y-62425928D01*
X156978113Y-62427300D01*
X157169087Y-62427300D01*
X157175539Y-62425928D01*
X157175544Y-62425928D01*
X157262487Y-62407447D01*
X157355888Y-62387594D01*
X157361919Y-62384909D01*
X157524322Y-62312603D01*
X157524324Y-62312602D01*
X157530352Y-62309918D01*
X157684853Y-62197666D01*
X157812640Y-62055744D01*
X157908127Y-61890356D01*
X157967142Y-61708728D01*
X157987104Y-61518800D01*
X157967734Y-61334508D01*
X157980506Y-61264671D01*
X158029008Y-61212825D01*
X158044826Y-61204930D01*
X158049937Y-61202813D01*
X158125476Y-61171524D01*
X158252587Y-61073987D01*
X158257613Y-61067437D01*
X158257616Y-61067434D01*
X158342099Y-60957333D01*
X158350124Y-60946875D01*
X158411438Y-60798850D01*
X158427100Y-60679885D01*
X158427099Y-59325116D01*
X158411438Y-59206150D01*
X158361691Y-59086050D01*
X158352100Y-59037832D01*
X158352100Y-55073270D01*
X158372102Y-55005149D01*
X158425758Y-54958656D01*
X158433870Y-54955288D01*
X158556897Y-54909167D01*
X158565305Y-54906015D01*
X158681861Y-54818661D01*
X158769215Y-54702105D01*
X158820345Y-54565716D01*
X158827100Y-54503534D01*
X158827100Y-53507266D01*
X158820345Y-53445084D01*
X158769215Y-53308695D01*
X158681861Y-53192139D01*
X158565305Y-53104785D01*
X158428916Y-53053655D01*
X158366734Y-53046900D01*
X157187194Y-53046900D01*
X157119073Y-53026898D01*
X157072580Y-52973242D01*
X157062476Y-52902968D01*
X157091970Y-52838388D01*
X157098099Y-52831805D01*
X157469099Y-52460805D01*
X157531411Y-52426779D01*
X157558194Y-52423900D01*
X158366734Y-52423900D01*
X158428916Y-52417145D01*
X158565305Y-52366015D01*
X158681861Y-52278661D01*
X158769215Y-52162105D01*
X158820345Y-52025716D01*
X158827100Y-51963534D01*
X158827100Y-50967266D01*
X158820345Y-50905084D01*
X158808928Y-50874629D01*
X158803745Y-50803823D01*
X158808926Y-50786176D01*
X158820345Y-50755716D01*
X158827100Y-50693534D01*
X158827100Y-49697266D01*
X158820345Y-49635084D01*
X158808928Y-49604629D01*
X158803745Y-49533823D01*
X158808926Y-49516176D01*
X158820345Y-49485716D01*
X158827100Y-49423534D01*
X158827100Y-48427266D01*
X158820345Y-48365084D01*
X158769215Y-48228695D01*
X158681861Y-48112139D01*
X158565305Y-48024785D01*
X158428916Y-47973655D01*
X158366734Y-47966900D01*
X157187195Y-47966900D01*
X157119074Y-47946898D01*
X157072581Y-47893242D01*
X157062477Y-47822968D01*
X157091971Y-47758388D01*
X157098100Y-47751805D01*
X157469100Y-47380805D01*
X157531412Y-47346779D01*
X157558195Y-47343900D01*
X158366734Y-47343900D01*
X158428916Y-47337145D01*
X158565305Y-47286015D01*
X158681861Y-47198661D01*
X158769215Y-47082105D01*
X158820345Y-46945716D01*
X158827100Y-46883534D01*
X158827100Y-45887266D01*
X158820345Y-45825084D01*
X158808928Y-45794629D01*
X158803745Y-45723823D01*
X158808926Y-45706176D01*
X158820345Y-45675716D01*
X158827100Y-45613534D01*
X158827100Y-44617266D01*
X158820345Y-44555084D01*
X158769215Y-44418695D01*
X158681861Y-44302139D01*
X158565305Y-44214785D01*
X158428916Y-44163655D01*
X158366734Y-44156900D01*
X157187194Y-44156900D01*
X157119073Y-44136898D01*
X157072580Y-44083242D01*
X157062476Y-44012968D01*
X157091970Y-43948388D01*
X157098099Y-43941805D01*
X157469099Y-43570805D01*
X157531411Y-43536779D01*
X157558194Y-43533900D01*
X158366734Y-43533900D01*
X158428916Y-43527145D01*
X158565305Y-43476015D01*
X158681861Y-43388661D01*
X158769215Y-43272105D01*
X158820345Y-43135716D01*
X158827100Y-43073534D01*
X158827100Y-42077266D01*
X158820345Y-42015084D01*
X158808928Y-41984629D01*
X158803745Y-41913823D01*
X158808926Y-41896176D01*
X158820345Y-41865716D01*
X158827100Y-41803534D01*
X158827100Y-40807266D01*
X158820345Y-40745084D01*
X158808661Y-40713917D01*
X158803478Y-40643112D01*
X158808661Y-40625457D01*
X158817079Y-40603002D01*
X158820705Y-40587751D01*
X158826231Y-40536886D01*
X158826600Y-40530072D01*
X158826600Y-40307515D01*
X158822125Y-40292276D01*
X158820735Y-40291071D01*
X158813052Y-40289400D01*
X156328716Y-40289400D01*
X156313477Y-40293875D01*
X156312272Y-40295265D01*
X156310601Y-40302948D01*
X156310601Y-40530069D01*
X156310971Y-40536890D01*
X156316494Y-40587749D01*
X156321368Y-40608249D01*
X156317663Y-40679149D01*
X156276215Y-40736791D01*
X156264682Y-40744384D01*
X156260983Y-40745848D01*
X156254574Y-40750504D01*
X156254571Y-40750506D01*
X156225213Y-40771836D01*
X156215293Y-40778352D01*
X156184065Y-40796820D01*
X156184062Y-40796822D01*
X156177238Y-40800858D01*
X156162917Y-40815179D01*
X156147884Y-40828019D01*
X156131493Y-40839928D01*
X156126442Y-40846034D01*
X156103302Y-40874005D01*
X156095312Y-40882784D01*
X152126347Y-44851748D01*
X152118061Y-44859288D01*
X152111582Y-44863400D01*
X152106157Y-44869177D01*
X152064957Y-44913051D01*
X152062202Y-44915893D01*
X152042465Y-44935630D01*
X152039985Y-44938827D01*
X152032282Y-44947847D01*
X152002014Y-44980079D01*
X151998195Y-44987025D01*
X151998193Y-44987028D01*
X151992252Y-44997834D01*
X151981401Y-45014353D01*
X151968986Y-45030359D01*
X151965841Y-45037628D01*
X151965838Y-45037632D01*
X151951426Y-45070937D01*
X151946209Y-45081587D01*
X151924905Y-45120340D01*
X151922934Y-45128015D01*
X151922934Y-45128016D01*
X151919867Y-45139962D01*
X151913463Y-45158666D01*
X151905419Y-45177255D01*
X151904180Y-45185078D01*
X151904177Y-45185088D01*
X151898501Y-45220924D01*
X151896095Y-45232544D01*
X151893938Y-45240946D01*
X151885100Y-45275370D01*
X151885100Y-45295624D01*
X151883549Y-45315334D01*
X151880380Y-45335343D01*
X151881126Y-45343235D01*
X151884541Y-45379361D01*
X151885100Y-45391219D01*
X151885100Y-58630501D01*
X151865098Y-58698622D01*
X151811442Y-58745115D01*
X151759101Y-58756501D01*
X151728716Y-58756501D01*
X151724631Y-58757039D01*
X151724627Y-58757039D01*
X151617937Y-58771084D01*
X151617935Y-58771084D01*
X151609750Y-58772162D01*
X151535737Y-58802819D01*
X151469352Y-58830316D01*
X151469350Y-58830317D01*
X151461724Y-58833476D01*
X151354663Y-58915628D01*
X151288445Y-58941228D01*
X151218896Y-58926964D01*
X151168099Y-58877363D01*
X151160808Y-58862048D01*
X151147998Y-58829693D01*
X151144154Y-58818465D01*
X151134030Y-58783622D01*
X151131818Y-58776007D01*
X151121507Y-58758572D01*
X151112812Y-58740824D01*
X151105352Y-58721983D01*
X151079364Y-58686213D01*
X151072848Y-58676293D01*
X151054380Y-58645065D01*
X151054378Y-58645062D01*
X151050342Y-58638238D01*
X151036021Y-58623917D01*
X151023180Y-58608883D01*
X151015932Y-58598907D01*
X151011272Y-58592493D01*
X150977207Y-58564312D01*
X150968426Y-58556322D01*
X150507647Y-58095542D01*
X150500113Y-58087263D01*
X150496000Y-58080782D01*
X150446348Y-58034156D01*
X150443507Y-58031402D01*
X150423770Y-58011665D01*
X150420573Y-58009185D01*
X150411551Y-58001480D01*
X150385100Y-57976641D01*
X150379321Y-57971214D01*
X150372375Y-57967395D01*
X150372372Y-57967393D01*
X150361566Y-57961452D01*
X150345047Y-57950601D01*
X150344583Y-57950241D01*
X150329041Y-57938186D01*
X150321772Y-57935041D01*
X150321768Y-57935038D01*
X150288463Y-57920626D01*
X150277813Y-57915409D01*
X150239060Y-57894105D01*
X150219437Y-57889067D01*
X150200734Y-57882663D01*
X150189420Y-57877767D01*
X150189419Y-57877767D01*
X150182145Y-57874619D01*
X150174322Y-57873380D01*
X150174312Y-57873377D01*
X150138476Y-57867701D01*
X150126856Y-57865295D01*
X150091711Y-57856272D01*
X150091710Y-57856272D01*
X150084030Y-57854300D01*
X150063776Y-57854300D01*
X150044065Y-57852749D01*
X150031886Y-57850820D01*
X150024057Y-57849580D01*
X150016165Y-57850326D01*
X149980039Y-57853741D01*
X149968181Y-57854300D01*
X146488676Y-57854300D01*
X146468965Y-57852749D01*
X146456786Y-57850820D01*
X146448957Y-57849580D01*
X146441065Y-57850326D01*
X146404939Y-57853741D01*
X146393081Y-57854300D01*
X145878100Y-57854300D01*
X145809979Y-57834298D01*
X145763486Y-57780642D01*
X145752100Y-57728300D01*
X145752100Y-50150567D01*
X145752627Y-50139384D01*
X145754302Y-50131891D01*
X145753196Y-50096707D01*
X145771048Y-50027992D01*
X145823216Y-49979837D01*
X145893138Y-49967530D01*
X145913240Y-49972343D01*
X145913309Y-49972051D01*
X145936249Y-49977505D01*
X145987114Y-49983031D01*
X145993928Y-49983400D01*
X147866485Y-49983400D01*
X147881724Y-49978925D01*
X147882929Y-49977535D01*
X147884600Y-49969852D01*
X147884600Y-49965284D01*
X148392600Y-49965284D01*
X148397075Y-49980523D01*
X148398465Y-49981728D01*
X148406148Y-49983399D01*
X150283269Y-49983399D01*
X150290090Y-49983029D01*
X150340952Y-49977505D01*
X150356204Y-49973879D01*
X150476654Y-49928724D01*
X150492249Y-49920186D01*
X150594324Y-49843685D01*
X150606885Y-49831124D01*
X150683386Y-49729049D01*
X150691924Y-49713454D01*
X150737078Y-49593006D01*
X150740705Y-49577751D01*
X150746231Y-49526886D01*
X150746600Y-49520072D01*
X150746600Y-47647515D01*
X150742125Y-47632276D01*
X150740735Y-47631071D01*
X150733052Y-47629400D01*
X150284079Y-47629400D01*
X150273054Y-47632637D01*
X150276292Y-47639727D01*
X150297873Y-47661308D01*
X150331899Y-47723620D01*
X150326835Y-47794436D01*
X150297875Y-47839500D01*
X150012284Y-48125092D01*
X150004673Y-48139030D01*
X150004805Y-48140866D01*
X150009054Y-48147478D01*
X150297875Y-48436300D01*
X150331900Y-48498612D01*
X150326835Y-48569428D01*
X150297874Y-48614491D01*
X150219032Y-48693332D01*
X150140189Y-48772175D01*
X150077876Y-48806200D01*
X150007061Y-48801134D01*
X149961999Y-48772174D01*
X149930412Y-48740587D01*
X149920323Y-48735078D01*
X149917600Y-48742379D01*
X149917600Y-49028400D01*
X149897598Y-49096521D01*
X149843942Y-49143014D01*
X149791600Y-49154400D01*
X149509090Y-49154400D01*
X149498065Y-49157637D01*
X149501303Y-49164728D01*
X149535374Y-49198799D01*
X149569400Y-49261111D01*
X149564335Y-49331926D01*
X149535374Y-49376989D01*
X149456532Y-49455831D01*
X149377690Y-49534674D01*
X149315378Y-49568700D01*
X149244563Y-49563635D01*
X149199500Y-49534675D01*
X148913908Y-49249084D01*
X148899970Y-49241473D01*
X148898134Y-49241605D01*
X148891522Y-49245854D01*
X148602700Y-49534675D01*
X148540388Y-49568700D01*
X148469572Y-49563635D01*
X148424508Y-49534673D01*
X148405408Y-49515572D01*
X148395323Y-49510066D01*
X148392600Y-49517368D01*
X148392600Y-49965284D01*
X147884600Y-49965284D01*
X147884600Y-49520879D01*
X147881363Y-49509854D01*
X147874273Y-49513092D01*
X147852692Y-49534673D01*
X147790380Y-49568699D01*
X147719564Y-49563635D01*
X147674500Y-49534675D01*
X147388908Y-49249084D01*
X147374970Y-49241473D01*
X147373134Y-49241605D01*
X147366522Y-49245854D01*
X147077700Y-49534675D01*
X147015388Y-49568700D01*
X146944572Y-49563635D01*
X146899509Y-49534674D01*
X146820668Y-49455832D01*
X146741825Y-49376989D01*
X146707800Y-49314676D01*
X146712866Y-49243861D01*
X146741826Y-49198799D01*
X146773413Y-49167212D01*
X146778922Y-49157123D01*
X146771621Y-49154400D01*
X146485600Y-49154400D01*
X146417479Y-49134398D01*
X146370986Y-49080742D01*
X146359600Y-49028400D01*
X146359600Y-48745890D01*
X146356363Y-48734865D01*
X146349272Y-48738103D01*
X146315201Y-48772174D01*
X146252889Y-48806200D01*
X146182074Y-48801135D01*
X146137011Y-48772174D01*
X146058169Y-48693332D01*
X145979326Y-48614490D01*
X145945300Y-48552178D01*
X145950365Y-48481363D01*
X145979325Y-48436300D01*
X146264916Y-48150708D01*
X146271293Y-48139029D01*
X146954674Y-48139029D01*
X146954805Y-48140868D01*
X146959053Y-48147477D01*
X146988605Y-48177030D01*
X146988604Y-48177030D01*
X146988605Y-48177031D01*
X147363290Y-48551715D01*
X147377230Y-48559327D01*
X147379066Y-48559195D01*
X147385678Y-48554946D01*
X147763595Y-48177030D01*
X147763597Y-48177028D01*
X147789915Y-48150709D01*
X147796293Y-48139029D01*
X148479674Y-48139029D01*
X148479805Y-48140868D01*
X148484053Y-48147477D01*
X148513605Y-48177030D01*
X148513604Y-48177030D01*
X148513605Y-48177031D01*
X148888290Y-48551715D01*
X148902230Y-48559327D01*
X148904066Y-48559195D01*
X148910678Y-48554946D01*
X149288595Y-48177030D01*
X149288597Y-48177028D01*
X149314915Y-48150709D01*
X149322526Y-48136771D01*
X149322395Y-48134933D01*
X149318145Y-48128321D01*
X148940230Y-47750405D01*
X148940228Y-47750403D01*
X148913909Y-47724085D01*
X148899971Y-47716474D01*
X148898133Y-47716605D01*
X148891521Y-47720855D01*
X148513605Y-48098770D01*
X148513603Y-48098772D01*
X148487285Y-48125091D01*
X148479674Y-48139029D01*
X147796293Y-48139029D01*
X147797526Y-48136771D01*
X147797395Y-48134933D01*
X147793145Y-48128321D01*
X147415230Y-47750405D01*
X147415228Y-47750403D01*
X147388909Y-47724085D01*
X147374971Y-47716474D01*
X147373133Y-47716605D01*
X147366521Y-47720855D01*
X146988605Y-48098770D01*
X146988603Y-48098772D01*
X146962285Y-48125091D01*
X146954674Y-48139029D01*
X146271293Y-48139029D01*
X146272527Y-48136770D01*
X146272395Y-48134934D01*
X146268146Y-48128322D01*
X145979325Y-47839500D01*
X145945300Y-47777188D01*
X145950365Y-47706372D01*
X145979327Y-47661308D01*
X145998428Y-47642208D01*
X146003934Y-47632123D01*
X145996632Y-47629400D01*
X145548716Y-47629400D01*
X145533477Y-47633875D01*
X145532272Y-47635265D01*
X145530601Y-47642948D01*
X145530601Y-49283707D01*
X145510599Y-49351828D01*
X145456943Y-49398321D01*
X145386669Y-49408425D01*
X145322089Y-49378931D01*
X145315506Y-49372802D01*
X143659310Y-47716605D01*
X143045990Y-47103285D01*
X145530600Y-47103285D01*
X145535075Y-47118524D01*
X145536465Y-47119729D01*
X145544148Y-47121400D01*
X145993121Y-47121400D01*
X146004146Y-47118163D01*
X146000908Y-47111073D01*
X145979327Y-47089492D01*
X145945301Y-47027180D01*
X145950365Y-46956364D01*
X145979325Y-46911300D01*
X146264916Y-46625708D01*
X146271293Y-46614029D01*
X146954674Y-46614029D01*
X146954805Y-46615868D01*
X146959053Y-46622477D01*
X146988605Y-46652030D01*
X146988604Y-46652030D01*
X146988605Y-46652031D01*
X147363290Y-47026715D01*
X147377230Y-47034327D01*
X147379066Y-47034195D01*
X147385678Y-47029946D01*
X147763595Y-46652030D01*
X147763597Y-46652028D01*
X147789915Y-46625709D01*
X147796293Y-46614029D01*
X148479674Y-46614029D01*
X148479805Y-46615868D01*
X148484053Y-46622477D01*
X148513605Y-46652030D01*
X148513604Y-46652030D01*
X148513605Y-46652031D01*
X148888290Y-47026715D01*
X148902230Y-47034327D01*
X148904066Y-47034195D01*
X148910678Y-47029946D01*
X149288595Y-46652030D01*
X149288597Y-46652028D01*
X149314915Y-46625709D01*
X149322526Y-46611771D01*
X149322395Y-46609933D01*
X149318145Y-46603321D01*
X148940230Y-46225405D01*
X148940228Y-46225403D01*
X148913909Y-46199085D01*
X148899971Y-46191474D01*
X148898133Y-46191605D01*
X148891521Y-46195855D01*
X148513605Y-46573770D01*
X148513603Y-46573772D01*
X148487285Y-46600091D01*
X148479674Y-46614029D01*
X147796293Y-46614029D01*
X147797526Y-46611771D01*
X147797395Y-46609933D01*
X147793145Y-46603321D01*
X147415230Y-46225405D01*
X147415228Y-46225403D01*
X147388909Y-46199085D01*
X147374971Y-46191474D01*
X147373133Y-46191605D01*
X147366521Y-46195855D01*
X146988605Y-46573770D01*
X146988603Y-46573772D01*
X146962285Y-46600091D01*
X146954674Y-46614029D01*
X146271293Y-46614029D01*
X146272527Y-46611770D01*
X146272395Y-46609934D01*
X146268146Y-46603322D01*
X145979325Y-46314500D01*
X145945300Y-46252188D01*
X145950365Y-46181372D01*
X145979326Y-46136309D01*
X146058168Y-46057468D01*
X146137011Y-45978625D01*
X146199324Y-45944600D01*
X146270139Y-45949666D01*
X146315201Y-45978626D01*
X146346788Y-46010213D01*
X146356877Y-46015722D01*
X146359600Y-46008421D01*
X146359600Y-45722400D01*
X146379602Y-45654279D01*
X146433258Y-45607786D01*
X146485600Y-45596400D01*
X146768110Y-45596400D01*
X146779135Y-45593163D01*
X146775897Y-45586072D01*
X146741826Y-45552001D01*
X146707800Y-45489689D01*
X146712865Y-45418874D01*
X146741826Y-45373811D01*
X146820668Y-45294969D01*
X146899510Y-45216126D01*
X146961822Y-45182100D01*
X147032637Y-45187165D01*
X147077700Y-45216125D01*
X147363292Y-45501716D01*
X147377230Y-45509327D01*
X147379066Y-45509195D01*
X147385678Y-45504946D01*
X147674500Y-45216125D01*
X147736812Y-45182100D01*
X147807628Y-45187165D01*
X147852692Y-45216127D01*
X147871792Y-45235228D01*
X147881877Y-45240734D01*
X147884600Y-45233432D01*
X147884600Y-45229921D01*
X148392600Y-45229921D01*
X148395837Y-45240946D01*
X148402927Y-45237708D01*
X148424508Y-45216127D01*
X148486820Y-45182101D01*
X148557636Y-45187165D01*
X148602700Y-45216125D01*
X148888292Y-45501716D01*
X148902230Y-45509327D01*
X148904066Y-45509195D01*
X148910678Y-45504946D01*
X149199500Y-45216125D01*
X149261812Y-45182100D01*
X149332628Y-45187165D01*
X149377691Y-45216126D01*
X149456532Y-45294968D01*
X149535375Y-45373811D01*
X149569400Y-45436124D01*
X149564334Y-45506939D01*
X149535374Y-45552001D01*
X149503787Y-45583588D01*
X149498278Y-45593677D01*
X149505579Y-45596400D01*
X149791600Y-45596400D01*
X149859721Y-45616402D01*
X149906214Y-45670058D01*
X149917600Y-45722400D01*
X149917600Y-46004910D01*
X149920837Y-46015935D01*
X149927928Y-46012697D01*
X149961999Y-45978626D01*
X150024311Y-45944600D01*
X150095126Y-45949665D01*
X150140189Y-45978626D01*
X150219031Y-46057468D01*
X150297874Y-46136310D01*
X150331900Y-46198622D01*
X150326835Y-46269437D01*
X150297875Y-46314500D01*
X150012284Y-46600092D01*
X150004673Y-46614030D01*
X150004805Y-46615866D01*
X150009054Y-46622478D01*
X150297875Y-46911300D01*
X150331900Y-46973612D01*
X150326835Y-47044428D01*
X150297873Y-47089492D01*
X150278772Y-47108592D01*
X150273266Y-47118677D01*
X150280568Y-47121400D01*
X150728484Y-47121400D01*
X150743723Y-47116925D01*
X150744928Y-47115535D01*
X150746599Y-47107852D01*
X150746599Y-45230731D01*
X150746229Y-45223910D01*
X150740705Y-45173048D01*
X150737079Y-45157796D01*
X150691924Y-45037346D01*
X150683386Y-45021751D01*
X150606885Y-44919676D01*
X150594324Y-44907115D01*
X150492249Y-44830614D01*
X150476654Y-44822076D01*
X150356206Y-44776922D01*
X150340951Y-44773295D01*
X150290086Y-44767769D01*
X150283272Y-44767400D01*
X148410715Y-44767400D01*
X148395476Y-44771875D01*
X148394271Y-44773265D01*
X148392600Y-44780948D01*
X148392600Y-45229921D01*
X147884600Y-45229921D01*
X147884600Y-44785516D01*
X147880125Y-44770277D01*
X147878735Y-44769072D01*
X147871052Y-44767401D01*
X145993931Y-44767401D01*
X145987110Y-44767771D01*
X145936248Y-44773295D01*
X145920996Y-44776921D01*
X145800546Y-44822076D01*
X145784951Y-44830614D01*
X145682876Y-44907115D01*
X145670315Y-44919676D01*
X145593814Y-45021751D01*
X145585276Y-45037346D01*
X145540122Y-45157794D01*
X145536495Y-45173049D01*
X145530969Y-45223914D01*
X145530600Y-45230728D01*
X145530600Y-47103285D01*
X143045990Y-47103285D01*
X141814005Y-45871300D01*
X141779979Y-45808988D01*
X141777100Y-45782205D01*
X141777100Y-43229168D01*
X141777627Y-43217985D01*
X141779302Y-43210492D01*
X141777859Y-43164562D01*
X141777162Y-43142402D01*
X141777100Y-43138444D01*
X141777100Y-43110544D01*
X141776596Y-43106553D01*
X141775663Y-43094711D01*
X141774998Y-43073534D01*
X141774274Y-43050511D01*
X141770916Y-43038953D01*
X141768621Y-43031052D01*
X141764612Y-43011693D01*
X141763726Y-43004679D01*
X141762074Y-42991603D01*
X141759158Y-42984237D01*
X141759156Y-42984231D01*
X141745800Y-42950498D01*
X141741955Y-42939268D01*
X141731830Y-42904417D01*
X141731830Y-42904416D01*
X141729619Y-42896807D01*
X141719305Y-42879366D01*
X141710608Y-42861613D01*
X141706072Y-42850158D01*
X141703152Y-42842783D01*
X141677163Y-42807012D01*
X141670647Y-42797092D01*
X141652178Y-42765863D01*
X141648142Y-42759038D01*
X141633821Y-42744717D01*
X141620980Y-42729683D01*
X141613731Y-42719706D01*
X141609072Y-42713293D01*
X141574995Y-42685102D01*
X141566216Y-42677112D01*
X141364005Y-42474901D01*
X141329979Y-42412589D01*
X141327100Y-42385806D01*
X141327100Y-42077266D01*
X141320345Y-42015084D01*
X141308928Y-41984629D01*
X141303745Y-41913823D01*
X141308926Y-41896176D01*
X141320345Y-41865716D01*
X141327100Y-41803534D01*
X141327100Y-40807266D01*
X141320345Y-40745084D01*
X141308661Y-40713917D01*
X141303478Y-40643112D01*
X141308661Y-40625457D01*
X141317079Y-40603002D01*
X141320705Y-40587751D01*
X141326231Y-40536886D01*
X141326600Y-40530072D01*
X141326600Y-40307515D01*
X141322125Y-40292276D01*
X141320735Y-40291071D01*
X141313052Y-40289400D01*
X138828716Y-40289400D01*
X138813477Y-40293875D01*
X138812272Y-40295265D01*
X138810601Y-40302948D01*
X138810601Y-40530069D01*
X138810971Y-40536890D01*
X138816495Y-40587752D01*
X138820120Y-40603000D01*
X138828539Y-40625457D01*
X138833722Y-40696264D01*
X138828542Y-40713910D01*
X138816855Y-40745084D01*
X138810100Y-40807266D01*
X138810100Y-41803534D01*
X138816855Y-41865716D01*
X138828272Y-41896171D01*
X138833455Y-41966977D01*
X138828274Y-41984624D01*
X138816855Y-42015084D01*
X138810100Y-42077266D01*
X138810100Y-42305805D01*
X138790098Y-42373926D01*
X138773195Y-42394900D01*
X138291747Y-42876348D01*
X138283461Y-42883888D01*
X138276982Y-42888000D01*
X138271557Y-42893777D01*
X138230357Y-42937651D01*
X138227602Y-42940493D01*
X138207865Y-42960230D01*
X138205385Y-42963427D01*
X138197682Y-42972447D01*
X138167414Y-43004679D01*
X138163595Y-43011625D01*
X138163593Y-43011628D01*
X138157652Y-43022434D01*
X138146801Y-43038953D01*
X138134386Y-43054959D01*
X138131241Y-43062228D01*
X138131238Y-43062232D01*
X138116826Y-43095537D01*
X138111609Y-43106187D01*
X138090305Y-43144940D01*
X138088334Y-43152615D01*
X138088334Y-43152616D01*
X138085267Y-43164562D01*
X138078863Y-43183266D01*
X138070819Y-43201855D01*
X138069580Y-43209678D01*
X138069577Y-43209688D01*
X138063901Y-43245524D01*
X138061495Y-43257144D01*
X138050500Y-43299970D01*
X138050500Y-43320224D01*
X138048949Y-43339934D01*
X138045780Y-43359943D01*
X138046526Y-43367835D01*
X138049941Y-43403961D01*
X138050500Y-43415819D01*
X138050500Y-54371605D01*
X138030498Y-54439726D01*
X138013595Y-54460701D01*
X137649995Y-54824300D01*
X137587683Y-54858325D01*
X137516867Y-54853260D01*
X137460032Y-54810713D01*
X137435221Y-54744193D01*
X137434900Y-54735204D01*
X137434900Y-54501266D01*
X137428145Y-54439084D01*
X137377015Y-54302695D01*
X137289661Y-54186139D01*
X137173105Y-54098785D01*
X137036716Y-54047655D01*
X136974534Y-54040900D01*
X133078266Y-54040900D01*
X133016084Y-54047655D01*
X132879695Y-54098785D01*
X132763139Y-54186139D01*
X132675785Y-54302695D01*
X132624655Y-54439084D01*
X132617900Y-54501266D01*
X132617900Y-56597534D01*
X132624655Y-56659716D01*
X132675785Y-56796105D01*
X132763139Y-56912661D01*
X132879695Y-57000015D01*
X133016084Y-57051145D01*
X133078266Y-57057900D01*
X134266900Y-57057900D01*
X134335021Y-57077902D01*
X134381514Y-57131558D01*
X134392900Y-57183900D01*
X134392900Y-60214900D01*
X134372898Y-60283021D01*
X134319242Y-60329514D01*
X134266900Y-60340900D01*
X134228266Y-60340900D01*
X134166084Y-60347655D01*
X134029695Y-60398785D01*
X133953445Y-60455931D01*
X133951548Y-60457353D01*
X133885042Y-60482201D01*
X133815659Y-60467148D01*
X133800418Y-60457353D01*
X133730048Y-60404614D01*
X133714454Y-60396076D01*
X133594006Y-60350922D01*
X133578751Y-60347295D01*
X133527886Y-60341769D01*
X133521072Y-60341400D01*
X132998515Y-60341400D01*
X132983276Y-60345875D01*
X132982071Y-60347265D01*
X132980400Y-60354948D01*
X132980400Y-63339284D01*
X132984875Y-63354523D01*
X132986265Y-63355728D01*
X132993948Y-63357399D01*
X133521069Y-63357399D01*
X133527890Y-63357029D01*
X133578752Y-63351505D01*
X133594006Y-63347878D01*
X133710156Y-63304336D01*
X133780963Y-63299153D01*
X133843332Y-63333074D01*
X133877461Y-63395329D01*
X133872514Y-63466153D01*
X133866085Y-63479332D01*
X133866220Y-63479395D01*
X133863125Y-63486032D01*
X133859285Y-63492262D01*
X133803603Y-63660139D01*
X133792900Y-63764600D01*
X133792900Y-64365400D01*
X133793237Y-64368646D01*
X133793237Y-64368650D01*
X133803036Y-64463085D01*
X133803874Y-64471166D01*
X133806055Y-64477702D01*
X133806055Y-64477704D01*
X133833003Y-64558476D01*
X133859850Y-64638946D01*
X133952922Y-64789348D01*
X134078097Y-64914305D01*
X134082635Y-64917102D01*
X134123224Y-64974353D01*
X134126454Y-65045276D01*
X134090828Y-65106687D01*
X134082332Y-65114062D01*
X134072193Y-65122098D01*
X133957661Y-65236829D01*
X133948649Y-65248240D01*
X133863584Y-65386243D01*
X133857437Y-65399424D01*
X133806262Y-65553710D01*
X133803395Y-65567086D01*
X133793728Y-65661438D01*
X133793400Y-65667855D01*
X133793400Y-65692885D01*
X133797875Y-65708124D01*
X133799265Y-65709329D01*
X133806948Y-65711000D01*
X138541284Y-65711000D01*
X138556523Y-65706525D01*
X138557728Y-65705135D01*
X138559399Y-65697452D01*
X138559399Y-65667905D01*
X138559062Y-65661386D01*
X138549143Y-65565794D01*
X138546251Y-65552400D01*
X138494812Y-65398216D01*
X138488639Y-65385038D01*
X138403337Y-65247193D01*
X138394301Y-65235792D01*
X138279572Y-65121262D01*
X138270638Y-65114206D01*
X138229577Y-65056288D01*
X138226347Y-64985365D01*
X138261974Y-64923954D01*
X138269807Y-64917154D01*
X138275748Y-64913478D01*
X138400705Y-64788303D01*
X138407935Y-64776574D01*
X138489675Y-64643968D01*
X138489676Y-64643966D01*
X138493515Y-64637738D01*
X138536662Y-64507652D01*
X138547032Y-64476389D01*
X138547032Y-64476387D01*
X138549197Y-64469861D01*
X138551035Y-64451928D01*
X138555715Y-64406249D01*
X138559900Y-64365400D01*
X138559900Y-63764600D01*
X138559563Y-63761350D01*
X138549638Y-63665692D01*
X138549637Y-63665688D01*
X138548926Y-63658834D01*
X138523671Y-63583134D01*
X138495268Y-63498002D01*
X138492950Y-63491054D01*
X138417975Y-63369896D01*
X138399137Y-63301446D01*
X138420298Y-63233676D01*
X138434135Y-63216802D01*
X138439661Y-63212661D01*
X138527015Y-63096105D01*
X138578145Y-62959716D01*
X138584900Y-62897534D01*
X138584900Y-62608900D01*
X138604902Y-62540779D01*
X138658558Y-62494286D01*
X138710900Y-62482900D01*
X153564447Y-62482900D01*
X153632568Y-62502902D01*
X153653542Y-62519805D01*
X155406859Y-64273122D01*
X155440885Y-64335434D01*
X155435820Y-64406249D01*
X155393273Y-64463085D01*
X155326753Y-64487896D01*
X155301318Y-64487139D01*
X155262572Y-64482038D01*
X155262571Y-64482038D01*
X155258485Y-64481500D01*
X155118617Y-64481500D01*
X154978716Y-64481501D01*
X154974631Y-64482039D01*
X154974627Y-64482039D01*
X154867937Y-64496084D01*
X154867935Y-64496084D01*
X154859750Y-64497162D01*
X154841819Y-64504589D01*
X154771230Y-64512179D01*
X154745382Y-64504590D01*
X154736260Y-64500811D01*
X154735080Y-64500322D01*
X154735077Y-64500321D01*
X154727450Y-64497162D01*
X154706729Y-64494434D01*
X154612572Y-64482038D01*
X154612571Y-64482038D01*
X154608485Y-64481500D01*
X154468617Y-64481500D01*
X154328716Y-64481501D01*
X154324631Y-64482039D01*
X154324627Y-64482039D01*
X154217937Y-64496084D01*
X154217935Y-64496084D01*
X154209750Y-64497162D01*
X154191819Y-64504589D01*
X154121230Y-64512179D01*
X154095382Y-64504590D01*
X154086260Y-64500811D01*
X154085080Y-64500322D01*
X154085077Y-64500321D01*
X154077450Y-64497162D01*
X154056729Y-64494434D01*
X153962572Y-64482038D01*
X153962571Y-64482038D01*
X153958485Y-64481500D01*
X153818617Y-64481500D01*
X153678716Y-64481501D01*
X153674631Y-64482039D01*
X153674627Y-64482039D01*
X153567937Y-64496084D01*
X153567935Y-64496084D01*
X153559750Y-64497162D01*
X153541819Y-64504589D01*
X153471230Y-64512179D01*
X153445382Y-64504590D01*
X153436260Y-64500811D01*
X153435080Y-64500322D01*
X153435077Y-64500321D01*
X153427450Y-64497162D01*
X153406729Y-64494434D01*
X153312572Y-64482038D01*
X153312571Y-64482038D01*
X153308485Y-64481500D01*
X153168617Y-64481500D01*
X153028716Y-64481501D01*
X153024631Y-64482039D01*
X153024627Y-64482039D01*
X152917937Y-64496084D01*
X152917935Y-64496084D01*
X152909750Y-64497162D01*
X152891819Y-64504589D01*
X152821230Y-64512179D01*
X152795382Y-64504590D01*
X152786260Y-64500811D01*
X152785080Y-64500322D01*
X152785077Y-64500321D01*
X152777450Y-64497162D01*
X152756729Y-64494434D01*
X152662572Y-64482038D01*
X152662571Y-64482038D01*
X152658485Y-64481500D01*
X152518617Y-64481500D01*
X152378716Y-64481501D01*
X152374631Y-64482039D01*
X152374627Y-64482039D01*
X152267937Y-64496084D01*
X152267935Y-64496084D01*
X152259750Y-64497162D01*
X152241165Y-64504860D01*
X152170577Y-64512450D01*
X152144726Y-64504860D01*
X152134951Y-64500811D01*
X152119131Y-64496572D01*
X152086560Y-64492284D01*
X152072378Y-64494495D01*
X152068600Y-64507652D01*
X152068600Y-64529431D01*
X152048598Y-64597552D01*
X152019306Y-64629391D01*
X151984613Y-64656013D01*
X151979587Y-64662563D01*
X151894562Y-64773369D01*
X151837224Y-64815236D01*
X151766353Y-64819458D01*
X151704450Y-64784694D01*
X151671169Y-64721981D01*
X151668600Y-64696665D01*
X151668600Y-64508035D01*
X151664556Y-64494264D01*
X151651017Y-64492235D01*
X151618067Y-64496572D01*
X151602252Y-64500810D01*
X151469607Y-64555753D01*
X151455424Y-64563941D01*
X151341520Y-64651344D01*
X151329944Y-64662920D01*
X151242541Y-64776824D01*
X151234353Y-64791007D01*
X151179410Y-64923650D01*
X151175172Y-64939468D01*
X151161138Y-65046066D01*
X151160600Y-65054275D01*
X151160600Y-65509385D01*
X151165075Y-65524624D01*
X151166465Y-65525829D01*
X151174148Y-65527500D01*
X151668600Y-65527500D01*
X151668600Y-65528053D01*
X151719603Y-65528054D01*
X151779328Y-65566439D01*
X151808819Y-65631021D01*
X151810101Y-65648949D01*
X151810101Y-65801500D01*
X151790099Y-65869621D01*
X151736443Y-65916114D01*
X151684101Y-65927500D01*
X151178716Y-65927500D01*
X151163477Y-65931975D01*
X151162272Y-65933365D01*
X151160601Y-65941048D01*
X151160601Y-66321900D01*
X151140599Y-66390021D01*
X151086943Y-66436514D01*
X151034601Y-66447900D01*
X150116567Y-66447900D01*
X150105384Y-66447373D01*
X150097891Y-66445698D01*
X150089965Y-66445947D01*
X150089964Y-66445947D01*
X150029814Y-66447838D01*
X150025855Y-66447900D01*
X149997944Y-66447900D01*
X149994010Y-66448397D01*
X149994009Y-66448397D01*
X149993944Y-66448405D01*
X149982107Y-66449338D01*
X149950290Y-66450338D01*
X149945829Y-66450478D01*
X149937910Y-66450727D01*
X149920254Y-66455856D01*
X149918458Y-66456378D01*
X149899106Y-66460386D01*
X149892035Y-66461280D01*
X149879003Y-66462926D01*
X149871634Y-66465843D01*
X149871632Y-66465844D01*
X149837897Y-66479200D01*
X149826669Y-66483045D01*
X149784207Y-66495382D01*
X149777385Y-66499416D01*
X149777379Y-66499419D01*
X149766768Y-66505694D01*
X149749018Y-66514390D01*
X149737556Y-66518928D01*
X149737551Y-66518931D01*
X149730183Y-66521848D01*
X149723768Y-66526509D01*
X149694425Y-66547827D01*
X149684507Y-66554343D01*
X149665819Y-66565395D01*
X149646437Y-66576858D01*
X149632113Y-66591182D01*
X149617081Y-66604021D01*
X149600693Y-66615928D01*
X149572512Y-66649993D01*
X149564522Y-66658773D01*
X148426347Y-67796948D01*
X148418061Y-67804488D01*
X148411582Y-67808600D01*
X148406157Y-67814377D01*
X148364957Y-67858251D01*
X148362202Y-67861093D01*
X148342465Y-67880830D01*
X148339985Y-67884027D01*
X148332282Y-67893047D01*
X148302014Y-67925279D01*
X148298195Y-67932225D01*
X148298193Y-67932228D01*
X148292252Y-67943034D01*
X148281401Y-67959553D01*
X148268986Y-67975559D01*
X148265841Y-67982828D01*
X148265838Y-67982832D01*
X148251426Y-68016137D01*
X148246209Y-68026787D01*
X148224905Y-68065540D01*
X148222934Y-68073215D01*
X148222934Y-68073216D01*
X148219867Y-68085162D01*
X148213463Y-68103866D01*
X148210135Y-68111558D01*
X148205419Y-68122455D01*
X148204180Y-68130278D01*
X148204177Y-68130288D01*
X148198501Y-68166124D01*
X148196095Y-68177744D01*
X148190343Y-68200149D01*
X148185100Y-68220570D01*
X148185100Y-68240824D01*
X148183549Y-68260534D01*
X148180380Y-68280543D01*
X148181126Y-68288435D01*
X148180877Y-68296358D01*
X148178836Y-68296294D01*
X148167369Y-68355476D01*
X148129495Y-68399564D01*
X148124939Y-68402875D01*
X148119976Y-68405827D01*
X147956442Y-68549242D01*
X147952870Y-68553772D01*
X147952869Y-68553774D01*
X147918607Y-68597234D01*
X147860725Y-68638347D01*
X147789805Y-68641639D01*
X147728363Y-68606067D01*
X147718700Y-68594615D01*
X147705337Y-68576719D01*
X147705330Y-68576712D01*
X147701880Y-68572091D01*
X147692938Y-68563825D01*
X147546396Y-68428363D01*
X147546393Y-68428361D01*
X147542156Y-68424444D01*
X147358199Y-68308376D01*
X147156172Y-68227776D01*
X146942839Y-68185341D01*
X146937064Y-68185265D01*
X146937060Y-68185265D01*
X146828019Y-68183838D01*
X146725346Y-68182494D01*
X146719649Y-68183473D01*
X146719648Y-68183473D01*
X146622601Y-68200149D01*
X146552077Y-68191972D01*
X146512168Y-68165064D01*
X145535424Y-67188320D01*
X145501398Y-67126008D01*
X145506463Y-67055193D01*
X145549010Y-66998357D01*
X145615530Y-66973546D01*
X145628715Y-66973507D01*
X145628715Y-66973500D01*
X145768549Y-66973500D01*
X145908484Y-66973499D01*
X145912569Y-66972961D01*
X145912573Y-66972961D01*
X146019263Y-66958916D01*
X146019265Y-66958916D01*
X146027450Y-66957838D01*
X146101463Y-66927181D01*
X146167848Y-66899684D01*
X146167850Y-66899683D01*
X146175476Y-66896524D01*
X146302587Y-66798987D01*
X146307613Y-66792437D01*
X146307616Y-66792434D01*
X146382987Y-66694208D01*
X146400124Y-66671875D01*
X146461438Y-66523850D01*
X146471272Y-66449151D01*
X146476562Y-66408972D01*
X146476562Y-66408971D01*
X146477100Y-66404885D01*
X146477099Y-65050116D01*
X146471439Y-65007115D01*
X146462516Y-64939337D01*
X146462516Y-64939335D01*
X146461438Y-64931150D01*
X146413425Y-64815236D01*
X146403284Y-64790752D01*
X146403283Y-64790750D01*
X146400124Y-64783124D01*
X146302587Y-64656013D01*
X146296037Y-64650987D01*
X146296034Y-64650984D01*
X146239031Y-64607245D01*
X146175475Y-64558476D01*
X146087101Y-64521870D01*
X146031821Y-64477323D01*
X146009400Y-64409960D01*
X146010010Y-64392292D01*
X146023014Y-64268565D01*
X146023014Y-64268564D01*
X146023704Y-64262000D01*
X146003742Y-64072072D01*
X145944727Y-63890444D01*
X145849240Y-63725056D01*
X145796947Y-63666978D01*
X145725875Y-63588045D01*
X145725874Y-63588044D01*
X145721453Y-63583134D01*
X145594716Y-63491054D01*
X145572294Y-63474763D01*
X145572293Y-63474762D01*
X145566952Y-63470882D01*
X145560924Y-63468198D01*
X145560922Y-63468197D01*
X145398519Y-63395891D01*
X145398518Y-63395891D01*
X145392488Y-63393206D01*
X145299088Y-63373353D01*
X145212144Y-63354872D01*
X145212139Y-63354872D01*
X145205687Y-63353500D01*
X145014713Y-63353500D01*
X145008261Y-63354872D01*
X145008256Y-63354872D01*
X144921312Y-63373353D01*
X144827912Y-63393206D01*
X144821882Y-63395891D01*
X144821881Y-63395891D01*
X144659478Y-63468197D01*
X144659476Y-63468198D01*
X144653448Y-63470882D01*
X144648107Y-63474762D01*
X144648106Y-63474763D01*
X144625684Y-63491054D01*
X144498947Y-63583134D01*
X144494526Y-63588044D01*
X144494525Y-63588045D01*
X144423454Y-63666978D01*
X144371160Y-63725056D01*
X144275673Y-63890444D01*
X144216658Y-64072072D01*
X144196696Y-64262000D01*
X144197386Y-64268564D01*
X144206726Y-64357426D01*
X144193954Y-64427265D01*
X144145452Y-64479111D01*
X144076619Y-64496506D01*
X144064970Y-64495519D01*
X143962572Y-64482038D01*
X143962571Y-64482038D01*
X143958485Y-64481500D01*
X143818617Y-64481500D01*
X143678716Y-64481501D01*
X143674631Y-64482039D01*
X143674627Y-64482039D01*
X143567937Y-64496084D01*
X143567935Y-64496084D01*
X143559750Y-64497162D01*
X143541819Y-64504589D01*
X143471230Y-64512179D01*
X143445382Y-64504590D01*
X143436260Y-64500811D01*
X143435080Y-64500322D01*
X143435077Y-64500321D01*
X143427450Y-64497162D01*
X143406729Y-64494434D01*
X143312572Y-64482038D01*
X143312571Y-64482038D01*
X143308485Y-64481500D01*
X143168617Y-64481500D01*
X143028716Y-64481501D01*
X143024631Y-64482039D01*
X143024627Y-64482039D01*
X142917937Y-64496084D01*
X142917935Y-64496084D01*
X142909750Y-64497162D01*
X142891819Y-64504589D01*
X142821230Y-64512179D01*
X142795382Y-64504590D01*
X142786260Y-64500811D01*
X142785080Y-64500322D01*
X142785077Y-64500321D01*
X142777450Y-64497162D01*
X142756729Y-64494434D01*
X142662572Y-64482038D01*
X142662571Y-64482038D01*
X142658485Y-64481500D01*
X142518617Y-64481500D01*
X142378716Y-64481501D01*
X142374631Y-64482039D01*
X142374627Y-64482039D01*
X142267937Y-64496084D01*
X142267935Y-64496084D01*
X142259750Y-64497162D01*
X142241819Y-64504589D01*
X142171230Y-64512179D01*
X142145382Y-64504590D01*
X142136260Y-64500811D01*
X142135080Y-64500322D01*
X142135077Y-64500321D01*
X142127450Y-64497162D01*
X142106729Y-64494434D01*
X142012572Y-64482038D01*
X142012571Y-64482038D01*
X142008485Y-64481500D01*
X141868617Y-64481500D01*
X141728716Y-64481501D01*
X141724631Y-64482039D01*
X141724627Y-64482039D01*
X141617937Y-64496084D01*
X141617935Y-64496084D01*
X141609750Y-64497162D01*
X141591819Y-64504589D01*
X141521230Y-64512179D01*
X141495382Y-64504590D01*
X141486260Y-64500811D01*
X141485080Y-64500322D01*
X141485077Y-64500321D01*
X141477450Y-64497162D01*
X141456729Y-64494434D01*
X141362572Y-64482038D01*
X141362571Y-64482038D01*
X141358485Y-64481500D01*
X141218617Y-64481500D01*
X141078716Y-64481501D01*
X141074631Y-64482039D01*
X141074627Y-64482039D01*
X140967937Y-64496084D01*
X140967935Y-64496084D01*
X140959750Y-64497162D01*
X140941819Y-64504589D01*
X140871230Y-64512179D01*
X140845382Y-64504590D01*
X140836260Y-64500811D01*
X140835080Y-64500322D01*
X140835077Y-64500321D01*
X140827450Y-64497162D01*
X140806729Y-64494434D01*
X140712572Y-64482038D01*
X140712571Y-64482038D01*
X140708485Y-64481500D01*
X140568617Y-64481500D01*
X140428716Y-64481501D01*
X140424631Y-64482039D01*
X140424627Y-64482039D01*
X140317937Y-64496084D01*
X140317935Y-64496084D01*
X140309750Y-64497162D01*
X140291165Y-64504860D01*
X140220577Y-64512450D01*
X140194726Y-64504860D01*
X140184951Y-64500811D01*
X140169131Y-64496572D01*
X140136560Y-64492284D01*
X140122378Y-64494495D01*
X140118600Y-64507652D01*
X140118600Y-64529431D01*
X140098598Y-64597552D01*
X140069306Y-64629391D01*
X140034613Y-64656013D01*
X140029587Y-64662563D01*
X139944562Y-64773369D01*
X139887224Y-64815236D01*
X139816353Y-64819458D01*
X139754450Y-64784694D01*
X139721169Y-64721981D01*
X139718600Y-64696665D01*
X139718600Y-64508035D01*
X139714556Y-64494264D01*
X139701017Y-64492235D01*
X139668067Y-64496572D01*
X139652252Y-64500810D01*
X139519607Y-64555753D01*
X139505424Y-64563941D01*
X139391520Y-64651344D01*
X139379944Y-64662920D01*
X139292541Y-64776824D01*
X139284353Y-64791007D01*
X139229410Y-64923650D01*
X139225172Y-64939468D01*
X139211138Y-65046066D01*
X139210600Y-65054275D01*
X139210600Y-65509385D01*
X139215075Y-65524624D01*
X139216465Y-65525829D01*
X139224148Y-65527500D01*
X139718600Y-65527500D01*
X139718600Y-65528053D01*
X139769603Y-65528054D01*
X139829328Y-65566439D01*
X139858819Y-65631021D01*
X139860101Y-65648949D01*
X139860101Y-65801500D01*
X139840099Y-65869621D01*
X139786443Y-65916114D01*
X139734101Y-65927500D01*
X139228716Y-65927500D01*
X139213477Y-65931975D01*
X139212272Y-65933365D01*
X139210601Y-65941048D01*
X139210601Y-66194900D01*
X139190599Y-66263021D01*
X139136943Y-66309514D01*
X139084601Y-66320900D01*
X138678324Y-66320900D01*
X138610203Y-66300898D01*
X138563710Y-66247242D01*
X138557428Y-66230399D01*
X138554925Y-66221876D01*
X138553535Y-66220671D01*
X138545852Y-66219000D01*
X133811516Y-66219000D01*
X133796277Y-66223475D01*
X133795072Y-66224865D01*
X133793401Y-66232548D01*
X133793401Y-66262095D01*
X133793738Y-66268614D01*
X133803657Y-66364206D01*
X133806549Y-66377600D01*
X133857988Y-66531784D01*
X133864161Y-66544962D01*
X133949463Y-66682807D01*
X133958499Y-66694208D01*
X134073229Y-66808739D01*
X134084640Y-66817751D01*
X134222643Y-66902816D01*
X134235824Y-66908963D01*
X134357254Y-66949240D01*
X134415613Y-66989671D01*
X134442850Y-67055235D01*
X134430316Y-67125117D01*
X134409438Y-67155083D01*
X134407075Y-67157600D01*
X134364957Y-67202451D01*
X134362202Y-67205293D01*
X134342465Y-67225030D01*
X134339985Y-67228227D01*
X134332282Y-67237247D01*
X134302014Y-67269479D01*
X134298195Y-67276425D01*
X134298193Y-67276428D01*
X134292252Y-67287234D01*
X134281401Y-67303753D01*
X134268986Y-67319759D01*
X134265841Y-67327028D01*
X134265838Y-67327032D01*
X134251426Y-67360337D01*
X134246209Y-67370987D01*
X134224905Y-67409740D01*
X134222934Y-67417415D01*
X134222934Y-67417416D01*
X134219867Y-67429362D01*
X134213463Y-67448066D01*
X134205419Y-67466655D01*
X134204180Y-67474478D01*
X134204177Y-67474488D01*
X134198501Y-67510324D01*
X134196095Y-67521944D01*
X134192774Y-67534879D01*
X134185100Y-67564770D01*
X134185100Y-67585024D01*
X134183549Y-67604734D01*
X134180380Y-67624743D01*
X134181126Y-67632635D01*
X134184541Y-67668761D01*
X134185100Y-67680619D01*
X134185100Y-68295432D01*
X134165098Y-68363553D01*
X134128911Y-68398510D01*
X134129614Y-68399478D01*
X134124942Y-68402872D01*
X134119976Y-68405827D01*
X134115632Y-68409637D01*
X134098192Y-68424931D01*
X134033788Y-68454808D01*
X133963455Y-68445122D01*
X133914289Y-68405765D01*
X133904186Y-68392285D01*
X133856861Y-68329139D01*
X133740305Y-68241785D01*
X133603916Y-68190655D01*
X133576686Y-68187697D01*
X133564492Y-68186372D01*
X133498930Y-68159130D01*
X133458504Y-68100766D01*
X133452100Y-68061109D01*
X133452100Y-67857903D01*
X133472102Y-67789782D01*
X133484464Y-67773593D01*
X133551221Y-67699452D01*
X133551222Y-67699451D01*
X133555640Y-67694544D01*
X133651127Y-67529156D01*
X133710142Y-67347528D01*
X133715567Y-67295917D01*
X133729414Y-67164165D01*
X133730104Y-67157600D01*
X133710142Y-66967672D01*
X133651127Y-66786044D01*
X133555640Y-66620656D01*
X133540665Y-66604024D01*
X133432275Y-66483645D01*
X133432274Y-66483644D01*
X133427853Y-66478734D01*
X133288655Y-66377600D01*
X133278694Y-66370363D01*
X133278693Y-66370362D01*
X133273352Y-66366482D01*
X133267324Y-66363798D01*
X133267322Y-66363797D01*
X133104919Y-66291491D01*
X133104918Y-66291491D01*
X133098888Y-66288806D01*
X133003893Y-66268614D01*
X132918544Y-66250472D01*
X132918539Y-66250472D01*
X132912087Y-66249100D01*
X132721113Y-66249100D01*
X132714661Y-66250472D01*
X132714656Y-66250472D01*
X132629307Y-66268614D01*
X132534312Y-66288806D01*
X132528282Y-66291491D01*
X132528281Y-66291491D01*
X132365878Y-66363797D01*
X132365876Y-66363798D01*
X132359848Y-66366482D01*
X132354507Y-66370362D01*
X132354506Y-66370363D01*
X132344545Y-66377600D01*
X132205347Y-66478734D01*
X132200926Y-66483644D01*
X132200925Y-66483645D01*
X132092536Y-66604024D01*
X132077560Y-66620656D01*
X131982073Y-66786044D01*
X131923058Y-66967672D01*
X131903096Y-67157600D01*
X131903786Y-67164165D01*
X131917634Y-67295917D01*
X131923058Y-67347528D01*
X131982073Y-67529156D01*
X131985376Y-67534878D01*
X131985377Y-67534879D01*
X132039945Y-67629393D01*
X132077560Y-67694544D01*
X132081978Y-67699451D01*
X132081979Y-67699452D01*
X132152736Y-67778035D01*
X132183453Y-67842043D01*
X132185100Y-67862346D01*
X132185100Y-68061109D01*
X132165098Y-68129230D01*
X132111442Y-68175723D01*
X132072708Y-68186372D01*
X132060514Y-68187697D01*
X132033284Y-68190655D01*
X131896895Y-68241785D01*
X131889710Y-68247170D01*
X131889708Y-68247171D01*
X131850265Y-68276732D01*
X131783758Y-68301580D01*
X131714376Y-68286527D01*
X131664146Y-68236352D01*
X131648700Y-68175906D01*
X131648700Y-63450916D01*
X131668702Y-63382795D01*
X131722358Y-63336302D01*
X131792632Y-63326198D01*
X131818929Y-63332934D01*
X131858791Y-63347878D01*
X131874049Y-63351505D01*
X131924914Y-63357031D01*
X131931728Y-63357400D01*
X132454285Y-63357400D01*
X132469524Y-63352925D01*
X132470729Y-63351535D01*
X132472400Y-63343852D01*
X132472400Y-60359516D01*
X132467925Y-60344277D01*
X132466535Y-60343072D01*
X132458852Y-60341401D01*
X131931731Y-60341401D01*
X131924910Y-60341771D01*
X131874048Y-60347295D01*
X131858793Y-60350922D01*
X131818929Y-60365866D01*
X131748122Y-60371049D01*
X131685753Y-60337128D01*
X131651624Y-60274872D01*
X131648700Y-60247884D01*
X131648700Y-39115500D01*
X131668702Y-39047379D01*
X131722358Y-39000886D01*
X131774700Y-38989500D01*
X138888364Y-38989500D01*
X138956485Y-39009502D01*
G37*
%TD.AperFunction*%
%TD*%
M02*
